<?xml version="1.0" encoding="utf-8"?>
<!-- Generator: Adobe Illustrator 28.3.0, SVG Export Plug-In . SVG Version: 6.00 Build 0)  -->
<svg version="1.1" id="Layer_1" xmlns="http://www.w3.org/2000/svg" xmlns:xlink="http://www.w3.org/1999/xlink" x="0px" y="0px"
	 viewBox="0 0 400 400" style="enable-background:new 0 0 400 400;" xml:space="preserve">
<style type="text/css">
	
		.st0{opacity:0.1;fill:#FFFFFF;stroke:#FFFFFF;stroke-width:18;stroke-linecap:round;stroke-linejoin:round;stroke-miterlimit:10;enable-background:new    ;}
	.st1{fill:#45C6F2;}
</style>
<rect x="11.6" y="9.3" class="st0" width="376.9" height="381.4"/>
<g>
	<path d="M40.4,200.5l10.1-31.9h0.1l9.9,31.9H40.4z M46.5,160.3L25,224h8.1l5.2-16.6h24.3l5.2,16.6h8.4l-20.9-63.8L46.5,160.3
		L46.5,160.3z"/>
	<path d="M115.9,185.9c0-2.9,0.3-5.8,0.4-8.5h-7.5l-0.3,6.7h-0.1c-2.6-4.4-6.7-7.5-11.4-7.5c-10.4,0-16.9,7.8-16.9,24
		c0,16,6.4,24,16,24c5.2,0,9.2-2.6,12.2-7.8h0.1v7.3c0,8.1-3.7,13.6-13.1,13.6c-4.1,0-9.6-1.9-12.8-4.1l-0.4,7.8
		c3.4,1.4,9.7,2.9,13.6,2.9c10.2,0,20-5.4,20-18.3V185.9z M87.8,200.7c0-11.7,3.2-17.7,10.2-17.7c7,0,10.2,6.1,10.2,17.7
		c0,11.7-3.2,17.8-10.2,17.8C90.9,218.5,87.8,212.4,87.8,200.7"/>
	<path d="M126.7,167.4h8.4v-9.2h-8.4V167.4z M127.1,224h7.6v-46.7h-7.6C127.1,177.3,127.1,224,127.1,224z"/>
	<path d="M146.7,224h7.6v-28.1c0-8.4,3.8-12.7,9.9-12.7c5,0,7.6,3.2,7.6,10.7V224h7.6v-32.3c0-10.2-5.5-14.8-13.6-14.8
		c-5.4,0-9.3,2.3-11.7,7.6H154l-0.3-7h-7.5c0.1,3.2,0.4,6.6,0.4,10.1V224L146.7,224L146.7,224z"/>
	<path d="M224.3,185.9c0-2.9,0.3-5.8,0.4-8.5h-7.5l-0.3,6.7h-0.1c-2.6-4.4-6.7-7.5-11.4-7.5c-10.4,0-16.9,7.8-16.9,24
		c0,16,6.4,24,16,24c5.2,0,9.2-2.6,12.2-7.8h0.1v7.3c0,8.1-3.7,13.6-13.1,13.6c-4.1,0-9.6-1.9-12.8-4.1l-0.4,7.8
		c3.4,1.4,9.7,2.9,13.6,2.9c10.2,0,20-5.4,20-18.3V185.9L224.3,185.9z M196.1,200.7c0-11.7,3.2-17.7,10.2-17.7s10.2,6.1,10.2,17.7
		c0,11.7-3.2,17.8-10.2,17.8S196.1,212.4,196.1,200.7"/>
	<path class="st1" d="M295.8,214.7c-3.2,1.9-7.3,2.9-11.4,2.9c-13.9,0-20.5-11-20.5-27.4c0-15.5,9.5-23.9,20-23.9
		c4.4,0,8.5,0.9,12,3.2v-7.8c-2.9-1.5-7.6-2.3-12-2.3c-16.6,0-28.2,12.5-28.2,32.5c0,17.2,8.5,32.6,28.7,32.6
		c3.8,0,7.8-0.6,11.6-1.9v-8H295.8z"/>
	<path class="st1" d="M311.4,197.2c0.1-11,4.6-14.6,9.5-14.6c6.1,0,9.2,4.9,9.2,14.6H311.4z M337.9,203V199
		c0-13.7-5.8-22.1-16.3-22.1c-11.6,0-18.1,9.3-18.1,24c0,14.6,6.4,24,18.8,24c4.7,0,9.5-0.9,13.1-2.7l-0.4-7
		c-2.7,1.9-6.9,3.8-10.7,3.8c-8.5,0-12.7-5-12.7-15.8H338L337.9,203L337.9,203L337.9,203z"/>
	<rect x="347.1" y="155.5" class="st1" width="7.6" height="68.5"/>
	<rect x="367.4" y="155.5" class="st1" width="7.6" height="68.5"/>
</g>
</svg>
