<?xml version="1.0" encoding="utf-8"?>
<!-- Generator: Adobe Illustrator 28.3.0, SVG Export Plug-In . SVG Version: 6.00 Build 0)  -->
<svg version="1.1" id="Layer_1" xmlns="http://www.w3.org/2000/svg" xmlns:xlink="http://www.w3.org/1999/xlink" x="0px" y="0px"
	 viewBox="0 0 400 400" style="enable-background:new 0 0 400 400;" xml:space="preserve">
<style type="text/css">
	
		.st0{opacity:0.1;fill:#FFFFFF;stroke:#FFFFFF;stroke-width:18;stroke-linecap:round;stroke-linejoin:round;stroke-miterlimit:10;enable-background:new    ;}
	.st1{fill:#003E6B;}
</style>
<rect x="11.6" y="9.8" class="st0" width="376.9" height="381.4"/>
<g>
	<path class="st1" d="M48.1,184.4c0,7.5-3.8,11.2-11.6,11.2c-8.7,0-11.6-5-11.6-12.4v-1.5H33v3.1c0,2.1,1.2,3.4,3.4,3.4
		c2,0,3.1-1.1,3.1-4.3v-22h8.7L48.1,184.4"/>
	<path class="st1" d="M69,161.2c10.4,0,16.3,7.6,16.3,17.1c0,9.6-5.8,17.1-16.3,17.1c-10.4,0-16.3-7.6-16.3-17.1
		C52.9,168.9,58.7,161.2,69,161.2 M69,188.2c5.5,0,7.6-4.9,7.6-9.9c0-4.9-2.1-9.9-7.6-9.9s-7.6,4.9-7.6,9.9
		C61.4,183.2,63.5,188.2,69,188.2z"/>
	<path class="st1" d="M118.6,181.2c0,9.6-4.4,14.3-14.3,14.3c-9.9,0-14.3-4.7-14.3-14.3V162h8.7v19.8c0,4.1,1.7,6.4,5.8,6.4
		s5.8-2.1,5.8-6.4V162h8.7v19.2"/>
	<path class="st1" d="M124.2,162H141c5.8,0,11.6,2.7,11.6,9.3c0,3.5-1.8,6.9-5.2,8.2v0.1c3.5,0.8,4.6,4.7,4.9,7.9
		c0.1,1.4,0.3,6.2,1.4,7.5h-8.5c-0.6-1.1-0.9-4.3-0.9-5.2c-0.3-3.4-0.8-6.7-4.9-6.7H133v12h-8.7v-33.1 M132.8,176.2h7.2
		c2.6,0,3.9-1.4,3.9-3.9c0-2.4-1.9-3.5-4.3-3.5h-6.8L132.8,176.2L132.8,176.2L132.8,176.2z"/>
	<polyline class="st1" points="157.3,162 166.3,162 177.8,182.3 177.8,182.3 177.8,162 185.8,162 185.8,194.9 177.1,194.9 
		165.6,174.4 165.5,174.4 165.5,194.9 157.3,194.9 157.3,162 	"/>
	<path class="st1" d="M200.7,162h8.7l12.3,32.9h-8.9l-2-5.9h-11.4l-2,5.9h-8.8L200.7,162 M201.2,182.6h7.5L205,171h-0.1L201.2,182.6
		z"/>
	<polyline class="st1" points="224.3,162 233,162 233,187.6 248.3,187.6 248.3,194.9 224.3,194.9 224.3,162 	"/>
	<path class="st1" d="M281.2,195.7c-9.9,0-15.7-7.6-15.7-17.2c0-9.7,5.8-17.2,15.7-17.2c9.9,0,15.7,7.6,15.7,17.2
		S291.1,195.7,281.2,195.7 M281.2,193.9c8.7,0,13.6-7,13.6-15.5c0-8.5-5-15.5-13.6-15.5c-8.7,0-13.6,7-13.6,15.5
		C267.6,186.9,272.6,193.9,281.2,193.9z"/>
	<polyline class="st1" points="303.1,178.6 303.1,194.9 301.1,194.9 301.1,162 321.9,162 321.9,163.7 303.1,163.7 303.1,176.9 
		320.1,176.9 320.1,178.6 303.1,178.6 	"/>
	<polyline class="st1" points="26.7,205.1 53,205.1 53,212 35.3,212 35.3,217.8 51.4,217.8 51.4,224.4 35.3,224.4 35.3,230.8 
		53.4,230.8 53.4,238.1 26.7,238.1 26.7,205.1 	"/>
	<polyline class="st1" points="58.2,205.1 67,205.1 78.5,225.5 78.6,225.5 78.6,205.1 86.7,205.1 86.7,238.1 77.9,238.1 66.3,217.5 
		66.3,217.5 66.3,238.1 58.2,238.1 58.2,205.1 	"/>
	<path class="st1" d="M92.5,205.1h14.2c10.1,0,16.2,6.2,16.2,16.3c0,10.8-6.2,16.6-16.2,16.6H92.5V205.1 M101.2,230.8h4.1
		c6.4-0.1,9-2.7,9-9.3c0-6.1-3.2-8.9-9-8.9h-4.1V230.8z"/>
	<path class="st1" d="M142.5,204.4c10.4,0,16.3,7.6,16.3,17.1c0,9.6-5.8,17.1-16.3,17.1c-10.4,0-16.3-7.6-16.3-17.1
		C126.4,212.2,132.2,204.4,142.5,204.4 M142.5,231.4c5.5,0,7.6-4.9,7.6-9.9c0-4.9-2.1-9.9-7.6-9.9s-7.6,4.9-7.6,9.9
		S137,231.4,142.5,231.4z"/>
	<path class="st1" d="M163.4,205.1h14.2c10.1,0,16.2,6.2,16.2,16.3c0,10.8-6.2,16.6-16.2,16.6h-14.2V205.1 M172.1,230.8h4.1
		c6.4-0.1,9-2.7,9-9.3c0-6.1-3.2-8.9-9-8.9h-4.1V230.8z"/>
	<path class="st1" d="M213.5,204.4c10.4,0,16.3,7.6,16.3,17.1c0,9.6-5.8,17.1-16.3,17.1c-10.4,0-16.3-7.6-16.3-17.1
		C197.3,212.2,203.1,204.4,213.5,204.4 M213.5,231.4c5.5,0,7.6-4.9,7.6-9.9c0-4.9-2.1-9.9-7.6-9.9c-5.5,0-7.6,4.9-7.6,9.9
		C206,226.5,208,231.4,213.5,231.4z"/>
	<polyline class="st1" points="234.4,205.1 243.2,205.1 254.6,225.5 254.8,225.5 254.8,205.1 262.9,205.1 262.9,238.1 254,238.1 
		242.6,217.5 242.5,217.5 242.5,238.1 234.4,238.1 234.4,205.1 	"/>
	<polyline class="st1" points="294.9,212.5 285,212.5 285,238.1 276.3,238.1 276.3,212.5 266.7,212.5 266.7,205.1 294.9,205.1 
		294.9,212.5 	"/>
	<rect x="298.6" y="205.1" class="st1" width="8.7" height="32.9"/>
	<path class="st1" d="M335,217c-0.4-3.4-3.1-5.2-6.6-5.2c-5.5,0-7.6,4.9-7.6,9.9c0,4.9,2.1,9.9,7.6,9.9c4.1,0,6.4-2.3,6.6-6.1h8.7
		c-0.4,8.5-6.7,13.4-15.1,13.4c-9.9,0-16.5-7.6-16.5-17.1c0-9.6,6.4-17.1,16.5-17.1c7.2,0,14.8,4.6,15.1,12.4L335,217"/>
	<path class="st1" d="M354.8,227.1c0.1,3.9,2.6,5.2,6.2,5.2c2.6,0,5.2-0.9,5.2-3.4c0-2.9-4.7-3.5-9.5-4.9c-4.7-1.4-9.7-3.5-9.7-9.6
		c0-7.2,7.3-9.9,13.4-9.9c6.6,0,13.3,3.2,13.3,10.7h-8.7c0.1-2.9-2.7-3.9-5.2-3.9c-1.9,0-4.1,0.6-4.1,2.9c0,2.6,4.7,2.9,9.6,4.3
		c4.7,1.4,9.6,3.5,9.6,9.6c0,8.4-7.2,11.1-14.3,11.1c-7.6,0-14.3-3.4-14.3-11.7h8.5"/>
</g>
</svg>
