<?xml version="1.0" encoding="utf-8"?>
<!-- Generator: Adobe Illustrator 28.3.0, SVG Export Plug-In . SVG Version: 6.00 Build 0)  -->
<svg version="1.1" id="Layer_1" xmlns="http://www.w3.org/2000/svg" xmlns:xlink="http://www.w3.org/1999/xlink" x="0px" y="0px"
	 viewBox="0 0 400 400" style="enable-background:new 0 0 400 400;" xml:space="preserve">
<style type="text/css">
	
		.st0{opacity:0.1;fill:#FFFFFF;stroke:#FFFFFF;stroke-width:18;stroke-linecap:round;stroke-linejoin:round;stroke-miterlimit:10;enable-background:new    ;}
	.st1{fill:#A6A7AA;}
	.st2{fill:#AA182C;}
	.st3{fill:#3D51A0;}
	.st4{fill:#3D50A3;}
</style>
<rect x="11.6" y="9.8" class="st0" width="376.9" height="381.4"/>
<g>
	<path class="st1" d="M38.9,193.7h6.7c0.6-1.8,2.1-3.1,4.1-3.1c2.4,0,4.4,2,4.4,4.4s-2,4.4-4.4,4.4c-2,0-3.7-1.4-4.1-3.1h-8.5
		l-12.2,18l3.8,2.3h16.9c0.6-1.8,2.1-3.1,4.1-3.1c2.4,0,4.4,2,4.4,4.4c0,2.4-2,4.4-4.4,4.4c-2,0-3.7-1.4-4.1-3.1H33L58,234.6v-68.7
		L38.9,193.7"/>
	<polyline class="st2" points="101,170.6 113.4,170.6 119.1,192.2 119.2,192.2 124.7,170.6 137.2,170.6 137.2,203 129.2,203 
		129.2,178.4 129.1,178.4 122.3,203 115.9,203 109.2,178.4 109,178.4 109,203 101,203 101,170.6 	"/>
	<path class="st2" d="M149.3,176.5h-7.6v-5.9h7.6V176.5z M141.6,179.5h7.6V203h-7.6V179.5z"/>
	<path class="st2" d="M168.7,188.1c0-2-1.8-3.4-3.8-3.4c-4.3,0-5,3.7-5,6.9c0,3.1,1.4,6.2,4.6,6.2c2.7,0,4.1-1.5,4.4-4.1h7.4
		c-0.6,6.4-5.5,9.9-11.9,9.9c-7,0-12.3-4.9-12.3-12c0-7.4,4.7-12.8,12.3-12.8c5.8,0,11.1,3.1,11.6,9.3L168.7,188.1"/>
	<path class="st2" d="M179.2,179.5h7.4v4.1h0.1c1.1-2.9,3.8-4.6,7-4.6c0.6,0,1.2,0,1.8,0.1v7c-0.9-0.3-1.8-0.4-2.9-0.4
		c-3.8,0-5.8,2.7-5.8,5.5v11.6H179v-23.5"/>
	<path class="st2" d="M207.3,178.8c7.3,0,12.4,5.4,12.4,12.4s-5.2,12.4-12.4,12.4s-12.4-5.4-12.4-12.4
		C195,184.2,200,178.8,207.3,178.8 M207.3,197.8c3.7,0,4.7-3.5,4.7-6.4s-1.1-6.6-4.7-6.6s-4.7,3.7-4.7,6.6
		C202.7,194.3,203.8,197.8,207.3,197.8z"/>
	<path class="st2" d="M222.4,170.6h7.6V182h0.1c1.7-2.1,3.8-3.2,6.7-3.2c6.6,0,9.9,5.8,9.9,11.9c0,6.6-3.1,12.9-10.5,12.9
		c-2.7,0-5-1.2-6.4-3.4h-0.1v2.7h-7.3L222.4,170.6 M229.9,191c0,4.1,1.2,6.7,4.7,6.7c3.5,0,4.6-3.7,4.6-6.7c0-2.9-1.2-6.4-4.6-6.4
		C232.4,184.7,229.9,186.1,229.9,191z"/>
	<path class="st2" d="M257.6,176.5h-7.6v-5.9h7.6V176.5z M249.8,179.5h7.6V203h-7.6L249.8,179.5L249.8,179.5z"/>
	<path class="st2" d="M272.9,178.8c7.3,0,12.4,5.4,12.4,12.4s-5.2,12.4-12.4,12.4s-12.4-5.4-12.4-12.4
		C260.5,184.2,265.6,178.8,272.9,178.8 M272.9,197.8c3.7,0,4.7-3.5,4.7-6.4s-1.1-6.6-4.7-6.6s-4.7,3.7-4.7,6.6
		S269.3,197.8,272.9,197.8z"/>
	<rect x="288.3" y="170.6" class="st2" width="7.6" height="32.3"/>
	<path class="st2" d="M311.3,178.8c7.3,0,12.4,5.4,12.4,12.4s-5.2,12.4-12.4,12.4s-12.4-5.4-12.4-12.4S304,178.8,311.3,178.8
		 M311.3,197.8c3.7,0,4.7-3.5,4.7-6.4s-1.1-6.6-4.7-6.6c-3.7,0-4.7,3.7-4.7,6.6C306.6,194.3,307.7,197.8,311.3,197.8z"/>
	<path class="st2" d="M349.2,200.1c0,3.9-0.6,11.1-11.7,11.1c-5.5,0-10.7-1.2-11.6-7.6h7.6c0.1,1.1,0.6,1.7,1.4,2
		c0.6,0.4,1.7,0.6,2.9,0.6c3.7,0,4.1-2.6,4.1-5.5v-2.1h-0.1c-1.4,2.1-3.8,3.5-6.2,3.5c-7.2,0-10.4-5.2-10.4-11.7
		c0-6.2,3.7-11.4,10.4-11.4c2.9,0,5,1.2,6.4,3.7h0.1v-2.9h7.4v20.6 M337.2,184.7c-3.4,0-4.4,2.9-4.4,5.9c0,2.9,1.2,5.5,4.4,5.5
		c3.2,0,4.7-2.6,4.7-5.5C342,187.6,340.7,184.7,337.2,184.7z"/>
	<path class="st2" d="M365.6,205.1c-1.8,5.2-4.6,5.8-9.9,5.8H352v-6.2h2.7c1.8,0,3.1-0.9,3.1-2.7c0-1.2-1.5-4.9-1.8-6.2l-6.1-16.3
		h8.2l4.4,15.4h0.1l4.4-15.4h7.9L365.6,205.1"/>
	<path class="st3" d="M101.6,212.5h5.8c2.3,0,4.1,1.1,4.1,4.1c0,2.1-0.9,3.8-2.7,4.1l0,0c1.7,0.1,2.4,1.1,2.6,3.4
		c0,1.1,0,2.3,0.1,3.4c0,0.8,0.4,1.2,0.8,1.5h-2.9c-0.3-0.3-0.4-0.8-0.4-1.5c-0.1-0.9-0.1-1.8-0.1-3.1c0-1.8-0.6-2.6-2.4-2.6h-2.1
		v7.2h-2.7v-16.5 M106.3,219.8c1.7,0,2.6-0.9,2.6-2.7s-0.8-2.7-2.4-2.7h-2.1v5.3L106.3,219.8L106.3,219.8L106.3,219.8z"/>
	<path class="st3" d="M115.9,223v0.6c0,1.7,0.3,3.8,2,3.8c1.8,0,2-2,2-2.7h2.3c0,2.7-1.7,4.4-4.3,4.4c-2,0-4.4-0.6-4.4-6.4
		c0-3.2,0.6-6.6,4.6-6.6c3.4,0,4.3,2,4.3,5.5v1.4L115.9,223 M119.8,221.4v-0.6c0-1.7-0.6-2.7-1.8-2.7c-1.7,0-2,1.7-2,3.1v0.3
		L119.8,221.4L119.8,221.4z"/>
	<path class="st3" d="M129.6,220.2v-0.3c0-0.9-0.4-1.8-1.7-1.8c-0.9,0-1.8,0.4-1.8,1.7c0,0.9,0.4,1.4,1.8,1.8l1.7,0.6
		c1.8,0.6,2.7,1.7,2.7,3.5c0,2.7-1.8,3.8-4.4,3.8c-3.1,0-4.1-1.5-4.1-3.8v-0.4h2.1v0.4c0,1.5,0.6,2.1,1.8,2.1c1.3,0,2-0.6,2-1.8
		c0-0.9-0.6-1.5-1.4-1.8l-2-0.6c-1.8-0.6-2.6-1.7-2.6-3.5c0-2.3,1.7-3.4,4.1-3.4c3.1,0,3.8,1.8,3.8,3.4v0.6h-2.3"/>
	<path class="st3" d="M138.1,216.3c3.7,0,4.6,2.7,4.6,6.4s-1.2,6.4-4.6,6.4c-3.4,0-4.6-2.7-4.6-6.4
		C133.5,218.8,134.6,216.3,138.1,216.3 M138.1,227.4c1.8,0,2.1-1.5,2.1-4.6c0-2.7-0.3-4.6-2.1-4.6c-1.8,0-2.1,1.8-2.1,4.6
		C136.1,225.8,136.3,227.4,138.1,227.4z"/>
	<path class="st3" d="M150.9,227.5L150.9,227.5c-0.6,1.1-1.8,1.8-3.2,1.8c-1.8,0-3.1-0.8-3.1-4.1v-8.6h2.4v8.8
		c0,1.4,0.6,1.8,1.7,1.8c1.1,0,2-0.6,2-2v-8.6h2.4v12.3h-2.3v-1.4"/>
	<path class="st3" d="M155.6,216.6h2.4v1.8l0,0c0.6-1.4,1.5-2.3,2.9-2.3c0.3,0,0.4,0,0.6,0.1v2.6c-0.1,0-0.6-0.1-1.1-0.1
		c-1.1,0-2.4,0.6-2.4,2.9v7.4h-2.4L155.6,216.6"/>
	<path class="st3" d="M171,224.3c-0.1,2.9-1.2,4.9-4.1,4.9c-3.5,0-4.6-2.7-4.6-6.4s0.9-6.4,4.6-6.4s4.1,2.9,4.1,4.4h-2.4
		c0-1.1-0.3-2.6-1.8-2.6c-1.8,0-2.1,1.8-2.1,4.6s0.3,4.6,2.1,4.6c1.4,0,1.8-1.1,1.8-2.9L171,224.3"/>
	<path class="st3" d="M175,223v0.6c0,1.7,0.3,3.8,2,3.8s2-2,2-2.7h2.3c0,2.7-1.7,4.4-4.3,4.4c-2,0-4.4-0.6-4.4-6.4
		c0-3.2,0.6-6.6,4.6-6.6c3.4,0,4.3,2,4.3,5.5v1.4L175,223 M179,221.4v-0.6c0-1.7-0.6-2.7-1.8-2.7c-1.7,0-2,1.7-2,3.1v0.3L179,221.4
		L179,221.4z"/>
	<path class="st3" d="M191.3,212.5h3.4l4.3,16.3h-2.8l-0.9-4.1h-4.7l-1.1,4.1h-2.7L191.3,212.5 M194.8,222.8l-1.8-8.1l0,0l-1.8,8.1
		H194.8z"/>
	<path class="st3" d="M200,216.6h2.3v1.5h0.1c0.6-1.1,1.8-1.8,3.1-1.8c1.8,0,3.1,0.8,3.1,3.4v9.3h-2.4v-8.5c0-1.7-0.6-2.1-1.8-2.1
		c-0.9,0-2,0.8-2,2.4v8.2H200V216.6"/>
	<path class="st3" d="M210.9,216.6h2.3v1.5l0,0c0.6-1.1,1.8-1.8,3.1-1.8c1.8,0,3.1,0.8,3.1,3.4v9.3H217v-8.5c0-1.7-0.6-2.1-1.8-2.1
		c-0.9,0-2,0.8-2,2.4v8.2h-2.4L210.9,216.6"/>
	<path class="st3" d="M226,216.3c3.7,0,4.6,2.7,4.6,6.4s-1.2,6.4-4.6,6.4c-3.4,0-4.6-2.7-4.6-6.4C221.4,218.8,222.5,216.3,226,216.3
		 M226,227.4c1.8,0,2.1-1.5,2.1-4.6c0-2.7-0.3-4.6-2.1-4.6c-1.8,0-2.1,1.8-2.1,4.6C223.9,225.8,224.2,227.4,226,227.4z"/>
	<path class="st3" d="M238.8,227.5L238.8,227.5c-0.6,1.1-1.8,1.8-3.2,1.8c-1.8,0-3.1-0.8-3.1-4.1v-8.6h2.4v8.8
		c0,1.4,0.6,1.8,1.7,1.8c1.1,0,2-0.6,2-2v-8.6h2.4v12.3h-2.2L238.8,227.5"/>
	<path class="st3" d="M243.5,216.6h2.3v1.5l0,0c0.6-1.1,1.8-1.8,3.1-1.8c1.8,0,3.1,0.8,3.1,3.4v9.3h-2.4v-8.5c0-1.7-0.6-2.1-1.8-2.1
		c-0.9,0-2,0.8-2,2.4v8.2h-2.4V216.6"/>
	<path class="st3" d="M262.8,224.3c-0.1,2.9-1.2,4.9-4.1,4.9c-3.5,0-4.6-2.7-4.6-6.4s0.9-6.4,4.6-6.4c3.7,0,4.1,2.9,4.1,4.4h-2.4
		c0-1.1-0.3-2.6-1.8-2.6c-1.8,0-2.1,1.8-2.1,4.6s0.3,4.6,2.1,4.6c1.4,0,1.8-1.1,1.8-2.9L262.8,224.3"/>
	<path class="st3" d="M266.9,223v0.6c0,1.7,0.3,3.8,2,3.8c1.8,0,2-2,2-2.7h2.3c0,2.7-1.7,4.4-4.3,4.4c-2,0-4.4-0.6-4.4-6.4
		c0-3.2,0.6-6.6,4.6-6.6c3.4,0,4.3,2,4.3,5.5v1.4L266.9,223 M270.8,221.4v-0.6c0-1.7-0.6-2.7-1.8-2.7c-1.7,0-2,1.7-2,3.1v0.3
		L270.8,221.4L270.8,221.4z"/>
	<path class="st3" d="M275.4,216.6h2.3v1.5h0.1c0.6-1.1,1.8-1.8,2.9-1.8c1.8,0,2.4,0.8,2.9,1.8c0.6-1.2,1.7-1.8,3.1-1.8
		c1.8,0,2.9,0.9,2.9,3.2v9.3h-2.4v-8.6c0-1.7-0.6-2.1-1.5-2.1s-2,0.8-2,2.4v8.2h-2.4v-8.5c0-1.7-0.6-2.1-1.5-2.1s-1.8,0.8-1.8,2.4
		v8.2h-2.4v-12.2"/>
	<path class="st3" d="M294.3,223v0.6c0,1.7,0.3,3.8,2,3.8c1.8,0,2-2,2-2.7h2.3c0,2.7-1.7,4.4-4.3,4.4c-2,0-4.4-0.6-4.4-6.4
		c0-3.2,0.6-6.6,4.6-6.6c3.4,0,4.3,2,4.3,5.5v1.4L294.3,223 M298.2,221.4v-0.6c0-1.7-0.6-2.7-1.8-2.7c-1.7,0-2,1.7-2,3.1v0.3
		L298.2,221.4L298.2,221.4z"/>
	<path class="st3" d="M302.8,216.6h2.3v1.5h0.1c0.6-1.1,1.8-1.8,3.1-1.8c1.8,0,3.1,0.8,3.1,3.4v9.3h-2.4v-8.5c0-1.7-0.6-2.1-1.8-2.1
		c-0.9,0-2,0.8-2,2.4v8.2h-2.4L302.8,216.6"/>
	<path class="st3" d="M312.7,216.6h1.8v-3.5h2.4v3.5h2v1.8h-2v7.3c0,0.9,0.3,1.4,1.1,1.4c0.4,0,0.6,0,0.9-0.1v1.8
		c-0.6,0.1-1.2,0.3-2,0.3c-1.7,0-2.4-0.4-2.4-2.9v-7.7h-1.8V216.6"/>
	<path class="st3" d="M325.5,220.2v-0.3c0-0.9-0.4-1.8-1.7-1.8c-0.9,0-1.8,0.4-1.8,1.7c0,0.9,0.4,1.4,1.8,1.8l1.7,0.6
		c1.8,0.6,2.7,1.7,2.7,3.5c0,2.7-1.8,3.8-4.4,3.8c-3.1,0-4.1-1.5-4.1-3.8v-0.4h2.1v0.4c0,1.5,0.6,2.1,1.8,2.1c1.3,0,2-0.6,2-1.8
		c0-0.9-0.6-1.5-1.4-1.8l-2-0.6c-1.8-0.6-2.7-1.7-2.7-3.5c0-2.3,1.7-3.4,4.1-3.4c3.1,0,3.9,1.8,3.9,3.4v0.6h-2.3"/>
	<path class="st4" d="M90.9,214.3L58,165.6v39.9H46.3c-0.6-1.8-2.1-3.1-4.1-3.1c-2.4,0-4.4,2-4.4,4.4c0,2.4,2,4.4,4.4,4.4
		c2,0,3.7-1.4,4.1-3.1H58v26.3L90.9,214.3"/>
</g>
</svg>
