<?xml version="1.0" encoding="UTF-8" standalone="no"?>
<!DOCTYPE svg PUBLIC "-//W3C//DTD SVG 1.1//EN" "http://www.w3.org/Graphics/SVG/1.1/DTD/svg11.dtd">
<svg width="100%" height="100%" viewBox="0 0 200 200" version="1.1" xmlns="http://www.w3.org/2000/svg" xmlns:xlink="http://www.w3.org/1999/xlink" xml:space="preserve" xmlns:serif="http://www.serif.com/" style="fill-rule:evenodd;clip-rule:evenodd;stroke-linejoin:round;stroke-miterlimit:2;">
    <g transform="matrix(0.20757,0,0,0.20757,4.51781,79.2429)">
        <g>
            <g transform="matrix(1.53455,0,0,1.53455,266.723,-145.298)">
                <path d="M172.7,67L172.7,133.3L161,133.3L161,103.4L130.8,103.4L130.8,133.3L119.2,133.3L119.2,67L130.8,67L130.8,93.4L161,93.4L161,67L172.7,67ZM107.6,133.4L96,133.4L96,67L107.6,67L107.6,133.4ZM84.6,133.4L72.3,133.4L42.1,84.6L41.8,84.6L41.8,133.4L30.8,133.4L30.8,67L43,67L73.3,115.9L73.5,115.9L73.5,67L84.6,67L84.6,133.4ZM213.6,100L172.6,25.9L21.4,25.9C13.9,25.9 7.7,32 7.7,39.6L7.7,160.7C7.7,168.2 13.8,174.4 21.4,174.4L172.4,174.4L213.6,100Z" style="fill:rgb(100,101,105);fill-rule:nonzero;"/>
                <path d="M182.7,174.2L223.8,99.9L182.8,25.8L193.1,25.8C198.7,25.8 205.5,29.8 208.2,34.7L244.2,99.9L208,165.2C205.3,170.1 198.5,174.1 192.8,174.1L182.7,174.1L182.7,174.2Z" style="fill:rgb(0,81,149);fill-rule:nonzero;"/>
            </g>
            <g transform="matrix(1.53455,0,0,1.53455,-397.89,82.7363)">
                <path d="M274.5,54.5L280.7,54.5L296,79.3L296.1,79.3L296.1,54.5L301.7,54.5L301.7,88.1L295.5,88.1L280.2,63.4L280.1,63.4L280.1,88.1L274.5,88.1L274.5,54.5Z" style="fill:rgb(90,90,94);fill-rule:nonzero;"/>
                <path d="M328.3,82.7C328.3,84 328.6,84.5 329.6,84.5C329.9,84.5 330.4,84.5 330.9,84.4L330.9,88.1C330.1,88.4 328.4,88.7 327.5,88.7C325.3,88.7 323.8,87.9 323.4,85.7C321.3,87.8 317.9,88.7 315,88.7C310.6,88.7 306.7,86.3 306.7,81.6C306.7,75.5 311.5,74.6 316.1,74C320,73.3 323.4,73.7 323.4,70.6C323.4,67.8 320.5,67.3 318.4,67.3C315.4,67.3 313.3,68.5 313,71.2L307.6,71.2C308,64.9 313.3,63.1 318.6,63.1C323.3,63.1 328.3,65 328.3,70.1L328.3,82.7ZM322.9,75.9C321.3,77 318.7,76.9 316.3,77.4C314,77.8 311.9,78.6 311.9,81.4C311.9,83.8 315,84.5 316.8,84.5C319.1,84.5 322.8,83.3 322.8,79.9L322.8,75.9L322.9,75.9Z" style="fill:rgb(90,90,94);fill-rule:nonzero;"/>
                <path d="M331.6,63.8L335.6,63.8L335.6,56.5L341,56.5L341,63.8L345.8,63.8L345.8,67.8L341,67.8L341,80.8C341,83 341.2,84.1 343.6,84.1C344.4,84.1 345.1,84.1 345.9,83.9L345.9,88C344.7,88.1 343.6,88.3 342.4,88.3C336.8,88.3 335.8,86.1 335.7,82.1L335.7,67.8L331.7,67.8L331.7,63.8L331.6,63.8Z" style="fill:rgb(90,90,94);fill-rule:nonzero;"/>
                <path d="M349.8,54.5L355.2,54.5L355.2,59.6L349.8,59.6L349.8,54.5ZM349.8,63.8L355.2,63.8L355.2,88.1L349.8,88.1L349.8,63.8Z" style="fill:rgb(90,90,94);fill-rule:nonzero;"/>
                <path d="M359.9,75.9C359.9,68.5 364.4,63.1 372.2,63.1C380,63.1 384.5,68.5 384.5,75.9C384.5,83.4 380,88.7 372.2,88.7C364.4,88.7 359.9,83.4 359.9,75.9ZM379.1,75.9C379.1,71.7 377,67.3 372.2,67.3C367.4,67.3 365.3,71.7 365.3,75.9C365.3,80.1 367.4,84.5 372.2,84.5C377,84.5 379.1,80.2 379.1,75.9Z" style="fill:rgb(90,90,94);fill-rule:nonzero;"/>
                <path d="M388.9,63.8L394,63.8L394,67.4L394.1,67.5C395.7,64.8 398.5,63.2 401.7,63.2C407,63.2 410.3,66 410.3,71.5L410.3,88.2L404.9,88.2L404.9,72.8C404.8,69 403.3,67.3 400.2,67.3C396.6,67.3 394.3,70.1 394.3,73.7L394.3,88L388.9,88L388.9,63.8Z" style="fill:rgb(90,90,94);fill-rule:nonzero;"/>
                <path d="M436.2,82.7C436.2,84 436.5,84.5 437.5,84.5C437.8,84.5 438.3,84.5 438.8,84.4L438.8,88.1C438,88.4 436.3,88.7 435.4,88.7C433.2,88.7 431.7,87.9 431.3,85.7C429.2,87.8 425.8,88.7 422.9,88.7C418.5,88.7 414.6,86.3 414.6,81.6C414.6,75.5 419.4,74.6 424,74C427.9,73.3 431.3,73.7 431.3,70.6C431.3,67.8 428.4,67.3 426.3,67.3C423.3,67.3 421.2,68.5 420.9,71.2L415.5,71.2C415.9,64.9 421.2,63.1 426.5,63.1C431.2,63.1 436.2,65 436.2,70.1L436.2,82.7ZM430.9,75.9C429.3,77 426.7,76.9 424.3,77.4C422,77.8 419.9,78.6 419.9,81.4C419.9,83.8 423,84.5 424.8,84.5C427.1,84.5 430.8,83.3 430.8,79.9L430.8,75.9L430.9,75.9Z" style="fill:rgb(90,90,94);fill-rule:nonzero;"/>
                <rect x="442.1" y="54.5" width="5.4" height="33.6" style="fill:rgb(90,90,94);"/>
                <rect x="467.1" y="54.5" width="5.9" height="33.6" style="fill:rgb(90,90,94);"/>
                <path d="M479.5,63.8L484.6,63.8L484.6,67.4L484.7,67.5C486.3,64.8 489.1,63.2 492.3,63.2C497.6,63.2 500.9,66 500.9,71.5L500.9,88.2L495.5,88.2L495.5,72.8C495.4,69 493.9,67.3 490.8,67.3C487.2,67.3 484.9,70.1 484.9,73.7L484.9,88L479.5,88L479.5,63.8Z" style="fill:rgb(90,90,94);fill-rule:nonzero;"/>
                <path d="M510.5,80.3C510.8,83.4 513.1,84.5 516,84.5C518,84.5 521.5,84.1 521.4,81.3C521.3,78.5 517.4,78.2 513.5,77.3C509.6,76.5 505.7,75 505.7,70.1C505.7,64.8 511.4,63.1 515.9,63.1C520.9,63.1 525.4,65.2 526.1,70.6L520.5,70.6C520,68.1 517.9,67.4 515.6,67.4C514,67.4 511.2,67.8 511.2,69.9C511.2,72.5 515.1,72.9 519.1,73.8C523,74.7 526.9,76.1 526.9,80.9C526.9,86.7 521.1,88.8 516,88.8C509.9,88.8 505.3,86.1 505.2,80.3L510.5,80.3Z" style="fill:rgb(90,90,94);fill-rule:nonzero;"/>
                <path d="M528.4,63.8L532.4,63.8L532.4,56.5L537.8,56.5L537.8,63.8L542.6,63.8L542.6,67.8L537.8,67.8L537.8,80.8C537.8,83 538,84.1 540.4,84.1C541.2,84.1 541.9,84.1 542.7,83.9L542.7,88C541.5,88.1 540.4,88.3 539.2,88.3C533.6,88.3 532.6,86.1 532.5,82.1L532.5,67.8L528.5,67.8L528.5,63.8L528.4,63.8Z" style="fill:rgb(90,90,94);fill-rule:nonzero;"/>
                <path d="M546.6,54.5L552,54.5L552,59.6L546.6,59.6L546.6,54.5ZM546.6,63.8L552,63.8L552,88.1L546.6,88.1L546.6,63.8Z" style="fill:rgb(90,90,94);fill-rule:nonzero;"/>
                <path d="M555.4,63.8L559.4,63.8L559.4,56.5L564.8,56.5L564.8,63.8L569.6,63.8L569.6,67.8L564.8,67.8L564.8,80.8C564.8,83 565,84.1 567.4,84.1C568.2,84.1 568.9,84.1 569.7,83.9L569.7,88C568.5,88.1 567.4,88.3 566.2,88.3C560.6,88.3 559.6,86.1 559.5,82.1L559.5,67.8L555.5,67.8L555.5,63.8L555.4,63.8Z" style="fill:rgb(90,90,94);fill-rule:nonzero;"/>
                <path d="M594.9,88.1L589.5,88.1L589.5,84.7L589.4,84.7C588.1,87.1 585.2,88.7 582.5,88.7C576.2,88.7 573.4,85.5 573.4,79.2L573.4,63.8L578.8,63.8L578.8,78.7C578.8,83 580.5,84.5 583.5,84.5C588,84.5 589.5,81.6 589.5,77.9L589.5,63.8L594.9,63.8L594.9,88.1Z" style="fill:rgb(90,90,94);fill-rule:nonzero;"/>
                <path d="M598,63.8L602,63.8L602,56.5L607.4,56.5L607.4,63.8L612.2,63.8L612.2,67.8L607.4,67.8L607.4,80.8C607.4,83 607.6,84.1 610,84.1C610.8,84.1 611.5,84.1 612.3,83.9L612.3,88C611.1,88.1 610,88.3 608.8,88.3C603.2,88.3 602.2,86.1 602.1,82.1L602.1,67.8L598.1,67.8L598.1,63.8L598,63.8Z" style="fill:rgb(90,90,94);fill-rule:nonzero;"/>
                <path d="M620.3,77.3C620.3,81.1 622.4,84.5 626.8,84.5C629.9,84.5 631.8,83.1 632.7,80.5L637.8,80.5C636.6,85.8 632.1,88.8 626.8,88.8C619.2,88.8 614.9,83.5 614.9,76C614.9,69.1 619.4,63.2 626.6,63.2C634.3,63.2 639,70.1 638.1,77.4L620.3,77.4L620.3,77.3ZM632.8,73.8C632.6,70.4 630.3,67.4 626.7,67.4C623,67.4 620.4,70.2 620.3,73.8L632.8,73.8Z" style="fill:rgb(90,90,94);fill-rule:nonzero;"/>
                <path d="M654.2,75.9C654.2,68.5 658.7,63.1 666.5,63.1C674.3,63.1 678.8,68.5 678.8,75.9C678.8,83.4 674.3,88.7 666.5,88.7C658.7,88.7 654.2,83.4 654.2,75.9ZM673.3,75.9C673.3,71.7 671.2,67.3 666.4,67.3C661.6,67.3 659.5,71.7 659.5,75.9C659.5,80.1 661.6,84.5 666.4,84.5C671.2,84.5 673.3,80.2 673.3,75.9Z" style="fill:rgb(90,90,94);fill-rule:nonzero;"/>
                <path d="M680.8,63.8L684.8,63.8L684.8,61.8C684.8,55.6 688,54.6 691.5,54.6C693.2,54.6 694.4,54.7 695.3,54.9L695.3,59.1C694.6,58.9 693.9,58.8 692.8,58.8C691.3,58.8 690.2,59.3 690.2,61.3L690.2,63.8L694.8,63.8L694.8,67.8L690.2,67.8L690.2,88.1L684.8,88.1L684.8,67.8L680.8,67.8L680.8,63.8Z" style="fill:rgb(90,90,94);fill-rule:nonzero;"/>
                <path d="M711.8,54.5L725.7,54.5C736,54.5 740.5,62 740.5,71.3C740.5,80.6 736,88.1 725.7,88.1L711.8,88.1L711.8,54.5ZM717.6,83.3L723.4,83.3C732.6,83.3 734.6,78 734.6,71.3C734.6,64.6 732.6,59.3 723.4,59.3L717.6,59.3L717.6,83.3Z" style="fill:rgb(90,90,94);fill-rule:nonzero;"/>
                <path d="M749.1,77.3C749.1,81.1 751.2,84.5 755.6,84.5C758.7,84.5 760.6,83.1 761.5,80.5L766.6,80.5C765.4,85.8 760.9,88.8 755.6,88.8C748,88.8 743.7,83.5 743.7,76C743.7,69.1 748.2,63.2 755.4,63.2C763.1,63.2 767.8,70.1 766.9,77.4L749.1,77.4L749.1,77.3ZM761.6,73.8C761.4,70.4 759.1,67.4 755.5,67.4C751.8,67.4 749.2,70.2 749.1,73.8L761.6,73.8Z" style="fill:rgb(90,90,94);fill-rule:nonzero;"/>
                <path d="M771.1,63.8L776.2,63.8L776.2,67.4L776.3,67.5C777.9,64.8 780.7,63.2 783.9,63.2C789.2,63.2 792.5,66 792.5,71.5L792.5,88.2L787.1,88.2L787.1,72.8C787,69 785.5,67.3 782.4,67.3C778.8,67.3 776.5,70.1 776.5,73.7L776.5,88L771.1,88L771.1,63.8Z" style="fill:rgb(90,90,94);fill-rule:nonzero;"/>
                <path d="M795.6,63.8L799.6,63.8L799.6,56.5L805,56.5L805,63.8L809.8,63.8L809.8,67.8L805,67.8L805,80.8C805,83 805.2,84.1 807.6,84.1C808.4,84.1 809.1,84.1 809.9,83.9L809.9,88C808.7,88.1 807.6,88.3 806.4,88.3C800.8,88.3 799.8,86.1 799.7,82.1L799.7,67.8L795.7,67.8L795.7,63.8L795.6,63.8Z" style="fill:rgb(90,90,94);fill-rule:nonzero;"/>
                <path d="M834.1,82.7C834.1,84 834.4,84.5 835.4,84.5C835.7,84.5 836.2,84.5 836.7,84.4L836.7,88.1C835.9,88.4 834.2,88.7 833.3,88.7C831.1,88.7 829.6,87.9 829.2,85.7C827.1,87.8 823.7,88.7 820.8,88.7C816.4,88.7 812.5,86.3 812.5,81.6C812.5,75.5 817.3,74.6 821.9,74C825.8,73.3 829.2,73.7 829.2,70.6C829.2,67.8 826.3,67.3 824.2,67.3C821.2,67.3 819.1,68.5 818.8,71.2L813.4,71.2C813.8,64.9 819.1,63.1 824.4,63.1C829.1,63.1 834.1,65 834.1,70.1L834.1,82.7ZM828.7,75.9C827.1,77 824.5,76.9 822.1,77.4C819.8,77.8 817.7,78.6 817.7,81.4C817.7,83.8 820.8,84.5 822.6,84.5C825,84.5 828.6,83.3 828.6,79.9L828.6,75.9L828.7,75.9Z" style="fill:rgb(90,90,94);fill-rule:nonzero;"/>
                <rect x="840" y="54.5" width="5.4" height="33.6" style="fill:rgb(90,90,94);"/>
                <path d="M294.3,139.1C294.3,140.4 294.6,140.9 295.6,140.9C295.9,140.9 296.4,140.9 296.9,140.8L296.9,144.5C296.1,144.8 294.4,145.1 293.5,145.1C291.3,145.1 289.8,144.3 289.4,142.1C287.3,144.2 283.9,145.1 281,145.1C276.6,145.1 272.7,142.8 272.7,138C272.7,131.9 277.5,131 282.1,130.4C286,129.7 289.4,130.1 289.4,127C289.4,124.2 286.5,123.7 284.4,123.7C281.4,123.7 279.3,124.9 279,127.6L273.6,127.6C274,121.3 279.3,119.5 284.6,119.5C289.3,119.5 294.3,121.4 294.3,126.5L294.3,139.1ZM289,132.3C287.4,133.4 284.8,133.3 282.4,133.8C280.1,134.2 278,135 278,137.8C278,140.2 281.1,140.9 282.9,140.9C285.2,140.9 288.9,139.7 288.9,136.3L288.9,132.3L289,132.3Z" style="fill:rgb(90,90,94);fill-rule:nonzero;"/>
                <path d="M300.1,120.2L305.2,120.2L305.2,123.8L305.3,123.9C306.9,121.2 309.7,119.6 312.9,119.6C318.2,119.6 321.5,122.4 321.5,127.9L321.5,144.6L316.1,144.6L316.1,129.3C316,125.5 314.5,123.8 311.4,123.8C307.8,123.8 305.5,126.6 305.5,130.2L305.5,144.5L300.1,144.5L300.1,120.2Z" style="fill:rgb(90,90,94);fill-rule:nonzero;"/>
                <path d="M350,144.5L344.9,144.5L344.9,141.2L344.8,141.2C343.4,144 340.3,145.1 337.3,145.1C329.6,145.1 325.9,139.4 325.9,132.1C325.9,123.3 331.1,119.5 336.4,119.5C339.5,119.5 342.8,120.6 344.5,123.3L344.6,123.3L344.6,110.9L350,110.9L350,144.5ZM338,140.9C342.8,140.9 344.8,136.5 344.8,132.3C344.8,126.9 342.2,123.7 338.1,123.7C333.1,123.7 331.3,128.2 331.3,132.5C331.3,136.8 333.3,140.9 338,140.9Z" style="fill:rgb(90,90,94);fill-rule:nonzero;"/>
                <path d="M392.3,121.6C391.3,117.7 388.8,114.9 383.9,114.9C376.7,114.9 373.7,121.2 373.7,127.7C373.7,134.2 376.7,140.5 383.9,140.5C389.1,140.5 392,136.6 392.5,131.7L398.2,131.7C397.7,139.7 392,145.3 383.9,145.3C373.8,145.3 367.8,137.3 367.8,127.7C367.8,118.1 373.8,110.1 383.9,110.1C391.5,110.1 397.4,114.3 398.1,121.6L392.3,121.6Z" style="fill:rgb(90,90,94);fill-rule:nonzero;"/>
                <path d="M402.7,120.2L407.8,120.2L407.8,124.9L407.9,124.9C408.5,122.3 411.7,119.5 415,119.5C416.2,119.5 416.6,119.6 417,119.6L417,124.8C416.2,124.7 415.4,124.6 414.7,124.6C411,124.6 408.1,127.6 408.1,132.9L408.1,144.5L402.7,144.5L402.7,120.2Z" style="fill:rgb(90,90,94);fill-rule:nonzero;"/>
                <path d="M439.7,139.1C439.7,140.4 440,140.9 441,140.9C441.3,140.9 441.8,140.9 442.3,140.8L442.3,144.5C441.5,144.8 439.8,145.1 438.9,145.1C436.7,145.1 435.2,144.3 434.8,142.1C432.7,144.2 429.3,145.1 426.4,145.1C422,145.1 418.1,142.8 418.1,138C418.1,131.9 422.9,131 427.5,130.4C431.4,129.7 434.8,130.1 434.8,127C434.8,124.2 431.9,123.7 429.8,123.7C426.8,123.7 424.7,124.9 424.4,127.6L419,127.6C419.4,121.3 424.7,119.5 430,119.5C434.7,119.5 439.7,121.4 439.7,126.5L439.7,139.1ZM434.3,132.3C432.7,133.4 430.1,133.3 427.7,133.8C425.4,134.2 423.3,135 423.3,137.8C423.3,140.2 426.4,140.9 428.2,140.9C430.5,140.9 434.2,139.7 434.2,136.3L434.2,132.3L434.3,132.3Z" style="fill:rgb(90,90,94);fill-rule:nonzero;"/>
                <path d="M445.5,120.2L450.6,120.2L450.6,123.8L450.7,123.9C452.3,121.2 455.1,119.6 458.3,119.6C463.6,119.6 466.9,122.4 466.9,127.9L466.9,144.6L461.5,144.6L461.5,129.3C461.4,125.5 459.9,123.8 456.8,123.8C453.2,123.8 450.9,126.6 450.9,130.2L450.9,144.5L445.5,144.5L445.5,120.2Z" style="fill:rgb(90,90,94);fill-rule:nonzero;"/>
                <path d="M472.6,110.9L478,110.9L478,116L472.6,116L472.6,110.9ZM472.6,120.2L478,120.2L478,144.5L472.6,144.5L472.6,120.2Z" style="fill:rgb(90,90,94);fill-rule:nonzero;"/>
                <path d="M482.7,132.3C482.7,124.9 487.2,119.5 495,119.5C502.8,119.5 507.3,124.9 507.3,132.3C507.3,139.8 502.8,145.1 495,145.1C487.1,145.2 482.7,139.8 482.7,132.3ZM501.8,132.3C501.8,128.1 499.7,123.7 494.9,123.7C490.1,123.7 488,128.1 488,132.3C488,136.5 490.1,140.9 494.9,140.9C499.7,140.9 501.8,136.6 501.8,132.3Z" style="fill:rgb(90,90,94);fill-rule:nonzero;"/>
                <path d="M509.3,120.2L513.3,120.2L513.3,118.2C513.3,112 516.5,111 520,111C521.7,111 522.9,111.1 523.8,111.3L523.8,115.5C523.1,115.3 522.4,115.2 521.3,115.2C519.8,115.2 518.7,115.7 518.7,117.7L518.7,120.2L523.3,120.2L523.3,124.2L518.7,124.2L518.7,144.5L513.3,144.5L513.3,124.2L509.3,124.2L509.3,120.2Z" style="fill:rgb(90,90,94);fill-rule:nonzero;"/>
                <path d="M546.8,139.1C546.8,140.4 547.1,140.9 548.1,140.9C548.4,140.9 548.9,140.9 549.4,140.8L549.4,144.5C548.6,144.8 546.9,145.1 546,145.1C543.8,145.1 542.3,144.3 541.9,142.1C539.8,144.2 536.4,145.1 533.5,145.1C529.1,145.1 525.2,142.8 525.2,138C525.2,131.9 530,131 534.6,130.4C538.5,129.7 541.9,130.1 541.9,127C541.9,124.2 539,123.7 536.9,123.7C533.9,123.7 531.8,124.9 531.5,127.6L526,127.6C526.4,121.3 531.7,119.5 537,119.5C541.7,119.5 546.7,121.4 546.7,126.5L546.7,139.1L546.8,139.1ZM541.4,132.3C539.8,133.4 537.2,133.3 534.8,133.8C532.5,134.2 530.4,135 530.4,137.8C530.4,140.2 533.5,140.9 535.3,140.9C537.6,140.9 541.3,139.7 541.3,136.3L541.3,132.3L541.4,132.3Z" style="fill:rgb(90,90,94);fill-rule:nonzero;"/>
                <path d="M569,128.3C568.6,125.3 566.4,123.7 563.5,123.7C560.7,123.7 556.8,125.2 556.8,132.5C556.8,136.5 558.6,140.8 563.2,140.8C566.3,140.8 568.5,138.7 569,135.3L574.4,135.3C573.4,141.6 569.5,145.1 563.3,145.1C555.7,145.1 551.5,139.7 551.5,132.6C551.5,125.3 555.5,119.5 563.5,119.5C569.1,119.5 573.9,122.3 574.5,128.3L569,128.3Z" style="fill:rgb(90,90,94);fill-rule:nonzero;"/>
                <path d="M578.9,110.9L584.3,110.9L584.3,116L578.9,116L578.9,110.9ZM578.9,120.2L584.3,120.2L584.3,144.5L578.9,144.5L578.9,120.2Z" style="fill:rgb(90,90,94);fill-rule:nonzero;"/>
                <path d="M610.4,139.1C610.4,140.4 610.7,140.9 611.7,140.9C612,140.9 612.5,140.9 613,140.8L613,144.5C612.2,144.8 610.5,145.1 609.6,145.1C607.4,145.1 605.9,144.3 605.5,142.1C603.4,144.2 600,145.1 597.1,145.1C592.7,145.1 588.8,142.8 588.8,138C588.8,131.9 593.6,131 598.2,130.4C602.1,129.7 605.5,130.1 605.5,127C605.5,124.2 602.6,123.7 600.5,123.7C597.5,123.7 595.4,124.9 595.1,127.6L589.7,127.6C590.1,121.3 595.4,119.5 600.7,119.5C605.4,119.5 610.4,121.4 610.4,126.5L610.4,139.1ZM605,132.3C603.4,133.4 600.8,133.3 598.4,133.8C596.1,134.2 594,135 594,137.8C594,140.2 597.1,140.9 598.9,140.9C601.2,140.9 604.9,139.7 604.9,136.3L604.9,132.3L605,132.3Z" style="fill:rgb(90,90,94);fill-rule:nonzero;"/>
                <rect x="616.3" y="110.9" width="5.4" height="33.6" style="fill:rgb(90,90,94);"/>
                <path d="M641.3,110.9L657.3,110.9C664.6,110.9 668.4,114.3 668.4,120C668.4,126.4 663.9,128.1 662.9,128.5L662.9,128.6C664.9,128.9 667.9,130.4 667.9,135.7C667.9,139.6 668.5,143.2 669.7,144.5L663.4,144.5C662.5,143 662.5,141.2 662.5,139.6C662.5,133.4 661.2,130.7 655.8,130.7L647.2,130.7L647.2,144.5L641.3,144.5L641.3,110.9ZM647.2,126.2L656.8,126.2C660.5,126.2 662.5,124.4 662.5,120.8C662.5,116.5 659.7,115.7 656.7,115.7L647.2,115.7L647.2,126.2Z" style="fill:rgb(90,90,94);fill-rule:nonzero;"/>
                <path d="M677.8,133.7C677.8,137.5 679.9,140.9 684.3,140.9C687.4,140.9 689.3,139.5 690.2,136.9L695.3,136.9C694.1,142.2 689.6,145.2 684.3,145.2C676.7,145.2 672.4,139.9 672.4,132.4C672.4,125.5 676.9,119.6 684.1,119.6C691.8,119.6 696.5,126.5 695.6,133.8L677.8,133.8L677.8,133.7ZM690.3,130.2C690.1,126.8 687.8,123.8 684.2,123.8C680.5,123.8 677.9,126.6 677.8,130.2L690.3,130.2Z" style="fill:rgb(90,90,94);fill-rule:nonzero;"/>
                <path d="M703.8,136.7C704.1,139.8 706.4,140.9 709.3,140.9C711.3,140.9 714.8,140.5 714.7,137.7C714.6,134.9 710.7,134.6 706.8,133.7C702.9,132.9 699,131.4 699,126.5C699,121.2 704.7,119.5 709.2,119.5C714.2,119.5 718.7,121.6 719.4,127L713.8,127C713.3,124.5 711.2,123.8 708.9,123.8C707.3,123.8 704.5,124.2 704.5,126.3C704.5,128.9 708.4,129.3 712.4,130.2C716.3,131.1 720.2,132.5 720.2,137.3C720.2,143.1 714.4,145.2 709.3,145.2C703.2,145.2 698.6,142.5 698.5,136.7L703.8,136.7Z" style="fill:rgb(90,90,94);fill-rule:nonzero;"/>
                <path d="M728.4,133.7C728.4,137.5 730.5,140.9 734.9,140.9C738,140.9 739.9,139.5 740.8,136.9L745.9,136.9C744.7,142.2 740.2,145.2 734.9,145.2C727.3,145.2 723,139.9 723,132.4C723,125.5 727.5,119.6 734.7,119.6C742.4,119.6 747.1,126.5 746.2,133.8L728.4,133.8L728.4,133.7ZM740.9,130.2C740.7,126.8 738.4,123.8 734.8,123.8C731.1,123.8 728.5,126.6 728.4,130.2L740.9,130.2Z" style="fill:rgb(90,90,94);fill-rule:nonzero;"/>
                <path d="M770.7,139.1C770.7,140.4 771,140.9 772,140.9C772.3,140.9 772.8,140.9 773.3,140.8L773.3,144.5C772.5,144.8 770.8,145.1 769.9,145.1C767.7,145.1 766.2,144.3 765.8,142.1C763.7,144.2 760.3,145.1 757.4,145.1C753,145.1 749.1,142.8 749.1,138C749.1,131.9 753.9,131 758.5,130.4C762.4,129.7 765.8,130.1 765.8,127C765.8,124.2 762.9,123.7 760.8,123.7C757.8,123.7 755.7,124.9 755.4,127.6L750,127.6C750.4,121.3 755.7,119.5 761,119.5C765.7,119.5 770.7,121.4 770.7,126.5L770.7,139.1ZM765.3,132.3C763.7,133.4 761.1,133.3 758.7,133.8C756.4,134.2 754.3,135 754.3,137.8C754.3,140.2 757.4,140.9 759.2,140.9C761.6,140.9 765.2,139.7 765.2,136.3L765.2,132.3L765.3,132.3Z" style="fill:rgb(90,90,94);fill-rule:nonzero;"/>
                <path d="M776.3,120.2L781.4,120.2L781.4,124.9L781.5,124.9C782.1,122.3 785.3,119.5 788.6,119.5C789.8,119.5 790.2,119.6 790.6,119.6L790.6,124.8C789.8,124.7 789,124.6 788.3,124.6C784.6,124.6 781.7,127.6 781.7,132.9L781.7,144.5L776.3,144.5L776.3,120.2Z" style="fill:rgb(90,90,94);fill-rule:nonzero;"/>
                <path d="M808.5,128.3C808.1,125.3 805.9,123.7 803,123.7C800.2,123.7 796.3,125.2 796.3,132.5C796.3,136.5 798.1,140.8 802.7,140.8C805.8,140.8 808,138.7 808.5,135.3L813.9,135.3C812.9,141.6 809,145.1 802.8,145.1C795.2,145.1 791,139.7 791,132.6C791,125.3 795,119.5 803,119.5C808.6,119.5 813.4,122.3 814,128.3L808.5,128.3Z" style="fill:rgb(90,90,94);fill-rule:nonzero;"/>
                <path d="M818.3,110.9L823.7,110.9L823.7,123.4L823.8,123.4C825.1,121.2 827.9,119.5 831.1,119.5C836.4,119.5 839.7,122.3 839.7,127.8L839.7,144.5L834.3,144.5L834.3,129.2C834.2,125.4 832.7,123.7 829.6,123.7C826,123.7 823.7,126.5 823.7,130.1L823.7,144.4L818.3,144.4L818.3,110.9Z" style="fill:rgb(90,90,94);fill-rule:nonzero;"/>
            </g>
        </g>
    </g>
</svg>
