<?xml version="1.0" encoding="utf-8"?>
<!-- Generator: Adobe Illustrator 28.3.0, SVG Export Plug-In . SVG Version: 6.00 Build 0)  -->
<svg version="1.1" id="Layer_1" xmlns="http://www.w3.org/2000/svg" xmlns:xlink="http://www.w3.org/1999/xlink" x="0px" y="0px"
	 viewBox="0 0 400 400" style="enable-background:new 0 0 400 400;" xml:space="preserve">
<style type="text/css">
	
		.st0{opacity:0.1;fill:#FFFFFF;stroke:#FFFFFF;stroke-width:18;stroke-linecap:round;stroke-linejoin:round;stroke-miterlimit:10;enable-background:new    ;}
	.st1{fill:#C72729;}
</style>
<rect x="11.6" y="9.8" class="st0" width="376.9" height="381.4"/>
<g>
	<path class="st1" d="M375,231.9c-1.8,2.7-3.3,5.5-5.5,7.9c-10.9,12-31.6,9.2-38.8-4.4c-7.3-13.7-7.3-27.7,1.3-40.9
		c7-10.8,19.3-12.5,29.5-8.5c7.2,2.9,10.6,9,12,16.3c0.5,2.2,0.5,4.4,0.7,6.6c0.2,1.5-0.4,1.8-1.8,1.8c-10.5-0.1-21,0-31.5-0.1
		c-1.8,0-2.3,0.6-2.2,2.3c0.2,6.4,0.7,12.7,3.3,18.6c4.1,9.5,12.3,11.2,20.5,8.8c2.7-0.8,4.6-2.7,6.3-4.9c0.8-1.1,1.7-2.3,2.4-3.6
		c1.5-2.3,1.4-2.4,3.8-0.8C375,231.3,375,231.6,375,231.9z M350.1,207.7c0-0.1,0-0.1,0-0.2c3.3,0,6.6,0,9.9,0c1.1,0,1.6-0.4,1.5-1.5
		c-0.2-1.7-0.2-3.3-0.4-5.1c-0.4-3.3-1-6.5-2.7-9.4c-1.5-2.5-3.5-4.1-6.5-4.3c-4.2-0.3-7.1,2-9.2,5.3c-2.8,4.2-3.5,9.1-4,14
		c-0.1,1.2,0.6,1.1,1.5,1.1C343.5,207.7,346.7,207.7,350.1,207.7z"/>
	<path class="st1" d="M71.4,159.7c0.8-1.2,1.8-2.3,2.2-3.5c1-2.7,3.1-2.4,5.3-2.3c1.1,0,0.9,0.8,0.9,1.5c0.2,6.6,0.3,13.4,0.5,20
		c0.1,2.2,0.2,4.5,0.2,6.7c0,0.6,0.6,1.8-0.6,1.9c-1.1,0.1-2.2,0.5-2.8-1.2c-1.5-4.8-3.3-9.4-6-13.6c-3.6-5.8-8.5-9.9-15.4-11.1
		c-3.6-0.6-7.2-0.7-10.6,1.1c-5.5,3-7.9,8.8-6.6,15.8c0.8,4.1,2.9,7.4,6.2,9.9c4.2,3.4,9.2,5.7,14.3,7.6c4.9,1.8,9.5,4,13.9,6.7
		c9,5.5,12.1,13.8,11,24c-1.8,15.8-14.9,25.3-31.1,24.1c-6.4-0.5-12.3-2-17.5-5.8c-0.8-0.6-1-0.2-1.4,0.4c-0.9,1.4-1.8,2.7-2.7,4.1
		c-0.5,0.6-0.9,1.1-1.8,1c-3.9-0.2-3.3,0.8-3.4-3.3c-0.3-8.7-0.5-17.3-0.6-26c0-0.6-0.6-1.8,0.8-1.8c1.1,0,2-0.2,2.6,1.3
		c2.5,6.6,5.4,13,10.3,18.2c5.8,6.2,12.8,8.8,21.3,7.5c7.5-1.2,12.1-6.9,12.3-15.1c0.3-8.8-3.5-15-11.7-18.6
		c-6.3-2.8-12.6-5.3-18.9-8.1c-17.2-7.6-17.3-28-9.9-37.8c6.3-8.3,17.5-11.9,28.6-8.8C64.5,155.6,68.1,157.3,71.4,159.7z"/>
	<path class="st1" d="M235.4,194.6c2-1.9,3.8-3.7,5.7-5.4c5-4.4,10.9-6,17.4-4.7c7,1.4,10.1,6.4,11.6,12.9c0.6,2.4,0.7,4.8,0.7,7.2
		c0,10,0,20.1,0,30.1c0,5.2,1.7,7.2,6.8,8c0.8,0.2,1.8,0,1.8,1.4c0,1.2-0.3,1.6-1.6,1.6c-8.8-0.1-17.5,0-26.3,0
		c-0.8,0-1.7,0.1-1.6-1.2c0-1,0.1-1.8,1.4-1.7c0.1,0,0.1,0,0.2,0c6.2-0.8,7.3-2,7.3-8.3c0-9.8,0-19.5,0-29.4c0-2.4-0.3-4.9-1-7.2
		c-1.9-5.9-6.2-8.3-12.2-6.8c-3.4,0.8-6.2,2.6-8.4,5.3c-1.2,1.5-1.8,3-1.8,5.1c0.1,11,0,21.9,0,32.9c0,5.2,1.8,7.4,6.9,8.2
		c1.4,0.2,1.7,0.7,1.7,2c-0.1,1.7-1.3,0.9-1.9,0.9c-8.5,0.1-16.9,0-25.5,0c-0.8,0-1.8,0.4-1.8-1.2c0-1.2,0.4-1.8,1.6-1.8
		c0.5,0,1-0.1,1.5-0.2c4.1-0.6,5.6-2.4,5.6-6.5c0-12.4,0-24.8,0-37.2c0-5.4-2.6-8.6-8-9.6c-1.3-0.3-1.2-0.9-1.2-1.8
		c-0.1-1.2,0.7-1.1,1.5-1.2c5.8-0.4,11.6-0.7,17.3-1.2c1.8-0.1,2.4,0.5,2.3,2.2C235.3,189.7,235.4,192.1,235.4,194.6z"/>
	<path class="st1" d="M196.3,210.8c-5.3,0-10.8,0-16.1,0c-0.6,0-1.5-0.4-1.5,0.8c0.1,7.7,0.6,15.3,4.4,22.3
		c5.3,10,20.5,9.6,25.8,1.6c1-1.6,2-3.1,3-4.7c0.3-0.5,0.4-1.6,1.4-0.7c0.6,0.6,2.1,0.6,1.3,2.3c-2.4,4.7-5.6,8.6-10,11.5
		c-9.5,6.3-28.7,5.1-35.6-11.9c-5.1-12.8-4.9-25.5,2.9-37.3c8-12.2,21.9-12.6,30.9-8.1c6.5,3.2,9.5,9.1,10.8,15.9
		c0.5,2.2,0.6,4.4,0.6,6.7c0.1,1.2-0.4,1.6-1.6,1.6C207.2,210.7,201.8,210.8,196.3,210.8z M190,207.7c0-0.1,0-0.1,0-0.2
		c2.3,0,4.6,0,6.9,0c4.6,0,4.6,0,4.3-4.7c-0.3-3.8-0.8-7.6-2.7-11c-2.8-5.1-8.5-6.3-13-2.7c-1,0.8-1.9,1.8-2.7,2.9
		c-2.9,4.2-3.8,9.1-4.2,14.1c-0.1,1.3,0.4,1.6,1.6,1.5C183.5,207.6,186.7,207.7,190,207.7z"/>
	<path class="st1" d="M100.3,213.6c-0.1,6.2,0.6,11.9,2.8,17.3c2,5.1,5.2,9.3,11,10.1c6.2,0.9,11.4-1,15.5-5.9c1-1.3,1.8-2.7,2.8-4
		c0.4-0.5,0.2-2.2,1.7-1.1c0.9,0.6,2.3,0.9,1.2,2.8c-4.1,6.8-9.5,12.2-17.5,13.9c-11,2.5-22.1-2.7-26.5-12.9
		c-6.1-13.8-6-27.5,3.3-40.2c7.1-9.6,20.7-12.5,30.8-7.2c5.7,3,8.8,9.7,7.5,15.4c-0.9,3.6-3.8,5.4-7.6,4.9c-3.6-0.5-5.8-2.9-5.9-6.5
		c0-2.1,0.3-4.1,1-6c1.4-3.6-0.6-6.5-4.4-6.8c-4.2-0.4-7.6,1.2-10.2,4.6c-2.9,4.1-4.1,8.8-4.7,13.6
		C100.4,208.4,100.2,211.2,100.3,213.6z"/>
	<path class="st1" d="M290.3,213.3c-0.1,7.1,0.6,13.3,3.4,19.1c5.1,10.7,18,12.3,25.6,3.1c1.3-1.5,2.3-3.1,3.2-4.8
		c0.3-0.5,0.4-1.5,1.2-0.7c0.6,0.6,2.3,0.6,1.8,2.2c-3.5,9.5-16.2,16.5-26.5,14.8c-9.2-1.5-15.7-6.5-18.8-15.2
		c-4.6-12.6-4.5-25.1,3.1-36.7c6.5-9.9,19.1-13.8,29.7-9.7c7,2.7,11.1,9.6,9.7,16.2c-0.8,3.7-3.5,5.5-7.5,5.2
		c-3.6-0.4-6-2.9-6.1-6.4c-0.1-2.1,0.3-4.2,1-6.2c1.4-3.6-0.6-6.5-4.3-6.8c-4.2-0.4-7.6,1.1-10.1,4.4c-3,4.1-4.1,8.8-4.8,13.7
		C290.4,208.4,290.2,211.2,290.3,213.3z"/>
	<path class="st1" d="M157.7,211.3c0,7.4,0,14.8,0,22.2c0,5.9,1.6,7.8,7.4,9.1c0.9,0.2,1.3,0.6,1.4,1.6c0,1.2-0.4,1.5-1.5,1.5
		c-8.8-0.1-17.6,0-26.4,0c-0.8,0-1.5,0.1-1.4-1.1c0.1-0.9-0.1-1.8,1.3-1.8c0.8,0,1.7-0.2,2.4-0.4c3.6-0.8,5-2.5,5-6.1
		c0-8.8,0-17.6,0-26.3c0-3.6,0-7.1,0-10.7c0-5.3-1.8-7.7-6.7-9.4c-0.9-0.3-1.8-0.6-2.7-0.7c-1.1-0.1-1-0.8-1-1.6
		c-0.1-0.9,0.3-1.2,1.1-1.3c6.5-0.4,13.1-0.8,19.6-1.3c1.6-0.1,1.8,0.8,1.8,2c0,6.1,0,12.1,0,18.1
		C157.7,207.3,157.7,209.3,157.7,211.3z"/>
	<path class="st1" d="M158.9,160.4c0,4.9-3.5,8.7-8.1,8.7c-4.3,0-7.9-3.6-8-8c-0.1-4.6,3.5-8.4,7.9-8.5
		C155.5,152.6,158.9,155.8,158.9,160.4z"/>
</g>
</svg>
