<?xml version="1.0" encoding="utf-8"?>
<!-- Generator: Adobe Illustrator 28.3.0, SVG Export Plug-In . SVG Version: 6.00 Build 0)  -->
<svg version="1.1" id="Layer_1" xmlns="http://www.w3.org/2000/svg" xmlns:xlink="http://www.w3.org/1999/xlink" x="0px" y="0px"
	 viewBox="0 0 400 400" style="enable-background:new 0 0 400 400;" xml:space="preserve">
<style type="text/css">
	
		.st0{opacity:0.1;fill:#FFFFFF;stroke:#FFFFFF;stroke-width:18;stroke-linecap:round;stroke-linejoin:round;stroke-miterlimit:10;enable-background:new    ;}
	.st1{fill:#007DBD;}
</style>
<rect x="11.6" y="9.8" class="st0" width="376.9" height="381.4"/>
<g>
	<g id="Protocols">
		<path class="st1" d="M37.1,264H25v-57.1h26.2c11.1,0,17.7,7,17.7,18.2c0,5.2-2.9,18.2-18.2,18.2H37.1V264L37.1,264z M48.1,233.5
			c8.9,0,8.9-6.4,8.9-8.9c0-5.6-3.1-8-10.5-8h-9.5v16.7h11.1V233.5z"/>
		<path class="st1" d="M330.9,264h-11.1v-57.1h11.1V264z"/>
		<path class="st1" d="M124.7,265.2c-11.2,0-21.6-7-21.6-22.4s10.3-22.2,21.6-22.2c11.4,0,21.6,7,21.6,22.4S136.2,265.2,124.7,265.2
			z M124.7,230c-8.6,0-10.1,7.6-10.1,12.8c0,5.2,1.6,12.8,10.1,12.8s10.1-7.4,10.1-12.8S133.2,230,124.7,230z"/>
		<path class="st1" d="M166.7,222h7v8h-7v23.1c0,2.5,0,3.5,4.7,3.5c0.7,0,1.6,0,2.3-0.2v8.4c-1.7,0-3.5,0.2-5.2,0.2H167
			c-9.7,0-11.4-3.7-11.4-9.1V230h-5.8v-8h5.8v-11.4h11.1V222L166.7,222z"/>
		<path class="st1" d="M266.1,248.6c-0.4,4.5-3.9,16.5-19.4,16.5c-15.9,0-19.6-12.2-19.6-21.2c0-13.8,6-23.5,20.4-23.5
			c6.6,0,17.7,3.1,18.7,16.3H255c-0.6-2.8-2.3-7.2-7.4-6.8c-7,0-8.7,7-8.7,12.2c0,4.7,0.2,13.8,8.6,13.8c5.6,0,7.6-5.4,7.6-7.4
			L266.1,248.6L266.1,248.6z"/>
		<path class="st1" d="M362.7,234.4c-0.4-2.8-1.4-5.6-7.6-5.6c-6,0-6.8,2.3-6.8,4.1c0,6.6,26.6,1.7,26.6,17.5
			c0,12.4-11.9,14.6-18.7,14.6c-9.7,0-20-3.3-20.4-14.6h11.5c0,3.7,2.1,6.3,9.3,6.3c5.6,0,7-2.8,7-4.5c0-7-26.2-1.7-26.2-17.7
			c0-6.3,3.9-14.2,17.1-14.2c8.4,0,18.1,2.1,19.1,14L362.7,234.4z"/>
		<path class="st1" d="M200.6,265.2c-11.4,0-21.6-7-21.6-22.4s10.1-22.2,21.6-22.2s21.6,7,21.6,22.2
			C222.2,258,212,265.2,200.6,265.2z M200.6,230c-8.6,0-10.1,7.6-10.1,12.8c0,5.2,1.6,12.8,10.1,12.8s10.1-7.4,10.1-12.8
			S209.2,230,200.6,230z"/>
		<path class="st1" d="M292.4,265.2c-11.4,0-21.6-7-21.6-22.4s10.3-22.4,21.6-22.4s21.6,7,21.6,22.4S303.9,265.2,292.4,265.2z
			 M292.4,230c-8.6,0-10.1,7.6-10.1,12.8c0,5.2,1.6,12.8,10.1,12.8s10.1-7.4,10.1-12.8S301.1,230,292.4,230z"/>
		<path class="st1" d="M73.4,263.8h11.1v-21.7c0-4.7,1.6-9.9,10.1-9.9c1,0,2.1,0,3.1,0.2v-11.2c-0.7-0.2-1.4-0.2-2.1-0.2
			c-6.8,0-9.3,4.1-11.4,8.4h-0.2v-7.2H73.4V263.8z"/>
	</g>
	<g id="STAR">
		<path class="st1" d="M198.5,160.1c6.3,0,9.3-2.1,9.3-7.7c0-3.1-1.4-7.6-8.4-7.6h-14.9v15.4L198.5,160.1 M172.7,134.8h29.1
			c15.4,0,18.1,11.2,18.1,16.3c0,6.4-3.1,11.7-8.9,13.6c4.7,2.1,7.2,3.9,7.2,14.6c0,8.4,0,10.5,2.5,11.4v1.6h-13.2
			c-1-3.9-1.4-7.7-1.4-11.7c0-7.7-0.4-10.9-9.3-10.9h-12.4v22.6h-11.7L172.7,134.8L172.7,134.8z"/>
		<path class="st1" d="M36.7,172.9c0,7.4,5.6,10.1,12.2,10.1c4.2,0,10.7-1.2,10.7-6.8c0-6-8.4-7-16.3-9.1
			C35.4,165,27,161.9,27,151.6c0-11.2,10.5-16.7,20.6-16.7c11.4,0,22.2,5.1,22.2,17.7H58.1c-0.6-6.6-5.2-8.4-11.1-8.4
			c-3.9,0-8.4,1.7-8.4,6.4c0,4.2,2.5,4.9,16.5,8.4c4.1,1,16.3,3.5,16.3,16.1c0,10.1-8,17.7-22.9,17.7c-12.2-0.2-23.7-6.3-23.5-19.8
			L36.7,172.9"/>
		<polyline class="st1" points="103.9,192.2 92.1,192.2 92.1,144.9 74.7,144.9 74.7,134.8 121.4,134.8 121.4,144.9 103.9,144.9 
			103.9,192.2 		"/>
		<path class="st1" d="M133.6,169.6l7.7-21.2l8,21.2H133.6z M147.6,135.1h-12.2L113,192.4h12.2l4.7-13h22.9l5.1,13h12.6L147.6,135.1
			z"/>
	</g>
</g>
</svg>
