<svg xmlns="http://www.w3.org/2000/svg" viewBox="0 0 1200 630" class="rounded-sm" style=" border-radius: 12px; box-shadow: rgba(0, 0, 0, 0.15) 0px 8px 16px; max-width: 100%; max-height: 100%; width: auto; height: auto; aspect-ratio: 1200 / 630; user-select: none; cursor: default;" tabindex="0" width="1200" height="630"><rect width="1200" height="630" fill="rgb(255, 255, 255)"/><defs/><g transform="translate(40, 70)" style="transition:transform 0.15s cubic-bezier(0.2, 0.8, 0.2, 1)"><g style="cursor:move"><g transform="translate(0, 0)"><text x="0" y="32"><tspan font-size="22" fill="#6b7280">williamsdrake</tspan><tspan font-size="22" fill="#6b7280">/</tspan><tspan font-size="32" font-weight="bold" fill="#1f2937">epithelial-IL23</tspan></text></g></g></g><g transform="translate(40, 130)" style="transition:transform 0.15s cubic-bezier(0.2, 0.8, 0.2, 1)"><g style="cursor:move"/></g><g transform="translate(1000, 120)" style="transition:transform 0.15s cubic-bezier(0.2, 0.8, 0.2, 1)"><g style="cursor:move"><g><defs><clipPath id="avatar-clip-avatar"><circle cx="75" cy="75" r="75"/></clipPath></defs><circle cx="75" cy="75" r="75" fill="#e5e7eb" stroke="#d1d5db" stroke-width="2"/><image href="https://avatars.githubusercontent.com/u/61563969?v=4" x="0" y="0" width="150" height="150" clip-path="url(#avatar-clip-avatar)" preserveAspectRatio="xMidYMid slice"/></g></g></g><g transform="translate(40, 210)" style="transition:transform 0.15s cubic-bezier(0.2, 0.8, 0.2, 1)"><g style="cursor:move"><g transform="translate(0, 0)"><text x="0" y="20" font-size="20" fill="#1f2937">scSeq analysis for Kim et al.</text></g></g></g><g transform="translate(20, 390)" style="transition:transform 0.15s cubic-bezier(0.2, 0.8, 0.2, 1)"><g style="cursor:move"><g transform="translate(0, 0)"><g transform="translate(0, 0)"><text x="90" y="25" text-anchor="middle" font-size="25" font-weight="bold" fill="#1f2937">0</text><g transform="translate(34.6, 33)"><svg width="17" height="17" viewBox="0 0 24 24" fill="#6b7280"><path d="M12,2A10,10 0 0,1 22,12A10,10 0 0,1 12,22A10,10 0 0,1 2,12A10,10 0 0,1 12,2M12,4A8,8 0 0,0 4,12A8,8 0 0,0 12,20A8,8 0 0,0 20,12A8,8 0 0,0 12,4M11,7H13V13H11V7M11,15H13V17H11V15Z"/></svg></g><text x="59.6" y="47" font-size="13" fill="#6b7280">Open Issues</text></g><g transform="translate(180, 0)"><text x="90" y="25" text-anchor="middle" font-size="25" font-weight="bold" fill="#1f2937">0</text><g transform="translate(46.3, 33)"><svg width="17" height="17" viewBox="0 0 24 24" fill="#6b7280"><path d="M6,3A3,3 0 0,1 9,6C9,7.31 8.17,8.42 7,8.83V15.17C8.17,15.58 9,16.69 9,18A3,3 0 0,1 6,21A3,3 0 0,1 3,18C3,16.69 3.83,15.58 5,15.17V8.83C3.83,8.42 3,7.31 3,6A3,3 0 0,1 6,3M6,5A1,1 0 0,0 5,6A1,1 0 0,0 6,7A1,1 0 0,0 7,6A1,1 0 0,0 6,5M6,17A1,1 0 0,0 5,18A1,1 0 0,0 6,19A1,1 0 0,0 7,18A1,1 0 0,0 6,17M21,18A3,3 0 0,1 18,21A3,3 0 0,1 15,18C15,16.69 15.83,15.58 17,15.17V7H15V10.25L10.75,6L15,1.75V5H17A2,2 0 0,1 19,7V15.17C20.17,15.58 21,16.69 21,18M18,17A1,1 0 0,0 17,18A1,1 0 0,0 18,19A1,1 0 0,0 19,18A1,1 0 0,0 18,17Z"/></svg></g><text x="71.3" y="47" font-size="13" fill="#6b7280">Open PRs</text></g></g></g></g><g transform="translate(385, 390)" style="transition:transform 0.15s cubic-bezier(0.2, 0.8, 0.2, 1)"><g style="cursor:move"><g transform="translate(0, 0)"><g transform="translate(0, 0)"><text x="91.66666666666667" y="25" text-anchor="middle" font-size="25" font-weight="bold" fill="#1f2937">0</text><g transform="translate(59.66666666666667, 40)"><svg width="17" height="17" viewBox="0 0 24 24" fill="#6b7280"><path d="M12,17.27L18.18,21L16.54,13.97L22,9.24L14.81,8.62L12,2L9.19,8.62L2,9.24L7.45,13.97L5.82,21L12,17.27Z"/></svg></g><text x="84.66666666666667" y="54" font-size="13" fill="#6b7280">Stars</text></g><g transform="translate(183.33333333333334, 0)"><text x="91.66666666666667" y="25" text-anchor="middle" font-size="25" font-weight="bold" fill="#1f2937">0</text><g transform="translate(59.66666666666667, 40)"><svg width="17" height="17" viewBox="0 0 24 24" fill="#6b7280"><path d="M6,2A3,3 0 0,1 9,5C9,6.28 8.19,7.38 7.06,7.81C7.15,8.27 7.39,8.83 8,9.63C9,10.92 11,12.83 12,14.17C13,12.83 15,10.92 16,9.63C16.61,8.83 16.85,8.27 16.94,7.81C15.81,7.38 15,6.28 15,5A3,3 0 0,1 18,2A3,3 0 0,1 21,5C21,6.32 20.14,7.45 18.95,7.85C18.87,8.37 18.64,9 18,9.83C17,11.17 15,13.08 14,14.38C13.39,15.17 13.15,15.73 13.06,16.19C14.19,16.62 15,17.72 15,19A3,3 0 0,1 12,22A3,3 0 0,1 9,19C9,17.72 9.81,16.62 10.94,16.19C10.85,15.73 10.61,15.17 10,14.38C9,13.08 7,11.17 6,9.83C5.36,9 5.13,8.37 5.05,7.85C3.86,7.45 3,6.32 3,5A3,3 0 0,1 6,2M6,4A1,1 0 0,0 5,5A1,1 0 0,0 6,6A1,1 0 0,0 7,5A1,1 0 0,0 6,4M18,4A1,1 0 0,0 17,5A1,1 0 0,0 18,6A1,1 0 0,0 19,5A1,1 0 0,0 18,4M12,18A1,1 0 0,0 11,19A1,1 0 0,0 12,20A1,1 0 0,0 13,19A1,1 0 0,0 12,18Z"/></svg></g><text x="84.66666666666667" y="54" font-size="13" fill="#6b7280">Forks</text></g><g transform="translate(366.6666666666667, 0)"><text x="91.66666666666667" y="25" text-anchor="middle" font-size="25" font-weight="bold" fill="#1f2937">1</text><g transform="translate(47.96666666666667, 40)"><svg width="17" height="17" viewBox="0 0 24 24" fill="#6b7280"><path d="M12,4A4,4 0 0,1 16,8A4,4 0 0,1 12,12A4,4 0 0,1 8,8A4,4 0 0,1 12,4M12,14C16.42,14 20,15.79 20,18V20H4V18C4,15.79 7.58,14 12,14Z"/></svg></g><text x="72.96666666666667" y="54" font-size="13" fill="#6b7280">Watchers</text></g></g></g></g><g transform="translate(980, 385)" style="transition:transform 0.15s cubic-bezier(0.2, 0.8, 0.2, 1)"><g style="cursor:move"><g transform="translate(0, 0)"><text x="0" y="16" font-size="14" font-weight="bold" fill="#1f2937">Contributors 1</text><g transform="translate(0, 34)"><g transform="translate(0, 0)"><defs><clipPath id="rcw-williamsdrake-0"><circle cx="15" cy="15" r="15"/></clipPath></defs><circle cx="15" cy="15" r="15" fill="#e5e7eb" stroke="#d1d5db" stroke-width="1"/><image href="https://avatars.githubusercontent.com/u/61563969?v=4" x="0" y="0" width="30" height="30" clip-path="url(#rcw-williamsdrake-0)" preserveAspectRatio="xMidYMid slice"/></g></g></g></g></g><g transform="translate(40, 490)" style="transition:transform 0.15s cubic-bezier(0.2, 0.8, 0.2, 1)"><g style="cursor:move"><g transform="translate(0, 0)"><g transform="translate(0, 0)"><rect x="0" y="0" width="80" height="32" rx="10" fill="#198CE7"/><rect x="8" y="11" width="10" height="10" rx="2" fill="#198CE7"/><text x="24" y="23" font-size="20" fill="#111827">R</text></g><g transform="translate(88, 0)"><rect x="0" y="0" width="110" height="32" rx="10" fill="#3572A5"/><rect x="8" y="11" width="10" height="10" rx="2" fill="#3572A5"/><text x="24" y="23" font-size="20" fill="#111827">Python</text></g><g transform="translate(206, 0)"><rect x="0" y="0" width="98" height="32" rx="10" fill="#89e051"/><rect x="8" y="11" width="10" height="10" rx="2" fill="#89e051"/><text x="24" y="23" font-size="20" fill="#111827">Shell</text></g></g></g></g><g transform="translate(40, 540)" style="transition:transform 0.15s cubic-bezier(0.2, 0.8, 0.2, 1)"><g style="cursor:move"><g transform="translate(0, 0)"><g transform="translate(0, 2)"><svg width="25" height="25" viewBox="0 0 24 24" fill="#6b7280"><path d="M14,10H19.5L14,4.5V10M5,3H15L21,9V19A2,2 0 0,1 19,21H5C3.89,21 3,20.1 3,19V5C3,3.89 3.89,3 5,3M5,12V14H19V12H5M5,16V18H14V16H5Z"/></svg></g><text x="33" y="22" font-size="20" fill="#6b7280">License: MIT</text></g></g></g></svg>