<?xml version="1.0" encoding="utf-8"?>
<!-- Generator: Adobe Illustrator 28.3.0, SVG Export Plug-In . SVG Version: 6.00 Build 0)  -->
<svg version="1.1" id="Layer_1" xmlns="http://www.w3.org/2000/svg" xmlns:xlink="http://www.w3.org/1999/xlink" x="0px" y="0px"
	 viewBox="0 0 400 400" style="enable-background:new 0 0 400 400;" xml:space="preserve">
<style type="text/css">
	
		.st0{opacity:0.1;fill:#FFFFFF;stroke:#FFFFFF;stroke-width:18;stroke-linecap:round;stroke-linejoin:round;stroke-miterlimit:10;enable-background:new    ;}
	.st1{fill:#231F20;}
</style>
<rect x="11.6" y="9.3" class="st0" width="376.9" height="381.4"/>
<g>
	<polyline class="st1" points="25,153.7 37,153.7 37,155.4 31.9,155.4 31.9,175.4 30,175.4 30,155.4 25,155.4 25,153.7 	"/>
	<path class="st1" d="M38.4,152.1h1.8v9.9l0,0c0.3-0.6,1.4-2.6,3.9-2.6c4.4,0,4.4,4.4,4.4,5.4v10.7h-1.8v-10.7c0-1.1,0-3.7-2.9-3.7
		c-2.1,0-3.7,2-3.7,4.6v9.9h-1.8L38.4,152.1"/>
	<path class="st1" d="M54.1,168.1c0,5.9,3.8,5.9,4.4,5.9c1.1,0,2.6-0.6,3.4-1.4l0.1,2c-0.8,0.4-1.8,0.9-3.7,0.9
		c-6.2,0-6.2-6.6-6.2-8.2c0-5.9,2.9-8.1,5.7-8.1c4.6,0,5.2,4.9,5.2,8.8L54.1,168.1 M60.9,166.4c0-4.1-1.8-5.4-3.2-5.4
		c-2.4,0-3.7,3.4-3.7,5.4H60.9z"/>
	<path class="st1" d="M77.5,153.7h2l7.3,21.7h-2l-1.9-5.9h-8.7l-2,5.9h-1.9L77.5,153.7 M74.8,167.6h7.6l-3.7-11.9l0,0L74.8,167.6z"
		/>
	<path class="st1" d="M89.4,164.5c0-1.7-0.1-3.2-0.1-5h1.7c0,0.6,0.1,1.2,0.1,2.3l0,0c0.6-1.2,1.7-2.6,3.7-2.6
		c2.6,0,3.2,1.7,3.7,2.6c0.4-0.8,1.7-2.6,3.9-2.6c3.2,0,4.1,2.7,4.1,5.2v11h-1.8v-10.7c0-1.1,0-3.8-2.6-3.8c-2.3,0-3.2,2-3.2,4.1
		v10.2H97v-11.1c0-2-0.9-3.4-2.4-3.4c-2,0-3.5,2-3.5,4.6v9.9h-1.7L89.4,164.5"/>
	<path class="st1" d="M111.8,168.1c0,5.9,3.8,5.9,4.4,5.9c1.1,0,2.6-0.6,3.4-1.4l0.1,2c-0.8,0.4-1.8,0.9-3.7,0.9
		c-6.2,0-6.2-6.6-6.2-8.2c0-5.9,2.9-8.1,5.7-8.1c4.6,0,5.2,4.9,5.2,8.8L111.8,168.1 M118.7,166.4c0-4.1-1.8-5.4-3.2-5.4
		c-2.4,0-3.7,3.4-3.7,5.4H118.7z"/>
	<path class="st1" d="M124,164.5c0-1.7-0.1-3.2-0.1-5h1.7c0,0.9,0.1,1.9,0.1,2.6l0,0c1.2-2.3,2.4-2.7,4.1-2.7v1.9
		c-2.9,0-4.1,1.2-4.1,4.1v9.9h-1.8L124,164.5"/>
	<path class="st1" d="M132.7,153.1h2.1v2.9h-2.1C132.7,156,132.7,153.1,132.7,153.1z M132.8,159.5h1.8v15.9h-1.8V159.5z"/>
	<path class="st1" d="M147.7,162c-0.6-0.6-1.9-0.8-2.9-0.8c-2.4,0-4.6,1.7-4.6,5.9c0,5.8,3.2,6.9,5,6.9c0.6,0,2.1-0.3,2.7-0.8l0.1,2
		c-0.8,0.4-2,0.6-3.1,0.6c-3.4,0-6.6-2.6-6.6-8.1c0-4.9,2.1-8.2,6.6-8.2c1.2,0,2.1,0.3,2.9,0.6L147.7,162"/>
	<path class="st1" d="M160.2,171.9c0,1.2,0.1,2.4,0.1,3.5h-1.7l-0.1-2.3l0,0c-1.1,1.8-2.4,2.4-4.4,2.4c-2.4,0-4.4-2-4.4-4.6
		c0-5.2,5.4-5.2,7.7-5.2h1.2c0-2,0-4.9-3.2-4.9c-2.1,0-3.8,1.5-4.1,1.7l-0.3-1.9c1.5-0.8,2.6-1.4,4.3-1.4c4.9,0,4.9,4.1,4.9,5.2
		L160.2,171.9 M158.6,167.5c-3.8,0-6.9,0-6.9,3.7c0,1.4,0.9,2.9,2.9,2.9c0.8,0,3.9-0.4,3.9-4.7L158.6,167.5L158.6,167.5z"/>
	<path class="st1" d="M164.4,164.5c0-1.7-0.1-3.2-0.1-5h1.7c0,0.6,0.1,1.2,0.1,2.3l0,0c0.4-0.6,1.4-2.6,4.1-2.6
		c4.4,0,4.4,4.4,4.4,5.4v10.7h-1.8v-10.7c0-1.1,0-3.8-2.9-3.8c-2.1,0-3.7,2-3.7,4.6v9.9h-1.7L164.4,164.5"/>
	<path class="st1" d="M184.9,173.4c0.4,0.1,0.8,0.4,1.5,0.4c2.6,0,2.7-2.3,2.7-4.3v-15.7h1.9v15.8c0,3.2-0.6,6.2-4.6,6.2
		c-0.6,0-1.1-0.1-1.5-0.3V173.4"/>
	<path class="st1" d="M194.8,167.5c0-4.1,1.4-8.2,5.9-8.2s5.9,4.1,5.9,8.2s-1.4,8.1-5.9,8.1C195.9,175.7,194.8,171.5,194.8,167.5
		 M204.6,167.5c0-1.2,0-6.4-4.1-6.4s-4.1,5.2-4.1,6.4s0,6.4,4.1,6.4S204.6,168.8,204.6,167.5z"/>
	<path class="st1" d="M220.3,170.5c0,1.7,0.1,3.2,0.1,5h-1.7c0-0.6-0.1-1.2-0.1-2.3l0,0c-0.1,0.6-1.4,2.6-4.1,2.6
		c-3.5,0-4.4-2.4-4.4-5v-11.3h1.8v10.7c0,1.1,0,3.7,2.9,3.7c2.1,0,3.7-2,3.7-4.6v-9.8h1.7L220.3,170.5"/>
	<path class="st1" d="M224.4,164.5c0-1.7-0.1-3.2-0.1-5h1.7c0,0.9,0.1,1.9,0.1,2.6l0,0c1.2-2.3,2.6-2.7,4.1-2.7v1.9
		c-2.9,0-4.1,1.2-4.1,4.1v9.9h-1.8L224.4,164.5"/>
	<path class="st1" d="M233.1,164.5c0-1.7-0.1-3.2-0.1-5h1.7c0,0.6,0.1,1.2,0.1,2.3l0,0c0.4-0.6,1.4-2.6,4.1-2.6
		c4.4,0,4.4,4.4,4.4,5.4v10.7h-1.7v-10.7c0-1.1,0-3.8-2.9-3.8c-2.1,0-3.7,2-3.7,4.6v9.9h-1.8L233.1,164.5"/>
	<path class="st1" d="M257.2,171.9c0,1.2,0.1,2.4,0.1,3.5h-1.7l-0.1-2.3l0,0c-1.1,1.8-2.4,2.4-4.4,2.4c-2.4,0-4.4-2-4.4-4.6
		c0-5.2,5.4-5.2,7.7-5.2h1.2c0-2,0-4.9-3.2-4.9c-2.1,0-3.8,1.5-4.1,1.7l-0.3-1.9c1.5-0.8,2.6-1.4,4.3-1.4c4.9,0,4.9,4.1,4.9,5.2
		L257.2,171.9 M255.4,167.5c-3.8,0-6.9,0-6.9,3.7c0,1.4,0.9,2.9,2.9,2.9c0.8,0,3.9-0.4,3.9-4.7L255.4,167.5L255.4,167.5z"/>
	<rect x="261.5" y="152.1" class="st1" width="1.7" height="23.3"/>
	<path class="st1" d="M274.3,167.5c0-4.1,1.4-8.2,5.9-8.2c4.6,0,5.9,4.1,5.9,8.2s-1.4,8.1-5.9,8.1
		C275.7,175.7,274.3,171.5,274.3,167.5 M284.4,167.5c0-1.2,0-6.4-4.1-6.4c-4.1,0-4.1,5.2-4.1,6.4s0,6.4,4.1,6.4
		C284.4,173.9,284.4,168.8,284.4,167.5z"/>
	<path class="st1" d="M290.4,161.2H288v-1.8h2.4v-3.4c0-2.4,0.6-4.4,3.9-4.4c0.6,0,1.1,0.1,1.4,0.1v1.7c-0.3-0.1-0.8-0.3-1.5-0.3
		c-1.7,0-2,1.2-2,2.4v3.8h2.9v1.7h-2.9v14.2h-1.8V161.2"/>
	<path class="st1" d="M28.5,205.6h10.7c9.2,0,17.5,2.7,17.5,12.7c0,9.9-7.2,13.4-16.2,13.4H37v15.9h-8.3v-42 M36.9,225.1h2.9
		c4.1,0,7.9-1.4,7.9-6.2c0-4.9-3.7-6.6-7.9-6.6h-2.9V225.1z"/>
	<path class="st1" d="M70.2,205.6h9.5l16.5,42h-9.4l-3.7-9.6H66.2l-3.7,9.6h-8.8L70.2,205.6 M74.8,214L74.8,214l-6.3,17.3h12.2
		L74.8,214z"/>
	<polyline class="st1" points="104.3,212.3 92.3,212.3 92.3,205.6 124.8,205.6 124.8,212.3 112.9,212.3 112.9,247.6 104.3,247.6 
		104.3,212.3 	"/>
	<polyline class="st1" points="130.1,205.6 138.6,205.6 138.6,222.5 155.3,222.5 155.3,205.6 163.8,205.6 163.8,247.6 155.3,247.6 
		155.3,229.1 138.6,229.1 138.6,247.6 130.1,247.6 130.1,205.6 	"/>
	<path class="st1" d="M192.1,204.9c13.3,0,20.5,8.9,20.5,21.6c0,12.7-7.3,21.8-20.5,21.8c-13.4,0-20.5-8.9-20.5-21.8
		C171.5,213.6,178.7,204.9,192.1,204.9 M192.1,241.6c8.7,0,11.7-7.7,11.7-15.3c0-7.5-3.4-15-11.7-15c-8.4,0-11.7,7.6-11.7,15
		C180.3,234,183.4,241.6,192.1,241.6z"/>
	<polyline class="st1" points="220.3,205.6 228.7,205.6 228.7,241 245,241 245,247.6 220.3,247.6 220.3,205.6 	"/>
	<path class="st1" d="M268.8,204.9c13.3,0,20.5,8.9,20.5,21.6c0,12.7-7.3,21.8-20.5,21.8c-13.4,0-20.5-8.9-20.5-21.8
		C248.3,213.6,255.4,204.9,268.8,204.9 M268.8,241.6c8.7,0,11.7-7.7,11.7-15.3c0-7.5-3.4-15-11.7-15s-11.7,7.6-11.7,15
		C257.1,234,260.3,241.6,268.8,241.6z"/>
	<path class="st1" d="M329.8,213.7c-3.2-1.5-7.5-2.1-10.8-2.1c-9.9,0-15.3,6.6-15.3,15.3c0,8.5,5.2,15,14.3,15
		c2.3,0,4.1-0.3,5.5-0.6v-11h-8.9v-6.6h17.1v22.6c-4.4,1.2-9,2.1-13.6,2.1c-13.6,0-23.1-6.7-23.1-20.9c0-14.3,8.8-22.4,23.1-22.4
		c4.9,0,8.8,0.6,12.2,1.7L329.8,213.7"/>
	<polyline class="st1" points="351.7,231 336.3,205.6 346.2,205.6 356.1,223.2 366.1,205.6 375,205.6 360,231 360,247.6 
		351.7,247.6 351.7,231 	"/>
</g>
</svg>
