<?xml version="1.0" encoding="utf-8"?>
<!-- Generator: Adobe Illustrator 28.3.0, SVG Export Plug-In . SVG Version: 6.00 Build 0)  -->
<svg version="1.1" id="Layer_1" xmlns="http://www.w3.org/2000/svg" xmlns:xlink="http://www.w3.org/1999/xlink" x="0px" y="0px"
	 viewBox="0 0 400 400" style="enable-background:new 0 0 400 400;" xml:space="preserve">
<style type="text/css">
	.st0{opacity:0.1;fill:#FFFFFF;stroke:#FFFFFF;stroke-width:18;stroke-linecap:round;stroke-linejoin:round;stroke-miterlimit:10;}
	.st1{fill:#27A7E5;}
</style>
<rect x="11.6" y="9.8" class="st0" width="376.9" height="381.4"/>
<g>
	<g>
		<path class="st1" d="M175.1,196c1.9,1,3.1,1.8,4.4,2.3c11.8,5,18.3,14.3,19.1,26.8c0.4,7.2,0.3,14.9-1.5,22.1
			c-4,15-15.5,22.4-29.9,25.6c-17.7,4.1-35.5,2.6-53.3,1c-3.4-0.3-4-2.3-4-5c0-8.7,0-17.5,0-26.2c0-35.9,0-71.8,0-107.8
			c0-8.4,0-8.7,8.3-9.1c17.8-1,35.6-2.5,53.2,2.3c15.8,4.4,25,14,26.4,27.7c1.8,19.6-4.5,31.9-20.5,39.3
			C176.9,195.2,176.3,195.4,175.1,196z M119.2,198.9c-0.1,0.6-0.3,1.2-0.6,1.8c-0.1,0.3-0.4,0.7-0.4,1c0,20.5-0.1,41.1,0.1,61.5
			c0,1.3,2.6,3.5,4.2,3.7c8,0.7,15.9,1.2,24,1c10.4-0.3,20.9-0.9,30.3-6.3c11.5-6.6,16.4-20.3,13.8-37c-1.9-12.1-8.5-20.6-20.5-22.2
			C153.3,200.1,136.2,200,119.2,198.9z M118.5,191.1c16.4,0,32.5,0.1,48.6-0.1c2.2,0,4.4-1,6.5-1.9c12.1-4.7,17.1-13.8,16.6-29.3
			c-0.4-12.2-6.8-20.9-18.4-24.5c-17.4-5.5-35.2-3.8-53.3-2.6C118.5,152.4,118.5,171.7,118.5,191.1z"/>
		<path class="st1" d="M76.8,196c3.8,1.9,6.9,3.2,9.7,5c14,9.4,15.8,23.5,14.1,38.4c-2.2,17.7-12.4,28.6-30,33
			c-18.1,4.4-36.7,3.1-54.9,1c-1.3-0.1-3.1-2.6-3.4-4.2c-0.4-4.1-0.1-8.4-0.1-12.5c0-40.9,0-81.7,0-122.5c0-8.1,0-8.3,8-8.7
			c18-1,35.9-2.5,53.8,2.5c15.8,4.4,24.9,14.1,26.1,28.6c1.6,19.1-4.9,31.3-20.9,38.4C78.4,195.2,77.9,195.4,76.8,196z M20.1,266.7
			c17.4,1.6,34.6,3.5,51.5-2.1C85.6,260,91.8,251,92.4,236c0.1-3.2,0.1-6.5-0.1-9.7c-0.9-12.6-8.1-21.6-20.5-24.1
			c-8.8-1.8-18.1-1.9-27.1-2.2c-8.1-0.3-16.2,0-24.6,0C20.1,222.6,20.1,244.3,20.1,266.7z M20.1,192c14.4,0,28.1,0.3,41.9,0
			c21-0.4,32.2-14.1,29.6-34.9c-1.5-11.2-7.5-18-17.7-21.5c-17.5-5.9-35.5-4-53.8-2.8C20.1,152.4,20.1,171.8,20.1,192z"/>
		<path class="st1" d="M216.3,206.8c0,3.1,0,5.2,0,7.5c0,18,0,36.1,0,54c0,2.9-0.1,5.5-4.1,5.5c-4,0-4.1-2.6-4.1-5.3
			c0-45.8,0-91.6,0-137.3c0-3.1,0.6-5.3,4.2-5.5c18.6-0.9,37.3-2.6,55.5,1.8c20.6,4.8,29.6,18,28.6,40.3c-1,21.3-8.8,31.2-29.4,37
			c-1.8,0.4-3.5,1-6.2,1.8c4.8,7.4,9.1,14.4,13.7,21.3c8.3,12.8,16.6,25.3,24.6,38.3c1.3,2.1,2.2,6.9,1.6,7.2
			c-3.4,1.8-6.2,0.4-8.4-3.1c-12.2-19-24.9-37.7-36.8-56.8c-3.2-5-6.5-6.9-12.4-6.6C234.8,207.1,226.1,206.8,216.3,206.8z
			 M216.8,199.2c7.5,0,14.7,0.4,21.9-0.1c10.3-0.7,20.9-1.2,30.9-3.4c11.8-2.5,17.4-11.3,18.8-22.9c0.4-3.7,0.4-7.2,0.3-10.7
			c-0.6-14.5-8.5-25-22.9-27c-14.4-1.9-29-1.6-43.6-2.3c-4.8-0.3-5.9,2.1-5.8,6.5c0.3,17.8,0.1,35.6,0.1,53.5
			C216.3,194.8,216.6,196.5,216.8,199.2z"/>
		<path class="st1" d="M308.9,200c0.7,14.6-0.3,29.3,5.2,43.3c5.6,14.6,17.7,24,33.4,24c11.9,0.1,24-0.9,35.8-1.2
			c1.6,0,3.2,1.5,4.8,2.3c-1.3,1.6-2.5,4.5-3.8,4.5c-14.7,0.7-29.7,2.5-44.2,1c-19.9-2.1-31.5-15.6-35.5-34.3
			c-5.6-26.2-5.6-52.9-0.1-79.2c4.8-22.8,21.9-35.9,44.9-35.6c11.2,0.1,22.4,1.2,33.5,1.9c3.2,0.1,6.1,1.5,4.9,5
			c-0.4,1.2-3.8,2.2-5.8,2.2c-11.2-0.3-22.4-1.5-33.5-1.5c-20.2,0.1-35.2,14.6-37.7,36.2C309.7,179.1,309.5,189.5,308.9,200z"/>
	</g>
</g>
</svg>
