<?xml version="1.0" encoding="utf-8"?>
<!-- Generator: Adobe Illustrator 28.3.0, SVG Export Plug-In . SVG Version: 6.00 Build 0)  -->
<svg version="1.1" id="Layer_1" xmlns="http://www.w3.org/2000/svg" xmlns:xlink="http://www.w3.org/1999/xlink" x="0px" y="0px"
	 viewBox="0 0 400 400" style="enable-background:new 0 0 400 400;" xml:space="preserve">
<style type="text/css">
	
		.st0{opacity:0.1;fill:#FFFFFF;stroke:#FFFFFF;stroke-width:18;stroke-linecap:round;stroke-linejoin:round;stroke-miterlimit:10;enable-background:new    ;}
	.st1{fill:#27A7E5;}
</style>
<rect x="11.6" y="9.8" class="st0" width="376.9" height="381.4"/>
<g>
	<g>
		<path class="st1" d="M176.8,196.3c1.8,0.9,2.9,1.7,4.1,2.1c11,4.7,17,13.3,17.8,24.9c0.4,6.7,0.3,13.9-1.4,20.6
			c-3.7,14-14.4,20.9-27.8,23.8c-16.5,3.8-33,2.4-49.6,0.9c-3.2-0.3-3.7-2.1-3.7-4.7c0-8.1,0-16.3,0-24.4c0-33.4,0-66.8,0-100.3
			c0-7.8,0-8.1,7.7-8.5c16.6-0.9,33.1-2.3,49.5,2.1c14.7,4.1,23.3,13,24.6,25.8c1.7,18.2-4.2,29.7-19.1,36.6
			C178.5,195.5,177.9,195.7,176.8,196.3z M124.8,199c-0.1,0.6-0.3,1.1-0.6,1.7c-0.1,0.3-0.4,0.7-0.4,0.9c0,19.1-0.1,38.3,0.1,57.2
			c0,1.2,2.4,3.3,3.9,3.4c7.4,0.7,14.8,1.1,22.3,0.9c9.7-0.3,19.5-0.8,28.2-5.9c10.7-6.1,15.3-18.9,12.8-34.4
			c-1.8-11.3-7.9-19.2-19.1-20.7C156.5,200.1,140.6,200,124.8,199z M124.1,191.7c15.3,0,30.3,0.1,45.2-0.1c2,0,4.1-0.9,6.1-1.8
			c11.3-4.4,15.9-12.8,15.5-27.3c-0.4-11.4-6.3-19.5-17.1-22.8c-16.2-5.1-32.8-3.5-49.6-2.4C124.1,155.7,124.1,173.7,124.1,191.7z"
			/>
		<path class="st1" d="M85.3,196.3c3.5,1.8,6.4,3,9,4.7c13,8.7,14.7,21.9,13.1,35.7c-2,16.5-11.5,26.6-27.9,30.7
			c-16.8,4.1-34.2,2.9-51.1,0.9c-1.2-0.1-2.9-2.4-3.2-3.9c-0.4-3.8-0.1-7.8-0.1-11.6c0-38.1,0-76,0-114c0-7.5,0-7.7,7.4-8.1
			c16.8-0.9,33.4-2.3,50.1,2.3c14.7,4.1,23.2,13.1,24.3,26.6c1.5,17.8-4.6,29.1-19.5,35.7C86.8,195.5,86.4,195.7,85.3,196.3z
			 M32.6,262.1c16.2,1.5,32.2,3.3,47.9-2c13-4.3,18.8-12.7,19.4-26.6c0.1-3,0.1-6.1-0.1-9c-0.8-11.7-7.5-20.1-19.1-22.4
			c-8.2-1.7-16.8-1.8-25.2-2c-7.5-0.3-15.1,0-22.9,0C32.6,221,32.6,241.2,32.6,262.1z M32.6,192.6c13.4,0,26.2,0.3,39,0
			c19.5-0.4,30-13.1,27.6-32.5c-1.4-10.4-7-16.8-16.5-20c-16.3-5.5-33-3.7-50.1-2.6C32.6,155.7,32.6,173.7,32.6,192.6z"/>
		<path class="st1" d="M215.2,206.3c0,2.9,0,4.8,0,7c0,16.8,0,33.6,0,50.3c0,2.7-0.1,5.1-3.8,5.1s-3.8-2.4-3.8-4.9
			c0-42.6,0-85.3,0-127.8c0-2.9,0.6-4.9,3.9-5.1c17.3-0.8,34.7-2.4,51.7,1.7c19.2,4.5,27.6,16.8,26.6,37.5
			c-0.9,19.8-8.2,29-27.4,34.4c-1.7,0.4-3.3,0.9-5.8,1.7c4.5,6.9,8.5,13.4,12.8,19.8c7.7,11.9,15.5,23.6,22.9,35.7
			c1.2,2,2,6.4,1.5,6.7c-3.2,1.7-5.8,0.4-7.8-2.9c-11.4-17.7-23.2-35.1-34.3-52.9c-3-4.7-6.1-6.4-11.5-6.1
			C232.4,206.6,224.3,206.3,215.2,206.3z M215.6,199.3c7,0,13.7,0.4,20.4-0.1c9.6-0.7,19.5-1.1,28.8-3.2c11-2.3,16.2-10.5,17.5-21.3
			c0.4-3.4,0.4-6.7,0.3-10c-0.6-13.5-7.9-23.3-21.3-25.1c-13.4-1.8-27-1.5-40.6-2.1c-4.5-0.3-5.5,2-5.4,6.1
			c0.3,16.6,0.1,33.1,0.1,49.8C215.2,195.2,215.5,196.7,215.6,199.3z"/>
		<path class="st1" d="M301.4,200c0.7,13.6-0.3,27.3,4.8,40.3c5.2,13.6,16.5,22.3,31.1,22.3c11.1,0.1,22.3-0.8,33.3-1.1
			c1.5,0,3,1.4,4.5,2.1c-1.2,1.5-2.3,4.2-3.5,4.2c-13.7,0.7-27.6,2.3-41.1,0.9c-18.5-2-29.3-14.5-33-31.9
			c-5.2-24.4-5.2-49.2-0.1-73.7c4.5-21.2,20.4-33.4,41.8-33.1c10.4,0.1,20.9,1.1,31.2,1.8c3,0.1,5.7,1.4,4.6,4.7
			c-0.4,1.1-3.5,2-5.4,2c-10.4-0.3-20.9-1.4-31.2-1.4c-18.8,0.1-32.8,13.6-35.1,33.7C302.1,180.5,301.9,190.2,301.4,200z"/>
	</g>
</g>
</svg>
