<?xml version="1.0" encoding="utf-8"?>
<!-- Generator: Adobe Illustrator 28.3.0, SVG Export Plug-In . SVG Version: 6.00 Build 0)  -->
<svg version="1.1" id="Layer_1" xmlns="http://www.w3.org/2000/svg" xmlns:xlink="http://www.w3.org/1999/xlink" x="0px" y="0px"
	 viewBox="0 0 400 400" style="enable-background:new 0 0 400 400;" xml:space="preserve">
<style type="text/css">
	.st0{opacity:0.1;fill:#FFFFFF;stroke:#FFFFFF;stroke-width:18;stroke-linecap:round;stroke-linejoin:round;stroke-miterlimit:10;}
	.st1{fill:#292526;}
	.st2{fill:#BD2A38;}
	.st3{fill:#272324;}
	.st4{fill:#282425;}
	.st5{fill:#252122;}
	.st6{fill:#2A2627;}
</style>
<rect x="11.6" y="9.8" class="st0" width="376.9" height="381.4"/>
<g>
	<path class="st1" d="M26.9,151c0,10.9,0,21.8,0,33.2c2.4-2,3.6-4.7,5-7c1.3-2.3,3.1-3.3,5.6-3.7c14.4-2.6,27.2,7.7,28.2,22.9
		c1.2,17.6-10.3,29.9-29.2,31.3c-7.5,0.6-15-0.6-22.5-1.6c-0.7-0.1-1.7-0.1-2-1c-0.2-0.7,0.5-1.1,1-1.5c1.9-1.2,2.2-3.2,2.2-5.2
		c0-18.6,0.1-37.2,0.1-55.7c0-3.2-0.5-6.4-4.2-7.6c0-0.5,0-1.1,0-1.6c2.9-0.1,6-0.1,8.9-0.2c2-0.2,4.2,0.1,5.4-2.1
		C25.8,151,26.3,151,26.9,151z M26.8,201.8c0,2.2,0,4.5,0,6.7c0,9.8,1.2,10.8,11.2,9.7c0.1,0,0.3,0,0.4-0.1
		c6.8-1.1,11.9-4.5,13.7-11.4c2-7.5,1.5-14.9-4.7-20.4c-5.3-4.7-11.5-4.3-17.8-1.6c-2,0.9-3,2-2.9,4.4
		C27,193.4,26.8,197.6,26.8,201.8z"/>
	<path class="st2" d="M240.9,226.2c-4.1,0-8.2-0.1-12.3,0c-5.4,0.1-9.6-2.1-13-6.3c-7.1-9-14.6-17.7-20.5-27.6
		c-0.6-1.1-1.1-2.4-2.4-2.9c-0.3,0.2-0.6,0.3-0.6,0.4c-0.5,9.2-0.5,18.4-0.1,27.6c0.1,2.5,0.9,4.9,3.3,6.4c0.6,0.4,1.5,0.8,1,1.8
		c-0.3,0.7-1.1,0.5-1.8,0.5c-6.2,0-12.4,0-18.6,0c-0.6,0-1.4,0.2-1.6-0.7c-0.2-0.8,0.5-1.2,1-1.5c3-1.8,3.6-4.9,3.6-7.9
		c0.1-17.6,0.1-35.3,0-52.9c0-3.1-0.7-6.1-3.7-7.9c-0.6-0.3-1.2-0.7-0.8-1.5c0.3-0.8,1.1-0.6,1.7-0.6c10,0.1,20.1-0.3,30.1,0.4
		c9.6,0.6,16.6,6.9,17.9,14.7c1.4,8.6-3.3,17.2-12.5,21.2c-3.8,1.6-3.5,2.8-1.1,5.2c1.6,1.7,3.1,3.6,4.5,5.6
		C222.4,210,230.3,219.2,240.9,226.2z M191.8,188.4c0.9-1.6,2.4-1,3.6-1.3c3.6-0.9,7.1-1.9,10.3-3.9c4.7-3.1,6.9-8.2,5.7-13.2
		c-1.2-4.8-5.7-8.3-11.5-8.5c-1.9-0.1-3.9,0.3-5.9,0.5c-1.8,0.1-2.1,1-2.1,2.6C191.8,172.5,191.8,180.4,191.8,188.4z"/>
	<path class="st3" d="M135.9,173.2c15.7,0.1,27.9,11.8,27.9,26.8c-0.1,15.5-13.1,27.8-29.6,27.7c-16.1-0.1-28.1-11.6-28.1-26.9
		C106.1,184.8,118.7,173.1,135.9,173.2z M118.7,199c-0.1,4.5,1.1,8.6,3.5,12.4c3.3,5.2,8.1,8,14.3,7.4c6.5-0.6,11-4.1,13.3-10.2
		c1.8-4.8,1.4-9.6-0.1-14.4c-2.6-8.6-9.6-13.3-17.5-12C124,183.4,118.7,190,118.7,199z"/>
	<path class="st4" d="M268.7,205.1c6.1-7.4,10.8-15.1,15-22.9c0.6-1,1.1-2.1,1.7-3.1c0.9-1.4,2-2.6,3.9-2c1.7,0.6,1.6,2.3,1.5,3.7
		c-0.2,2.3-1.1,4.3-2.2,6.3c-4.1,8.1-9.5,15.1-15.2,22.1c-1,1.2-2.2,2-1.3,4.1c3.6,8.2,6.9,16.5,10.3,24.7c1.5,3.5,3.6,6.1,8,5.7
		c1.2-0.1,2.5,0.2,2.8,1.6c0.3,1.7-1,2.4-2.3,2.7c-6.9,1.9-14.5,1.9-18.7-6.4c-1.8-3.5-3.3-7.1-4.9-10.8c-1.5-3.5-2.8-7-4.4-10.9
		c-3.1,2.9-5.4,6.1-7.4,9.4c-3.5,5.6-6.6,11.3-10,17c-0.9,1.5-1.8,3.2-3.9,2.4c-2.2-0.7-1.9-2.7-1.6-4.4c0.5-3.3,2-6.2,3.7-9.1
		c4.1-7.1,9.2-13.4,14.5-19.7c0.9-1.1,2-1.9,1.2-3.7c-3.5-7.9-6.8-15.9-10.2-23.9c-1.6-3.8-4.4-6.1-8.9-5.8c-1.3,0.1-2.9,0.1-3-1.7
		c-0.1-1.6,1.1-2.3,2.4-2.7c9.4-2.4,16.2-0.5,20,7.1c2.6,5.3,4.8,10.8,7.1,16.2C267.5,202.3,268,203.4,268.7,205.1z"/>
	<path class="st3" d="M361.8,211.9c4.4-9.4,8.7-18.8,13-28.2c1.2-2.6,1.4-5.2-1.6-6.8c-0.6-0.3-1.2-0.7-1.1-1.5
		c0.2-1.1,1.2-0.9,1.9-0.9c5,0,10,0,14.9,0c0.6,1.4-0.3,2.3-0.7,3.2c-7.5,15.9-15.2,31.8-22.6,47.7c-1.1,2.4-1.9,3.1-4.5,1.5
		c-4.9-2.8-8.5-6.5-10.7-11.7c-4.5-10.2-9.3-20.3-13.8-30.5c-1.5-3.2-3.6-5.8-6.7-7.5c-0.8-0.5-1.9-0.7-1.7-1.9
		c0.2-1.3,1.5-0.7,2.3-0.8c4.3-0.3,8.7,0.9,12.9-1.1c1.7-0.8,1.4,1,1.7,1.8c5.3,12,10.6,24.1,15.9,36
		C361.1,211.5,361.4,211.6,361.8,211.9z"/>
	<path class="st1" d="M91.2,196.5c0,6.6,0,13.2,0,19.7c0,2.9,0.3,5.8,3.1,7.7c0.6,0.3,1.1,0.9,0.9,1.6c-0.2,0.9-1,0.7-1.6,0.7
		c-5.4,0-10.8,0-16.2,0c-0.6,0-1.4,0.2-1.7-0.6c-0.3-0.8,0.3-1.2,0.9-1.6c3.2-2,3.2-5.3,3.2-8.5c0.1-10.2,0.1-20.3,0-30.4
		c0-3.1-0.1-6.1-3-8.1c-0.6-0.4-1.4-0.9-1-1.9c0.3-0.7,1.1-0.5,1.8-0.6c4.1-0.2,8.4,0.6,12.4-1.5c1.6-0.9,1.2,1.1,1.2,2
		C91.2,182.2,91.2,189.4,91.2,196.5z"/>
	<path class="st5" d="M319.5,196.5c0,6.1,0,12.1,0,18.2c0,3.6-0.2,7.2,3.4,9.5c0.3,0.2,0.7,0.9,0.6,1.3c-0.1,0.9-0.9,0.7-1.5,0.7
		c-5.4,0-10.8,0-16.2,0c-0.6,0-1.4,0.2-1.7-0.6c-0.3-0.8,0.2-1.2,0.7-1.6c3.1-2,3.2-5.2,3.2-8.4c0-10.1,0-20.3,0-30.3
		c0-3.2-0.1-6.4-3.3-8.4c-0.6-0.3-1.1-0.9-0.7-1.6c0.3-0.8,1.1-0.6,1.7-0.6c4.1-0.2,8.3,0.5,12.4-1.4c1.8-0.9,1.4,1.4,1.4,2.4
		C319.6,182.6,319.6,189.6,319.5,196.5C319.6,196.5,319.6,196.5,319.5,196.5z"/>
	<path class="st6" d="M313.3,154.4c4-0.1,7.5,3.4,7.6,7.5c0.1,4.1-3.3,7.7-7.3,7.8c-4.4,0.1-8.1-3.6-8.1-8
		C305.5,157.8,309,154.5,313.3,154.4z"/>
	<path class="st6" d="M77,161.7c0.1-3.9,3.7-7.3,7.9-7.3c4-0.1,7.5,3.5,7.5,7.6c0.1,4.3-3.6,7.9-7.8,7.8
		C80.5,169.6,77,165.9,77,161.7z"/>
</g>
</svg>
