<?xml version="1.0" encoding="utf-8"?>
<!-- Generator: Adobe Illustrator 28.3.0, SVG Export Plug-In . SVG Version: 6.00 Build 0)  -->
<svg version="1.1" id="Layer_1" xmlns="http://www.w3.org/2000/svg" xmlns:xlink="http://www.w3.org/1999/xlink" x="0px" y="0px"
	 viewBox="0 0 400 400" style="enable-background:new 0 0 400 400;" xml:space="preserve">
<style type="text/css">
	
		.st0{opacity:0.1;fill:#FFFFFF;stroke:#FFFFFF;stroke-width:18;stroke-linecap:round;stroke-linejoin:round;stroke-miterlimit:10;enable-background:new    ;}
	.st1{fill:#292526;}
	.st2{fill:#BD2A38;}
	.st3{fill:#272324;}
	.st4{fill:#282425;}
	.st5{fill:#252122;}
	.st6{fill:#2A2627;}
</style>
<rect x="11.6" y="9.8" class="st0" width="376.9" height="381.4"/>
<g>
	<path class="st1" d="M39.7,154.6c0,10.1,0,20.2,0,30.7c2.2-1.9,3.3-4.4,4.6-6.5c1.2-2.1,2.9-3.1,5.2-3.4
		c13.3-2.4,25.2,7.1,26.1,21.2c1.1,16.3-9.5,27.7-27,29c-6.9,0.6-13.9-0.6-20.8-1.5c-0.6-0.1-1.6-0.1-1.9-0.9
		c-0.2-0.6,0.5-1,0.9-1.4c1.8-1.1,2-3,2-4.8c0-17.2,0.1-34.4,0.1-51.6c0-3-0.5-5.9-3.9-7c0-0.5,0-1,0-1.5c2.7-0.1,5.6-0.1,8.2-0.2
		c1.9-0.2,3.9,0.1,5-1.9C38.7,154.6,39.2,154.6,39.7,154.6z M39.6,201.7c0,2,0,4.2,0,6.2c0,9.1,1.1,10,10.4,9c0.1,0,0.3,0,0.4-0.1
		c6.3-1,11-4.2,12.7-10.6c1.9-6.9,1.4-13.8-4.4-18.9c-4.9-4.4-10.6-4-16.5-1.5c-1.9,0.8-2.8,1.9-2.7,4.1
		C39.8,193.9,39.6,197.8,39.6,201.7z"/>
	<path class="st2" d="M237.9,224.3c-3.8,0-7.6-0.1-11.4,0c-5,0.1-8.9-1.9-12-5.8c-6.6-8.3-13.5-16.4-19-25.6c-0.6-1-1-2.2-2.2-2.7
		c-0.3,0.2-0.6,0.3-0.6,0.4c-0.5,8.5-0.5,17-0.1,25.6c0.1,2.3,0.8,4.5,3.1,5.9c0.6,0.4,1.4,0.7,0.9,1.7c-0.3,0.6-1,0.5-1.7,0.5
		c-5.7,0-11.5,0-17.2,0c-0.6,0-1.3,0.2-1.5-0.6c-0.2-0.7,0.5-1.1,0.9-1.4c2.8-1.7,3.3-4.5,3.3-7.3c0.1-16.3,0.1-32.7,0-49
		c0-2.9-0.6-5.6-3.4-7.3c-0.6-0.3-1.1-0.6-0.7-1.4c0.3-0.7,1-0.6,1.6-0.6c9.3,0.1,18.6-0.3,27.9,0.4c8.9,0.6,15.4,6.4,16.6,13.6
		c1.3,8-3.1,15.9-11.6,19.6c-3.5,1.5-3.2,2.6-1,4.8c1.5,1.6,2.9,3.3,4.2,5.2C220.7,209.3,228.1,217.8,237.9,224.3z M192.4,189.3
		c0.8-1.5,2.2-0.9,3.3-1.2c3.3-0.8,6.6-1.8,9.5-3.6c4.4-2.9,6.4-7.6,5.3-12.2c-1.1-4.4-5.3-7.7-10.6-7.9c-1.8-0.1-3.6,0.3-5.5,0.5
		c-1.7,0.1-1.9,0.9-1.9,2.4C192.4,174.5,192.4,181.9,192.4,189.3z"/>
	<path class="st3" d="M140.7,175.2c14.5,0.1,25.8,10.9,25.8,24.8c-0.1,14.4-12.1,25.7-27.4,25.6c-14.9-0.1-26-10.7-26-24.9
		C113.1,185.9,124.7,175.1,140.7,175.2z M124.7,199.1c-0.1,4.2,1,8,3.2,11.5c3.1,4.8,7.5,7.4,13.2,6.9c6-0.6,10.2-3.8,12.3-9.4
		c1.7-4.4,1.3-8.9-0.1-13.3c-2.4-8-8.9-12.3-16.2-11.1C129.6,184.6,124.7,190.7,124.7,199.1z"/>
	<path class="st4" d="M263.6,204.7c5.6-6.9,10-14,13.9-21.2c0.6-0.9,1-1.9,1.6-2.9c0.8-1.3,1.9-2.4,3.6-1.9c1.6,0.6,1.5,2.1,1.4,3.4
		c-0.2,2.1-1,4-2,5.8c-3.8,7.5-8.8,14-14.1,20.5c-0.9,1.1-2,1.9-1.2,3.8c3.3,7.6,6.4,15.3,9.5,22.9c1.4,3.2,3.3,5.6,7.4,5.3
		c1.1-0.1,2.3,0.2,2.6,1.5c0.3,1.6-0.9,2.2-2.1,2.5c-6.4,1.8-13.4,1.8-17.3-5.9c-1.7-3.2-3.1-6.6-4.5-10c-1.4-3.2-2.6-6.5-4.1-10.1
		c-2.9,2.7-5,5.6-6.9,8.7c-3.2,5.2-6.1,10.5-9.3,15.7c-0.8,1.4-1.7,3-3.6,2.2c-2-0.6-1.8-2.5-1.5-4.1c0.5-3.1,1.9-5.7,3.4-8.4
		c3.8-6.6,8.5-12.4,13.4-18.2c0.8-1,1.9-1.8,1.1-3.4c-3.2-7.3-6.3-14.7-9.4-22.1c-1.5-3.5-4.1-5.6-8.2-5.4c-1.2,0.1-2.7,0.1-2.8-1.6
		c-0.1-1.5,1-2.1,2.2-2.5c8.7-2.2,15-0.5,18.5,6.6c2.4,4.9,4.4,10,6.6,15C262.5,202.1,263,203.1,263.6,204.7z"/>
	<path class="st3" d="M349.8,211c4.1-8.7,8.1-17.4,12-26.1c1.1-2.4,1.3-4.8-1.5-6.3c-0.6-0.3-1.1-0.6-1-1.4c0.2-1,1.1-0.8,1.8-0.8
		c4.6,0,9.3,0,13.8,0c0.6,1.3-0.3,2.1-0.6,3c-6.9,14.7-14.1,29.4-20.9,44.2c-1,2.2-1.8,2.9-4.2,1.4c-4.5-2.6-7.9-6-9.9-10.8
		c-4.2-9.4-8.6-18.8-12.8-28.2c-1.4-3-3.3-5.4-6.2-6.9c-0.7-0.5-1.8-0.6-1.6-1.8c0.2-1.2,1.4-0.6,2.1-0.7c4-0.3,8.1,0.8,11.9-1
		c1.6-0.7,1.3,0.9,1.6,1.7c4.9,11.1,9.8,22.3,14.7,33.3C349.2,210.6,349.5,210.7,349.8,211z"/>
	<path class="st1" d="M99.3,196.8c0,6.1,0,12.2,0,18.2c0,2.7,0.3,5.4,2.9,7.1c0.6,0.3,1,0.8,0.8,1.5c-0.2,0.8-0.9,0.6-1.5,0.6
		c-5,0-10,0-15,0c-0.6,0-1.3,0.2-1.6-0.6c-0.3-0.7,0.3-1.1,0.8-1.5c3-1.9,3-4.9,3-7.9c0.1-9.4,0.1-18.8,0-28.1
		c0-2.9-0.1-5.6-2.8-7.5c-0.6-0.4-1.3-0.8-0.9-1.8c0.3-0.6,1-0.5,1.7-0.6c3.8-0.2,7.8,0.6,11.5-1.4c1.5-0.8,1.1,1,1.1,1.9
		C99.3,183.5,99.3,190.2,99.3,196.8z"/>
	<path class="st5" d="M310.7,196.8c0,5.6,0,11.2,0,16.9c0,3.3-0.2,6.7,3.1,8.8c0.3,0.2,0.6,0.8,0.6,1.2c-0.1,0.8-0.8,0.6-1.4,0.6
		c-5,0-10,0-15,0c-0.6,0-1.3,0.2-1.6-0.6c-0.3-0.7,0.2-1.1,0.6-1.5c2.9-1.9,3-4.8,3-7.8c0-9.4,0-18.8,0-28.1c0-3-0.1-5.9-3.1-7.8
		c-0.6-0.3-1-0.8-0.6-1.5c0.3-0.7,1-0.6,1.6-0.6c3.8-0.2,7.7,0.5,11.5-1.3c1.7-0.8,1.3,1.3,1.3,2.2
		C310.7,183.9,310.7,190.4,310.7,196.8C310.7,196.8,310.7,196.8,310.7,196.8z"/>
	<path class="st6" d="M304.9,157.8c3.7-0.1,6.9,3.1,7,6.9c0.1,3.8-3.1,7.1-6.8,7.2c-4.1,0.1-7.5-3.3-7.5-7.4
		C297.7,160.9,300.9,157.9,304.9,157.8z"/>
	<path class="st6" d="M86.1,164.5c0.1-3.6,3.4-6.8,7.3-6.8c3.7-0.1,6.9,3.2,6.9,7c0.1,4-3.3,7.3-7.2,7.2
		C89.4,171.9,86.1,168.4,86.1,164.5z"/>
</g>
</svg>
