<?xml version="1.0" encoding="utf-8"?>
<!-- Generator: Adobe Illustrator 28.3.0, SVG Export Plug-In . SVG Version: 6.00 Build 0)  -->
<svg version="1.1" id="Layer_1" xmlns="http://www.w3.org/2000/svg" xmlns:xlink="http://www.w3.org/1999/xlink" x="0px" y="0px"
	 viewBox="0 0 400 400" style="enable-background:new 0 0 400 400;" xml:space="preserve">
<style type="text/css">
	
		.st0{opacity:0.1;fill:#FFFFFF;stroke:#FFFFFF;stroke-width:18;stroke-linecap:round;stroke-linejoin:round;stroke-miterlimit:10;enable-background:new    ;}
	.st1{fill:#007DBD;}
</style>
<rect x="11.6" y="9.8" class="st0" width="376.9" height="381.4"/>
<g>
	<g>
		<rect x="342.5" y="116.8" class="st1" width="32.5" height="166.9"/>
		<rect x="302.1" y="116.8" class="st1" width="32.5" height="166.9"/>
		<path class="st1" d="M173.8,171.2c-1.8-24.6-22.3-59-72-59C59,112.1,25,141.9,25,200.5c0,57.7,32.1,87.4,76.3,87.4
			c41.8,0,65.6-25.6,72.5-61.3h-34.8c-4.1,20.4-17.7,31.6-37.2,31.6c-29.3,0-41.4-27-41.4-56.7c0-47.4,24.6-58.1,41.4-58.1
			c28.8,0,34.4,18.6,37.2,28.8h34.8V171.2z"/>
		<path class="st1" d="M296,225.1c0-56.7-33.4-68.3-58.1-68.3c-53.9,0-59.5,47.4-59.5,62.7c0,51.1,27,67.4,61.3,67.4
			c21.4,0,45.6-9.8,54.3-39.5h-32.9v0.1c-2.8,8.8-12.1,13.4-20.9,13.4c-26.5,0-28.4-20.9-28.8-30.2H296V225.1z M211.9,209.3
			c1.8-16.3,10.2-26.1,25.6-26.1c10.2,0,23.2,6.1,25.1,26.1H211.9z"/>
	</g>
</g>
</svg>
