<?xml version="1.0" encoding="utf-8"?>
<!-- Generator: Adobe Illustrator 28.3.0, SVG Export Plug-In . SVG Version: 6.00 Build 0)  -->
<svg version="1.1" id="Layer_1" xmlns="http://www.w3.org/2000/svg" xmlns:xlink="http://www.w3.org/1999/xlink" x="0px" y="0px"
	 viewBox="0 0 333 212" style="enable-background:new 0 0 333 212;" xml:space="preserve">
<style type="text/css">
	.st0{opacity:0.1;fill:#FFFFFF;stroke:#FFFFFF;stroke-width:8;stroke-linecap:round;stroke-linejoin:round;stroke-miterlimit:10;}
	.st1{fill:none;stroke:#000000;stroke-width:2;stroke-miterlimit:10;}
	.st2{font-family:'ArialMT';}
	.st3{font-size:9.1192px;}
	.st4{fill:none;stroke:#000000;stroke-miterlimit:10;}
</style>
<rect x="9" y="7.5" class="st0" width="315" height="197"/>
<path class="st1" d="M120.5-294.3"/>
<g>
	
		<image style="overflow:visible;enable-background:new    ;" width="2444" height="4262" xlink:href="1B8D440E.png"  transform="matrix(4.695373e-02 0 0 4.695373e-02 98.9846 6)">
	</image>
	<g>
		<circle cx="143.4" cy="32.2" r="1"/>
	</g>
	<g>
		<circle cx="150.5" cy="47.9" r="1"/>
	</g>
	<g>
		<circle cx="164" cy="44.9" r="1"/>
	</g>
	<circle cx="142.4" cy="91.5" r="1"/>
	<g>
		<circle cx="155.6" cy="140.1" r="1"/>
	</g>
	<g>
		<circle cx="147.5" cy="188.3" r="1"/>
	</g>
	<g>
		<circle cx="150.5" cy="193.3" r="1"/>
	</g>
	<text transform="matrix(1 0 0 1 59.6967 168.433)" class="st2 st3">Bladder</text>
	<text transform="matrix(1 0 0 1 75.5424 21.4974)" class="st2 st3">Eye</text>
	<text transform="matrix(1 0 0 1 63.3735 112.268)" class="st2 st3">Kidney</text>
	<text transform="matrix(1 0 0 1 70.9701 84.1854)" class="st2 st3">Lung</text>
	<text transform="matrix(1 0 0 1 52.7319 140.3505)" class="st2 st3">Pancreas</text>
	<text transform="matrix(1 0 0 1 57.2953 203.0389)" class="st2 st3">Prostate</text>
	<text transform="matrix(1 0 0 1 61.3393 56.1029)" class="st2 st3">Tongue</text>
	<text transform="matrix(1 0 0 1 219.9379 142.1664)" class="st2 st3">Large Intestine</text>
	<text transform="matrix(1 0 0 1 219.9379 113.705)" class="st2 st3">Liver</text>
	<text transform="matrix(1 0 0 1 219.9379 21.4974)" class="st2 st3">Salivary Gland</text>
	<text transform="matrix(1 0 0 1 219.9379 85.244)" class="st2 st3">Skin</text>
	<text transform="matrix(1 0 0 1 219.9379 170.6278)" class="st2 st3">Small Intestine</text>
	<text transform="matrix(1 0 0 1 219.9379 56.7821)" class="st2 st3">Trachea</text>
	<text transform="matrix(1 0 0 1 219.9379 203.0389)" class="st2 st3">Uterus</text>
	<g>
		<circle cx="138.4" cy="133.1" r="1"/>
	</g>
	<g>
		<circle cx="154.6" cy="67.7" r="1"/>
	</g>
	<g>
		<circle cx="159.1" cy="167.5" r="1"/>
	</g>
	<g>
		<circle cx="164.7" cy="146.2" r="1"/>
	</g>
	<g>
		<circle cx="161.2" cy="190.8" r="1"/>
	</g>
	<g>
		<circle cx="150" cy="120.1" r="1"/>
	</g>
	<polyline class="st4" points="98.8,18.9 125.2,18.9 143.4,32.2 	"/>
	<polyline class="st4" points="98.8,53 125.2,53.1 150.5,47.9 	"/>
	<polyline class="st4" points="213.9,18.9 184.5,18.9 164,44.9 	"/>
	<polyline class="st4" points="98.8,81.4 125.2,81.4 142.4,91.5 	"/>
	<polyline class="st4" points="213.9,53.5 184.5,53.5 154.6,67.7 	"/>
	<line class="st4" x1="213.9" y1="82.1" x2="203.6" y2="82.1"/>
	<polyline class="st4" points="98.8,109.7 125.2,109.7 138.4,133.1 	"/>
	<polyline class="st4" points="213.9,109.7 184.5,109.7 150,120.1 	"/>
	<polyline class="st4" points="98.8,137.9 125.2,137.9 155.6,140.1 	"/>
	<polyline class="st4" points="98.8,165.1 125.2,165.1 147.5,188.3 	"/>
	<polyline class="st4" points="98.8,200 125.2,200 150.5,193.3 	"/>
	<polyline class="st4" points="213.9,137.9 184.5,137.9 164.7,146.2 	"/>
	<polyline class="st4" points="213.9,166.7 184.5,166.7 159.1,167.5 	"/>
	<polyline class="st4" points="213.9,199.7 184.5,199.7 161.2,190.8 	"/>
</g>
</svg>
