<?xml version="1.0" encoding="utf-8"?>
<!-- Generator: Adobe Illustrator 28.3.0, SVG Export Plug-In . SVG Version: 6.00 Build 0)  -->
<svg version="1.1" id="Layer_1" xmlns="http://www.w3.org/2000/svg" xmlns:xlink="http://www.w3.org/1999/xlink" x="0px" y="0px"
	 viewBox="0 0 400 400" style="enable-background:new 0 0 400 400;" xml:space="preserve">
<style type="text/css">
	
		.st0{opacity:0.1;fill:#FFFFFF;stroke:#FFFFFF;stroke-width:18;stroke-linecap:round;stroke-linejoin:round;stroke-miterlimit:10;enable-background:new    ;}
</style>
<rect x="11.6" y="9.8" class="st0" width="376.9" height="381.4"/>
<g>
	<path d="M25,167.9h0.2c1.7,0.1,3.1,0.3,4.2,0.5c0.8,0.2,1.4,0.4,1.8,0.7c0.6,0.5,1,1.1,1.3,2.3c0.3,1.1,0.3,2.7,0.3,4.7v34.8
		c0,1.8,0,3.2-0.2,4.3c-0.1,0.8-0.4,1.4-0.6,1.8c-0.5,0.7-1.1,1.1-2.2,1.4c-1.1,0.3-2.6,0.5-4.6,0.6h-0.3v2.9h0.3h23.3V219h-0.2
		c-1.8-0.1-3.1-0.3-4.2-0.5c-0.8-0.2-1.4-0.4-1.8-0.7c-0.6-0.5-1.1-1.1-1.3-2.2c-0.3-1.1-0.3-2.7-0.3-4.8v-34.7c0-1.8,0-3.2,0.2-4.3
		c0.1-0.8,0.4-1.4,0.6-1.8c0.5-0.7,1.1-1.1,2.2-1.4s2.6-0.5,4.6-0.6h0.2V165H25V167.9z"/>
	<path d="M53,167.9h0.2c1.8,0.1,3.1,0.3,4.1,0.6c0.7,0.2,1.4,0.5,1.8,0.7c0.6,0.5,1,1.2,1.3,2.3c0.3,1.1,0.3,2.6,0.3,4.7v29.7
		c0,7.3-0.2,12.3-0.8,16.5c-0.9,4.9-3.4,8.8-8.2,11.2l-0.2,0.1l1.2,2.9l0.2-0.1c2.3-0.7,5.2-2.4,8.2-5.1c2.9-2.7,4.8-5.5,6-9.1
		s1.6-7.9,1.6-13.4v-32.7c0-1.8,0-3.2,0.2-4.3c0.1-0.8,0.3-1.4,0.6-1.9c0.5-0.7,1-1.1,2-1.4c1-0.3,2.4-0.5,4.3-0.6h0.2v-0.2V165h-23
		L53,167.9L53,167.9z"/>
	<path d="M106.4,163.6L106.4,163.6c-9.3,0-16.7,3.7-21.7,9.3s-7.8,13.3-7.8,21.1c0,8.5,3.1,15.8,8.3,20.9c5.2,5.2,12.3,8.3,20.2,8.3
		c8,0,15.4-2.9,20.6-8.2c5.3-5.2,8.7-12.9,8.7-22.4c0-8.8-3.3-16-8.6-21.1C120.9,166.6,113.8,163.6,106.4,163.6z M107.1,219.6
		c-6.1,0-11.3-2.9-15-7.9c-3.8-5-6-12-6-20.1s2.2-14.2,5.6-18.3c3.4-4.1,7.9-6.1,12.7-6.1h0.1c5.6,0,10.8,2.4,14.6,7.1
		c3.8,4.7,6.2,11.7,6.2,20.8c0,8.3-2.1,14.5-5.4,18.5C116.5,217.7,112,219.6,107.1,219.6z"/>
	<path d="M167.2,195.4c-2.9-2.7-6.7-4.6-10.1-6.4s-6.2-3.3-8-5.3c-1.8-1.9-2.9-4.2-2.9-7.4c0-2.3,0.7-4.6,2.2-6.4
		c1.6-1.8,3.9-2.9,7.2-2.9c3.7,0,6.1,1.5,7.8,3.6c1.7,2.1,2.7,5,3.4,7.7l0.1,0.2h0.2l2.8-0.5v-0.3c-0.7-5.4-1.1-8.8-1.5-12v-0.2
		h-0.2c-3.3-1-7-2-11.1-2c-5.6,0-10.2,1.8-13.4,4.7s-4.8,6.8-4.8,11.1c0,5,2.2,8.6,5.2,11.3c2.9,2.7,6.5,4.5,9.3,6.1
		c3.2,1.8,6.1,3.3,8,5.3c1.9,1.9,3.1,4.2,3.1,7.5c0,3.1-0.9,5.7-2.7,7.5c-1.7,1.8-4.2,2.8-7.6,2.8c-4.4,0-7.6-2.1-9.9-5
		s-3.5-6.4-4.1-8.9l-0.1-0.3l-3,0.7v0.2c0.3,2.1,0.7,5,1.2,7.6c0.5,2.7,0.8,5,1.2,5.9v0.1h0.1c0.8,0.5,2.2,1,4.4,1.8
		c2.1,0.6,5,1.3,8.6,1.3c5.8,0,10.7-1.8,14.2-4.9c3.4-3,5.4-7.2,5.4-11.8C172.3,201.6,170.2,198.1,167.2,195.4L167.2,195.4z"/>
	<path d="M195.5,196.9v-0.6v-0.1h-0.1c-0.8-0.1-1.2-0.1-1.4-0.3c-0.2-0.2-0.3-0.6-0.3-1.5v-7.7c0-0.8,0-1.3,0.3-1.5
		c0.2-0.2,0.6-0.3,1.4-0.4h0.1v-0.6v-0.1h-5.3v0.6v0.1h0.1c0.8,0.1,1.2,0.1,1.4,0.4c0.2,0.2,0.3,0.6,0.3,1.5v7.7
		c0,0.8,0,1.2-0.3,1.5c-0.2,0.2-0.6,0.3-1.4,0.4h-0.1v0.6v0.1h0.1L195.5,196.9L195.5,196.9z"/>
	<path d="M200.5,196.3L200.5,196.3L200.5,196.3c-0.6-0.2-0.9-0.2-1.1-0.4c-0.1-0.2-0.2-0.5-0.2-1.1v-4.5c0.6-0.5,1.3-0.9,2-0.9
		c0.6,0,1,0.2,1.3,0.6s0.4,0.9,0.4,1.6v3.2c0,0.6,0,1-0.2,1.2c-0.1,0.2-0.5,0.3-1,0.3h-0.1v0.6v0.1h0.1h4.1v-0.6v-0.1h-0.1
		c-0.6-0.1-0.8-0.1-1-0.3c-0.1-0.2-0.2-0.5-0.2-1.1V191c0-0.9-0.3-1.7-0.7-2.2c-0.5-0.6-1.1-0.8-1.9-0.8c-0.6,0-1.1,0.3-1.7,0.6
		c-0.5,0.3-0.8,0.6-1.1,0.8v-1.5l-0.2,0.1c-0.8,0.4-1.8,0.6-2.7,0.8h-0.1v0.6v0.1h0.1c0.6,0.1,0.8,0.2,0.9,0.3
		c0.1,0.2,0.2,0.5,0.2,1.1v4c0,0.6,0,0.9-0.2,1.1c-0.2,0.2-0.5,0.3-1.1,0.3H196v0.6v0.1h4.4L200.5,196.3L200.5,196.3z"/>
	<path d="M210.3,196.9l1.4-0.7l-0.2-0.6v-0.1l-0.1,0.1c-0.3,0.1-0.6,0.3-1.1,0.3c-0.3,0-0.5-0.1-0.6-0.3c-0.2-0.3-0.4-0.6-0.4-1.5
		v-4.9h2l0,0c0.2-0.1,0.3-0.4,0.3-0.6s0-0.3-0.2-0.4l0,0h-2.2v-2.7l-0.4-0.1h-0.1l-1.3,1.4v1.4h-0.7l0,0l-0.6,0.6l0.1,0.3v0.1h1.3
		v5.5c0,0.8,0.2,1.4,0.6,1.7c0.4,0.4,0.8,0.6,1.5,0.6C209.7,197.1,210,197.1,210.3,196.9z"/>
	<path d="M213.2,195.9c0.6,0.8,1.7,1.3,2.9,1.3c0.6,0,2-0.4,3.2-1.9v-0.1V195l-0.3-0.5l-0.1-0.1l-0.1,0.1c-0.7,0.6-1.4,0.9-2.2,0.9
		c-1.3,0-2.8-1-2.8-3.5c2.3-0.1,4.7-0.3,5-0.4c0.2,0,0.4-0.1,0.5-0.3c0.1-0.1,0.1-0.3,0.1-0.5c0-1.6-1.4-3-3-3l0,0
		c-1,0-2.1,0.6-2.9,1.5c-0.8,0.8-1.3,2.1-1.3,3.4C212.1,194,212.5,195,213.2,195.9L213.2,195.9z M215.9,188.9L215.9,188.9
		c1,0,1.7,0.8,1.7,1.8l0,0c0,0.1,0,0.2-0.1,0.2c0,0-0.1,0.1-0.3,0.1c-1.1,0-2.1,0.1-3.1,0.1C214.3,189.6,215.1,188.9,215.9,188.9z"
		/>
	<path d="M226.1,190.1c0.4-0.2,0.6-0.6,0.6-1c0-0.6-0.6-1.1-1.2-1.1c-0.9,0-1.7,0.9-2.3,1.8v-1.9l-0.2,0.1c-0.9,0.4-1.8,0.6-2.7,0.7
		h-0.1v0.6v0.1h0.1c0.6,0.1,0.8,0.1,0.9,0.3c0.1,0.2,0.2,0.5,0.2,1.1v4.1c0,0.6,0,0.9-0.2,1.1c-0.2,0.2-0.5,0.3-1,0.3h-0.1v0.6v0.1
		h4.7v-0.6V196h-0.1c-0.7-0.1-1.1-0.1-1.3-0.3c-0.2-0.2-0.2-0.5-0.2-1.1v-3.5c0.5-1.1,1-1.6,1.5-1.6c0.3,0,0.5,0.1,0.7,0.4
		c0.1,0.1,0.2,0.1,0.3,0.1C225.9,190.1,226,190.1,226.1,190.1z"/>
	<path d="M231.8,196.3L231.8,196.3L231.8,196.3c-0.6-0.2-0.9-0.2-1.1-0.4c-0.1-0.2-0.2-0.5-0.2-1.1v-4.5c0.6-0.5,1.3-0.9,2-0.9
		c0.6,0,1,0.2,1.3,0.6c0.3,0.4,0.4,0.9,0.4,1.6v3.2c0,0.6,0,1-0.2,1.2c-0.1,0.2-0.5,0.3-1,0.3h-0.1v0.6v0.1h0.1h4.1v-0.6v-0.1H237
		c-0.6-0.1-0.8-0.1-1-0.3c-0.1-0.2-0.2-0.5-0.2-1.1V191c0-0.9-0.3-1.7-0.7-2.2c-0.5-0.6-1.1-0.8-1.9-0.8c-0.6,0-1.1,0.3-1.7,0.6
		c-0.5,0.3-0.8,0.6-1.1,0.8v-1.5l-0.2,0.1c-0.8,0.4-1.8,0.6-2.7,0.8h-0.1v0.6v0.1h0.1c0.6,0.1,0.8,0.2,0.9,0.3
		c0.1,0.2,0.2,0.5,0.2,1.1v4c0,0.6,0,0.9-0.2,1.1c-0.2,0.2-0.5,0.3-1.1,0.3h-0.1v0.6v0.1h4.4L231.8,196.3L231.8,196.3z"/>
	<path d="M241.4,192c-0.6,0.2-1.2,0.5-1.7,0.6c-1.1,0.4-1.7,1-1.7,2c0,1.3,1,2.5,2.4,2.5c0.4,0,0.7-0.2,1.1-0.5
		c0.4-0.2,0.7-0.5,1.1-0.7c0.1,0.3,0.2,0.6,0.5,0.8c0.3,0.2,0.6,0.4,1,0.4l0,0l0,0l1.8-1l-0.3-0.6v-0.1l-0.1,0.1
		c-0.2,0.1-0.5,0.2-0.6,0.2c-0.1,0-0.3-0.1-0.4-0.2c-0.1-0.2-0.2-0.5-0.2-0.8v-3.6c0-1-0.2-1.8-0.9-2.5c-0.5-0.4-1.1-0.6-1.7-0.6
		l0,0l0,0c-1.1,0.3-2.4,1-2.9,1.4c-0.2,0.1-0.4,0.3-0.5,0.4c-0.1,0.1-0.2,0.3-0.2,0.5c0,0.3,0.2,0.5,0.3,0.6
		c0.2,0.2,0.4,0.3,0.6,0.3c0.3,0,0.6-0.2,0.6-0.6c0.2-0.6,0.4-1,0.6-1.2c0.2-0.2,0.5-0.4,0.7-0.4c0.5,0,0.8,0.2,1.1,0.6
		c0.3,0.4,0.5,0.8,0.5,1.6v0.3C242.4,191.6,241.9,191.8,241.4,192z M242.5,195.1c-0.4,0.4-1,0.6-1.5,0.6c-0.6,0-1.3-0.5-1.3-1.4
		c0-0.4,0.1-0.6,0.3-0.7c0.2-0.2,0.5-0.4,0.8-0.6c0.4-0.2,1.1-0.6,1.6-0.7L242.5,195.1L242.5,195.1z"/>
	<path d="M245.8,189.2h1.3v5.5c0,0.8,0.2,1.4,0.6,1.8c0.4,0.4,0.8,0.6,1.5,0.6c0.2,0,0.6-0.1,0.8-0.3l1.4-0.7l-0.2-0.6v-0.1
		l-0.1,0.1c-0.3,0.1-0.6,0.3-1.1,0.3c-0.3,0-0.5-0.1-0.6-0.3c-0.2-0.3-0.4-0.6-0.4-1.5v-4.9h2l0,0c0.2-0.1,0.3-0.4,0.3-0.6
		s0-0.3-0.2-0.4l0,0h-2.2v-2.7l-0.4-0.1h-0.1l-1.3,1.4v1.4h-0.7l0,0l-0.6,0.6L245.8,189.2L245.8,189.2z"/>
	<path d="M256.3,196.9v-0.6v-0.1h-0.1c-0.6-0.1-0.9-0.1-1.1-0.3c-0.2-0.2-0.2-0.5-0.2-1.2v-6.8l-0.2,0.1c-0.8,0.4-1.7,0.6-2.8,0.7
		h-0.1v0.6v0.1h0.1c0.6,0.1,0.8,0.2,1,0.3c0.1,0.2,0.2,0.5,0.2,1v4c0,0.6,0,1-0.2,1.2c-0.2,0.2-0.5,0.3-1.1,0.3h-0.1v0.6v0.1h0.1
		L256.3,196.9L256.3,196.9z"/>
	<path d="M254,186.3c0.6,0,1.1-0.6,1.1-1.1c0-0.6-0.5-1.1-1.1-1.1l0,0c-0.6,0-1.1,0.5-1.1,1.1C252.9,185.7,253.4,186.3,254,186.3z"
		/>
	<path d="M261.4,187.9L261.4,187.9c-0.9,0-2,0.4-2.9,1.1c-0.8,0.8-1.5,1.9-1.5,3.6c0,1.1,0.4,2.2,1.1,3s1.8,1.4,3.2,1.4
		c1,0,2-0.4,2.9-1.2c0.8-0.8,1.4-1.9,1.4-3.6c0-1.2-0.5-2.3-1.2-3.1C263.7,188.5,262.6,187.9,261.4,187.9L261.4,187.9z M263.1,195.6
		c-0.4,0.6-0.9,0.7-1.5,0.7c-0.7,0-1.4-0.5-1.8-1.2c-0.5-0.7-0.7-1.7-0.7-2.9c0-1.1,0.3-1.9,0.6-2.5c0.4-0.6,0.9-0.8,1.5-0.8l0,0
		c0.8,0,1.4,0.5,1.8,1.1c0.5,0.7,0.6,1.8,0.6,2.9C263.6,194.1,263.5,195,263.1,195.6z"/>
	<path d="M270.8,196.3L270.8,196.3L270.8,196.3c-0.6-0.2-0.9-0.2-1.1-0.4c-0.1-0.2-0.2-0.5-0.2-1.1v-4.5c0.6-0.5,1.3-0.9,2-0.9
		c0.6,0,1,0.2,1.3,0.6s0.4,0.9,0.4,1.6v3.2c0,0.6,0,1-0.2,1.2c-0.1,0.2-0.5,0.3-1,0.3h-0.1v0.6v0.1h0.1h4.1v-0.6v-0.1h-0.1
		c-0.6-0.1-0.8-0.1-1-0.3c-0.1-0.2-0.2-0.5-0.2-1.1V191c0-0.9-0.3-1.7-0.7-2.2c-0.5-0.6-1.1-0.8-1.9-0.8c-0.6,0-1.1,0.3-1.7,0.6
		c-0.5,0.3-0.8,0.6-1.1,0.8v-1.5l-0.2,0.1c-0.8,0.4-1.8,0.6-2.7,0.8h-0.1v0.6v0.1h0.1c0.6,0.1,0.8,0.2,0.9,0.3
		c0.1,0.2,0.2,0.5,0.2,1.1v4c0,0.6,0,0.9-0.2,1.1c-0.2,0.2-0.5,0.3-1.1,0.3h-0.1v0.6v0.1h4.4L270.8,196.3L270.8,196.3z"/>
	<path d="M281.8,196c0.1,0.3,0.2,0.6,0.5,0.8c0.3,0.2,0.6,0.4,1,0.4l0,0l0,0l1.8-1l-0.2-0.6v-0.1l-0.1,0.1c-0.2,0.1-0.5,0.2-0.6,0.2
		c-0.1,0-0.3-0.1-0.4-0.2c-0.1-0.2-0.2-0.5-0.2-0.8v-3.6c0-1-0.2-1.8-0.9-2.5c-0.5-0.4-1.1-0.6-1.7-0.6l0,0l0,0
		c-1.1,0.3-2.4,1-2.9,1.4c-0.2,0.1-0.4,0.3-0.5,0.4c-0.1,0.1-0.2,0.3-0.2,0.5c0,0.3,0.2,0.5,0.3,0.6c0.2,0.2,0.4,0.3,0.6,0.3
		c0.3,0,0.6-0.2,0.6-0.6c0.2-0.6,0.4-1,0.6-1.2c0.2-0.2,0.5-0.4,0.7-0.4c0.5,0,0.8,0.2,1.1,0.6c0.3,0.4,0.5,0.8,0.5,1.6v0.3
		c-0.2,0.2-0.6,0.4-1.2,0.6c-0.6,0.2-1.2,0.5-1.8,0.6c-1.1,0.4-1.7,1-1.7,2c0,1.3,1,2.5,2.4,2.5c0.4,0,0.7-0.2,1.1-0.5
		C281,196.4,281.4,196.1,281.8,196L281.8,196z M280.1,193.1c0.4-0.2,1.1-0.6,1.6-0.7v2.8c-0.4,0.4-1,0.6-1.5,0.6
		c-0.6,0-1.3-0.5-1.3-1.4c0-0.4,0.1-0.6,0.3-0.7C279.4,193.4,279.7,193.2,280.1,193.1z"/>
	<path d="M289.7,196.9v-0.6v-0.1h-0.1c-0.6-0.1-0.9-0.1-1.1-0.3c-0.2-0.2-0.2-0.5-0.2-1.1v-12h-0.2c-0.6,0.3-1.8,0.6-2.9,0.6h-0.1
		v0.6v0.1h0.1c0.6,0.1,0.9,0.1,1.1,0.3c0.2,0.1,0.2,0.5,0.2,1.1v9.2c0,0.6-0.1,0.9-0.2,1.1c-0.2,0.2-0.5,0.3-1.1,0.3h-0.1v0.6v0.1
		h0.1L289.7,196.9L289.7,196.9z"/>
	<path d="M294.8,200.1L294.8,200.1c0.6-0.2,1.3-0.6,1.9-1.2c1.3-1.2,1.7-2.6,1.7-5.1v-7.3c0-0.8,0-1.2,0.3-1.5
		c0.2-0.2,0.6-0.3,1.3-0.4h0.1v-0.1v-0.6V184h-5.2v0.6v0.1h0.1c0.8,0.1,1.2,0.1,1.4,0.4c0.2,0.2,0.3,0.6,0.3,1.5v6.6
		c0,1.7,0,2.8-0.2,3.7c-0.2,1.1-0.7,1.9-1.8,2.5h-0.1L294.8,200.1L294.8,200.1z"/>
	<path d="M304.9,197.1c1,0,2-0.4,2.9-1.2c0.8-0.8,1.4-1.9,1.4-3.6c0-1.2-0.5-2.3-1.2-3.1c-0.7-0.8-1.8-1.3-3-1.3l0,0
		c-0.9,0-2,0.4-2.9,1.1c-0.8,0.8-1.5,1.9-1.5,3.6c0,1.1,0.4,2.2,1.1,3C302.5,196.6,303.6,197.1,304.9,197.1L304.9,197.1z
		 M303.2,189.7c0.4-0.6,0.9-0.8,1.5-0.8l0,0c0.8,0,1.4,0.5,1.8,1.1c0.5,0.7,0.6,1.8,0.6,2.9c0,1.3-0.3,2.2-0.6,2.8
		c-0.4,0.6-0.9,0.7-1.5,0.7c-0.7,0-1.4-0.5-1.8-1.2c-0.5-0.7-0.7-1.7-0.7-2.9C302.6,191.1,302.9,190.2,303.2,189.7z"/>
	<path d="M310.6,189.1c0.3,0,0.4,0.1,0.5,0.2c0.1,0.1,0.1,0.4,0.1,0.9v3.8c0,1.1,0.3,1.8,0.7,2.3c0.5,0.5,1.1,0.7,1.8,0.7
		c0.6,0,1-0.2,1.6-0.5c0.5-0.3,0.9-0.6,1.3-0.9v1.2l0.2,0.2l0,0h0.1c0.4-0.1,0.8-0.3,1.4-0.4c0.6-0.1,1.1-0.3,1.5-0.3h0.1v-0.1v-0.6
		v-0.1h-0.6c-0.4,0-0.6-0.1-0.6-0.2c-0.1-0.1-0.2-0.4-0.2-0.8V188h-0.1c-0.3,0.1-0.7,0.1-1.3,0.2c-0.6,0-1.2,0.1-1.8,0.1H315v0.6
		v0.1l0.8,0.1c0.3,0,0.5,0.1,0.6,0.3c0.1,0.2,0.2,0.4,0.2,0.9v4.5c-0.6,0.6-1.4,0.8-2,0.8c-0.5,0-0.8-0.1-1.1-0.5
		c-0.3-0.3-0.5-0.8-0.5-1.7v-2.6c0-1.3,0-2.2,0.1-2.8v-0.2H313c-0.3,0.1-0.8,0.1-1.4,0.2c-0.6,0-1,0.1-1.4,0.1h-0.1v0.6v0.1
		L310.6,189.1z"/>
	<path d="M325,196.3L325,196.3L325,196.3c-0.8-0.2-1.2-0.2-1.4-0.4s-0.2-0.5-0.2-1.1v-3.5c0.5-1.1,1-1.6,1.5-1.6
		c0.3,0,0.5,0.1,0.7,0.4c0.1,0.1,0.2,0.1,0.3,0.1s0.2,0,0.3-0.1c0.4-0.2,0.6-0.6,0.6-1c0-0.6-0.6-1.1-1.2-1.1
		c-0.9,0-1.7,0.9-2.3,1.8v-1.9l-0.2,0.1c-0.9,0.4-1.8,0.6-2.7,0.7h-0.1v0.6v0.1h0.1c0.6,0.1,0.8,0.1,0.9,0.3
		c0.1,0.2,0.2,0.5,0.2,1.1v4.1c0,0.6,0,0.9-0.2,1.1c-0.2,0.2-0.5,0.3-1,0.3h-0.1v0.6v0.1h4.7L325,196.3z"/>
	<path d="M331.9,196.3L331.9,196.3L331.9,196.3c-0.6-0.2-0.9-0.2-1.1-0.4c-0.1-0.2-0.2-0.5-0.2-1.1v-4.5c0.6-0.5,1.3-0.9,2-0.9
		c0.6,0,1,0.2,1.3,0.6s0.4,0.9,0.4,1.6v3.2c0,0.6,0,1-0.2,1.2c-0.1,0.2-0.5,0.3-1,0.3H333v0.6v0.1h0.1h4.1v-0.6v-0.1h-0.1
		c-0.6-0.1-0.8-0.1-1-0.3c-0.1-0.2-0.2-0.5-0.2-1.1V191c0-0.9-0.3-1.7-0.7-2.2c-0.5-0.6-1.1-0.8-1.9-0.8c-0.6,0-1.1,0.3-1.7,0.6
		c-0.5,0.3-0.8,0.6-1.1,0.8v-1.5l-0.2,0.1c-0.8,0.4-1.7,0.6-2.7,0.8h-0.1v0.6v0.1h0.1c0.6,0.1,0.8,0.2,0.9,0.3
		c0.1,0.2,0.2,0.5,0.2,1.1v4c0,0.6,0,0.9-0.2,1.1c-0.2,0.2-0.5,0.3-1.1,0.3h-0.1v0.6v0.1h4.4L331.9,196.3L331.9,196.3z"/>
	<path d="M341.6,192c-0.6,0.2-1.2,0.5-1.8,0.6c-1.1,0.4-1.7,1-1.7,2c0,1.3,1,2.5,2.4,2.5c0.4,0,0.7-0.2,1.1-0.5
		c0.4-0.2,0.7-0.5,1.1-0.7c0.1,0.3,0.2,0.6,0.5,0.8c0.3,0.2,0.6,0.4,1,0.4l0,0l0,0l1.8-1l-0.3-0.6v-0.1l-0.1,0.1
		c-0.2,0.1-0.5,0.2-0.6,0.2c-0.1,0-0.3-0.1-0.4-0.2c-0.1-0.2-0.2-0.5-0.2-0.8v-3.6c0-1-0.2-1.8-0.9-2.5c-0.5-0.4-1.1-0.6-1.7-0.6
		l0,0l0,0c-1.1,0.3-2.4,1-2.9,1.4c-0.2,0.1-0.4,0.3-0.5,0.4s-0.2,0.3-0.2,0.5c0,0.3,0.2,0.5,0.3,0.6c0.2,0.2,0.4,0.3,0.6,0.3
		c0.3,0,0.6-0.2,0.6-0.6c0.2-0.6,0.4-1,0.6-1.2c0.2-0.2,0.5-0.4,0.7-0.4c0.5,0,0.8,0.2,1.1,0.6c0.3,0.4,0.5,0.8,0.5,1.6v0.3
		C342.5,191.6,342,191.8,341.6,192z M342.7,195.1c-0.4,0.4-1,0.6-1.5,0.6c-0.6,0-1.3-0.5-1.3-1.4c0-0.4,0.1-0.6,0.3-0.7
		c0.2-0.2,0.5-0.4,0.8-0.6c0.4-0.2,1.1-0.6,1.6-0.7L342.7,195.1L342.7,195.1z"/>
	<path d="M350.7,196.9v-0.6v-0.1h-0.1c-0.6-0.1-0.9-0.1-1.1-0.3c-0.2-0.2-0.2-0.5-0.2-1.1v-12h-0.2c-0.6,0.3-1.8,0.6-2.9,0.6h-0.1
		v0.6v0.1h0.1c0.6,0.1,0.9,0.1,1.1,0.3c0.2,0.1,0.2,0.5,0.2,1.1v9.2c0,0.6-0.1,0.9-0.2,1.1c-0.2,0.2-0.5,0.3-1.1,0.3h-0.1v0.6v0.1
		h0.1L350.7,196.9L350.7,196.9z"/>
	<path d="M364.4,192.5c0-1.2-0.5-2.3-1.2-3.1c-0.7-0.8-1.8-1.3-3-1.3l0,0c-0.9,0-2,0.4-2.9,1.1c-0.8,0.8-1.5,1.9-1.5,3.6
		c0,1.1,0.4,2.2,1.1,3c0.7,0.8,1.8,1.4,3.2,1.4c1,0,2-0.4,2.9-1.2C363.8,195.2,364.4,194,364.4,192.5L364.4,192.5z M361.7,195.6
		c-0.4,0.6-0.9,0.7-1.5,0.7c-0.7,0-1.4-0.5-1.8-1.2c-0.5-0.7-0.7-1.7-0.7-2.9c0-1.1,0.3-1.9,0.6-2.5c0.4-0.6,0.9-0.8,1.5-0.8l0,0
		c0.8,0,1.4,0.5,1.8,1.1c0.5,0.7,0.6,1.8,0.6,2.9C362.4,194.1,362.1,195,361.7,195.6L361.7,195.6z"/>
	<path d="M365.2,189.2h1.3v5.6c0,0.6,0,0.9-0.2,1.1c-0.2,0.2-0.5,0.3-1.1,0.3h-0.1v0.6v0.1h4.8v-0.6v-0.1h-0.1
		c-0.7-0.1-1.2-0.2-1.4-0.3c-0.2-0.2-0.3-0.5-0.3-1.2v-5.4h2l0,0c0.2-0.1,0.3-0.5,0.3-0.6c0-0.1,0-0.2-0.1-0.3l0,0h-2.2v-0.6v-0.2
		c0-1.6,0.2-2.4,0.5-2.8c0.2-0.3,0.5-0.6,0.9-0.6c0.6,0,1.1,0.4,1.5,0.6c0.1,0.1,0.3,0.2,0.4,0.2c0.1,0,0.2,0,0.3-0.1
		c0.2-0.2,0.4-0.4,0.4-0.6c0-0.1,0.1-0.2,0.1-0.3c0-0.2-0.1-0.4-0.2-0.5c-0.4-0.4-0.9-0.6-1.7-0.6l0,0l0,0c-0.8,0.1-1.5,0.5-2.2,1
		c-1.1,0.9-1.4,1.9-1.6,2.3c-0.2,0.5-0.2,1-0.2,1.7v0.3h-0.8l0,0L365,189L365.2,189.2L365.2,189.2z"/>
	<path d="M198.8,203.1L198.8,203.1c-2.9,0-5.3,1.2-7,2.9c-1.7,1.8-2.5,4.2-2.5,6.8c0,2.8,1,5.1,2.7,6.7s4,2.7,6.4,2.7
		c2.6,0,5-0.9,6.6-2.6c1.8-1.7,2.8-4.1,2.8-7.2c0-2.8-1.1-5.2-2.8-6.8C203.4,204.1,201.2,203.1,198.8,203.1z M199,221
		c-1.9,0-3.6-0.9-4.8-2.5c-1.2-1.6-1.9-3.9-1.9-6.4c0-5.2,2.8-7.7,5.8-7.8l0,0c3.6,0,6.6,3,6.6,8.9C204.8,218.5,202.1,221,199,221z"
		/>
	<path d="M223.7,219.8c-0.7-0.7-1.3-1.5-2.2-2.9c-0.8-1.2-1.9-3-2.4-3.9c2-0.9,3.5-2.4,3.5-4.8c0-1.7-0.7-3-1.9-3.8
		c-1.1-0.7-2.5-0.9-4.5-0.9h-7v0.9v0.1h0.1c1.1,0.1,1.7,0.2,1.9,0.5c0.3,0.3,0.4,0.9,0.4,2.1v11.1c0,1.2-0.1,1.8-0.4,2.1
		c-0.3,0.3-0.9,0.4-2,0.5H209v0.8v0.1h7.5V221v-0.1h-0.1c-1.1-0.1-1.7-0.2-1.9-0.6c-0.3-0.3-0.4-0.9-0.4-2.1v-4.3h0.8
		c0.7,0,1.2,0.1,1.5,0.3c0.4,0.2,0.6,0.5,0.8,0.8c0.8,1.4,1.8,3,2.9,4.4c1.3,1.8,2.5,2.5,4.6,2.6c0.3,0,0.6,0,1,0h0.1v-0.1l0.1-0.7
		v-0.1h-0.1C225,220.9,224.4,220.6,223.7,219.8z M214,206.1c0-0.4,0-0.6,0.1-0.8c0-0.2,0.1-0.3,0.2-0.3c0.2-0.2,0.6-0.3,1.5-0.3
		c1,0,2,0.3,2.8,0.9s1.2,1.7,1.2,3.1s-0.5,2.6-1.5,3.4c-0.6,0.6-1.6,0.8-2.9,0.8h-1.2L214,206.1L214,206.1z"/>
	<path d="M242.4,220.3c-0.4-0.4-0.7-1-1.1-2.2c-1.7-4.8-3.7-10.1-5.3-14.9V203l-1,0.3l-5.8,14.6c-0.5,1.2-0.8,1.9-1.2,2.2
		c-0.4,0.4-0.9,0.5-1.8,0.6H226v0.8v0.1h6.3v-0.8v-0.1h-0.1c-0.7-0.1-1.2-0.2-1.6-0.3c-0.3-0.2-0.4-0.3-0.4-0.6
		c0-0.3,0.1-0.6,0.3-1.2c0.4-1.1,0.7-2.3,1.2-3.5h5.8c0.6,1.7,1.1,3.1,1.5,4.2c0.1,0.3,0.1,0.5,0.1,0.6c0,0.3-0.1,0.4-0.4,0.5
		c-0.3,0.1-0.7,0.2-1.4,0.3h-0.1v0.8v0.1h0.1h6.9v-0.8v-0.1h-0.1C243.3,220.7,242.7,220.6,242.4,220.3L242.4,220.3z M236.9,213.8
		h-4.8c0.8-2.2,1.7-4.5,2.5-6.7L236.9,213.8z"/>
	<path d="M258.5,217L258.5,217L258.5,217c-0.5,1.4-1,2.2-1.5,2.8c-0.6,0.6-1.5,0.8-3,0.8c-1.2,0-2.1-0.1-2.6-0.4
		c-0.2-0.1-0.4-0.3-0.5-0.6c-0.1-0.4-0.1-0.8-0.1-1.6v-11c0-1.2,0.1-1.8,0.4-2.1c0.3-0.3,0.9-0.4,1.9-0.5h0.1v-0.8v-0.1h-7.5v0.9
		v0.1h0.1c1.1,0.1,1.7,0.2,2,0.5c0.3,0.3,0.4,0.9,0.4,2.1v11.1c0,1.2-0.1,1.8-0.4,2.1c-0.3,0.3-0.9,0.5-2.1,0.6h-0.1v0.8v0.1h12.8
		v-0.1c0.3-0.8,0.8-3.5,1-4.4v-0.1h-0.1L258.5,217z"/>
	<path d="M276.6,213.3c-0.9-0.8-2.1-1.5-3.2-2c-1.1-0.6-1.9-1.1-2.6-1.7c-0.6-0.6-0.9-1.4-0.9-2.3c0-1.5,0.9-2.9,2.9-2.9
		c1.2,0,1.9,0.5,2.5,1.1s0.8,1.6,1.1,2.5v0.1h0.1l0.8-0.2h0.1v-0.1c-0.2-1.8-0.4-2.9-0.5-3.9v-0.1h-0.1c-1.1-0.4-2.2-0.6-3.5-0.6
		c-1.8,0-3.3,0.6-4.3,1.5s-1.6,2.2-1.6,3.6c0,1.6,0.7,2.8,1.7,3.6c0.9,0.8,2.1,1.5,2.9,1.9c1,0.6,1.9,1.1,2.6,1.7
		c0.6,0.6,1,1.4,1,2.4c0,1-0.3,1.8-0.8,2.4c-0.6,0.6-1.4,0.8-2.4,0.8c-1.4,0-2.4-0.6-3.1-1.6c-0.7-0.9-1.1-2-1.4-2.9v-0.1l-1,0.3
		v0.1c0.2,1.4,0.6,3.7,0.7,4.3l0,0l0,0c0.3,0.2,0.7,0.4,1.4,0.6s1.6,0.5,2.8,0.5c1.8,0,3.4-0.6,4.5-1.6c1.1-1,1.8-2.3,1.8-3.8
		C278.3,215.3,277.6,214.1,276.6,213.3L276.6,213.3z"/>
	<path d="M296.1,216.8L296.1,216.8L296.1,216.8c-1.5,2.9-2.9,4.3-5.7,4.3c-4.1,0-7.2-3.5-7.2-8.7c0-4.2,2.5-8.1,7-8.1
		c1.5,0,2.7,0.3,3.5,0.9c0.8,0.6,1.5,1.7,1.8,3.1v0.1l1-0.3v-0.1c-0.2-1.5-0.4-2.7-0.6-4.2v-0.1H296c-0.7-0.1-2.7-0.7-5-0.7
		c-3.1,0-5.8,1-7.7,2.7c-1.9,1.7-3,4.1-3,7.2c0,2.2,0.7,4.6,2.4,6.4c1.7,1.8,4.1,2.9,7.6,2.9c2,0,4.3-0.6,5.2-0.7l0,0l0,0
		c0.6-0.9,1.2-3,1.6-4.3V217h-0.1L296.1,216.8z"/>
	<path d="M298.4,204.4L298.4,204.4L298.4,204.4c1.2,0.2,1.8,0.3,2.1,0.6c0.3,0.3,0.4,0.9,0.4,2.1v11.1c0,1.2-0.1,1.7-0.4,2.1
		c-0.3,0.3-0.9,0.4-2,0.5h-0.1v0.8v0.1h0.1h7.5v-0.8v-0.1l0,0c-1.1-0.1-1.7-0.2-2-0.5c-0.3-0.3-0.4-0.9-0.4-2.1v-11.1
		c0-1.2,0.1-1.8,0.4-2.1c0.3-0.3,0.9-0.4,2-0.5h0.1v-0.8v-0.1h-7.6L298.4,204.4L298.4,204.4z"/>
	<path d="M321.2,217.1L321.2,217.1L321.2,217.1c-0.5,1.2-1,2.1-1.5,2.7c-0.3,0.4-0.6,0.6-1.1,0.7c-0.6,0.2-1.2,0.2-2.3,0.2
		c-1.4,0-2.4,0-2.9-0.4c-0.3-0.2-0.4-0.4-0.5-0.7s-0.2-0.8-0.2-1.5V213h2.6c1.2,0,1.8,0,2.2,0.3c0.4,0.3,0.5,0.7,0.6,1.7v0.1h0.9
		h0.1v-5.5h-0.9h-0.1v0.1c-0.2,0.9-0.3,1.4-0.6,1.7c-0.4,0.3-1,0.3-2.3,0.3h-2.5v-6.3c0-0.4,0-0.6,0.1-0.6c0.1-0.1,0.3-0.1,0.7-0.1
		h2.1c1,0,1.7,0,2.1,0.2c0.5,0.1,0.7,0.3,0.9,0.6c0.4,0.6,0.6,1.2,0.8,2.3v0.1l0.9-0.1h0.1v-0.1c-0.1-1.5-0.2-3.3-0.2-4v-0.1h-12.6
		v0.8v0.1h0.1c1.1,0.1,1.7,0.2,1.9,0.5c0.3,0.3,0.4,0.9,0.4,2.2v11.1c0,1.1-0.1,1.8-0.4,2c-0.3,0.4-1,0.5-2.3,0.6h-0.1v0.8v0.1h13.6
		v-0.1c0.3-0.8,0.8-3.5,1-4.4V217H322L321.2,217.1z"/>
	<path d="M335.8,204.4L335.8,204.4L335.8,204.4c1.1,0.2,1.7,0.3,2.1,0.6c0.5,0.3,0.6,0.6,0.6,1.2c0.1,0.7,0.2,2,0.2,4.6v6.6
		l-11.6-13.9H323v0.9v0.1h0.1c1.3,0.1,1.8,0.3,2.4,1c0.3,0.4,0.4,0.6,0.5,0.8c0.1,0.4,0.1,0.9,0.1,1.9v6.1c0,2.5-0.1,3.9-0.2,4.8
		c-0.1,0.6-0.3,1-0.6,1.3c-0.4,0.3-0.9,0.4-1.8,0.5h-0.1v0.8v0.1h6.8V221v-0.1H330c-0.9-0.1-1.6-0.2-1.9-0.5s-0.6-0.6-0.6-1.4
		c-0.1-0.8-0.2-2.1-0.2-4.7v-6.7l11.8,14.5h0.9h0.1v-11.3c0-2.6,0.1-3.9,0.2-4.7c0.1-0.6,0.3-0.9,0.6-1.2c0.4-0.3,0.9-0.4,1.7-0.4
		h0.1v-0.1v-0.8v-0.1h-6.8L335.8,204.4L335.8,204.4z"/>
	<path d="M358.7,216.8L358.7,216.8L358.7,216.8c-1.5,2.9-2.9,4.3-5.7,4.3c-4.1,0-7.2-3.5-7.2-8.7c0-4.2,2.5-8.1,7-8.1
		c1.5,0,2.7,0.3,3.5,0.9c0.8,0.6,1.5,1.7,1.8,3.1v0.1l1-0.3v-0.1c-0.2-1.5-0.4-2.7-0.6-4.2v-0.1h-0.1c-0.7-0.1-2.7-0.7-5-0.7
		c-3.1,0-5.8,1-7.7,2.7c-1.9,1.7-3,4.1-3,7.2c0,2.2,0.7,4.6,2.4,6.4c1.7,1.7,4.1,2.9,7.6,2.9c2,0,4.3-0.6,5.2-0.7l0,0l0,0
		c0.6-0.9,1.2-3,1.6-4.3V217h-0.1L358.7,216.8z"/>
	<path d="M374.9,217.2l-0.8-0.1H374v0.1c-0.4,1.1-0.9,2-1.4,2.6c-0.3,0.4-0.6,0.6-1.1,0.7c-0.6,0.2-1.2,0.2-2.3,0.2
		c-1.4,0-2.4,0-2.9-0.4c-0.3-0.2-0.4-0.4-0.5-0.7c-0.1-0.4-0.2-0.8-0.2-1.5V213h2.6c1.2,0,1.8,0,2.2,0.3c0.4,0.3,0.5,0.7,0.6,1.7
		v0.1h0.9h0.1v-5.5h-0.9h-0.1v0.1c-0.2,0.9-0.3,1.4-0.6,1.7c-0.4,0.3-1,0.3-2.3,0.3h-2.5v-6.3c0-0.4,0-0.6,0.1-0.6
		c0.1-0.1,0.3-0.1,0.7-0.1h2.1c1,0,1.7,0,2.1,0.2c0.5,0.1,0.7,0.3,0.9,0.6c0.4,0.6,0.6,1.2,0.8,2.3v0.1l0.9-0.1h0.1v-0.1
		c-0.1-1.5-0.2-3.3-0.2-4v-0.1h-12.6v0.8v0.1h0.1c1.1,0.1,1.7,0.2,1.9,0.5c0.3,0.3,0.4,0.9,0.4,2.2v11.1c0,1.1-0.1,1.8-0.4,2
		c-0.3,0.4-1,0.5-2.3,0.6h-0.1v0.8v0.1H374v-0.1C374.3,220.7,374.7,218.1,374.9,217.2L374.9,217.2L374.9,217.2z"/>
</g>
</svg>
