<?xml version="1.0" encoding="utf-8"?>
<!-- Generator: Adobe Illustrator 28.3.0, SVG Export Plug-In . SVG Version: 6.00 Build 0)  -->
<svg version="1.1" id="Layer_1" xmlns="http://www.w3.org/2000/svg" xmlns:xlink="http://www.w3.org/1999/xlink" x="0px" y="0px"
	 viewBox="0 0 400 400" style="enable-background:new 0 0 400 400;" xml:space="preserve">
<style type="text/css">
	
		.st0{opacity:0.1;fill:#FFFFFF;stroke:#FFFFFF;stroke-width:18;stroke-linecap:round;stroke-linejoin:round;stroke-miterlimit:10;enable-background:new    ;}
	.st1{fill:#253C69;}
</style>
<rect x="11.6" y="9.8" class="st0" width="376.9" height="381.4"/>
<g>
	<g>
		<path class="st1" d="M189.1,140.8c0,2.9,0,5.9,0,8.8c0,27.4,0,54.8,0,82.2c0,2.1,0.2,4.2,0.7,6.3c0.9,2.9,2.5,4.1,5.5,4.3
			c1.8,0.1,3.7,0.3,5.5,0.2c2.3-0.1,2.2,1.3,2.1,2.8c0,1.6,0.2,3.2-2.1,3.1c-1.2,0-2.4,0-3.5,0c-7.7,0-15.5,0-23.3,0
			c-2.9,0-2.9-0.3-3-3.5c-0.1-2.6,1.5-2.6,3.3-2.5c1.2,0.1,2.4,0.1,3.5-0.1c3.6-0.5,5.3-2,5.8-5.6c0.4-2.1,0.6-4.3,0.6-6.5
			c0-29.5,0-59.1,0-88.6c0-4.1,0-4.1-4.2-4.1c-2.2,0-4.4,0-6.5,0c-2.9,0.1-2.2-2.1-2.3-3.8c-0.2-1.8,0.5-2.5,2.4-2.5
			c12.1,0.1,24.1,0.1,36.2,0c2.2,0,3.3,0.6,3.9,2.9c4,16.8,8,33.6,12.1,50.4c1.2,4.8,2.4,9.6,4.1,14.4c1-4,2-7.9,3-11.9
			c4.4-17.7,8.9-35.5,13.4-53.3c0.5-2,1.5-2.7,3.5-2.7c11.4,0.1,22.9,0.1,34.4,0c2.5,0,3.1,0.9,3.2,3.2c0,2.4-0.9,3.1-3.1,3
			c-2.4-0.1-4.7,0-7.1,0c-1.4,0-2,0.6-2,2c0,0.6,0,1.2,0,1.8c0,32.4,0,64.8,0,97.1c0,4,0.2,4.1,4.1,4.1c1.8,0,3.7-0.2,5.5-0.3
			c2.1-0.1,2.5,1.1,2.5,2.9c-0.1,1.7,0.1,3.2-2.4,3.2c-15-0.1-30-0.1-45.1,0c-2.1,0-2.3-1.2-2.3-2.8c0-1.7-0.3-3.3,2.3-3.3
			c2.8,0.1,5.5,0,8.3,0.1c1.7,0.1,2.5-0.3,2.5-2.1c-0.1-32.8-0.1-65.6-0.1-98.4c0-0.1-0.1-0.2-0.3-0.6c-2.1,8-4.1,15.8-6.1,23.5
			c-5.8,22.4-11.6,44.7-17.4,67.1c-1.2,4.7-2.6,9.4-3.6,14.2c-0.6,2.5-2.1,2.4-4,2.4c-1.8,0.1-2.9-0.6-3.4-2.5
			c-6.4-25.5-12.8-51.1-19.3-76.5c-2.3-9.3-4.7-18.6-7-27.9C189.4,141.4,189.3,141.1,189.1,140.8
			C189.3,140.8,189.2,140.8,189.1,140.8z"/>
		<path class="st1" d="M340.3,186.5c0.8,1.1,1.8,1.2,2.7,1.5c13.1,4.7,19.7,14.1,19.7,28c0,6.9-0.2,13.8,0.9,20.6
			c0.8,4.8,2.8,6.2,7.5,5.3c1.2-0.2,2.9-1.4,3.6,0.7c0.8,2.1,0.2,3.4-1.8,4.4c-5.5,2.9-11.2,4.6-17.5,3.5
			c-6.3-1.1-10.3-4.7-12.5-10.4c-1.9-5-2.7-10.2-3.1-15.6c-0.6-7.1-0.1-14.2-1-21.2c-0.3-1.9-0.5-3.9-0.9-5.7
			c-1.7-6.2-4.4-8.3-10.9-8.4c-5.2-0.1-5.2-0.1-5.2,5c0,14.9,0,29.9,0,44.8c0,3.5,0,3.5,3.4,3.6c1.7,0,3.4,0.2,5.1,0.1
			c1.8-0.1,2.2,0.8,2.1,2.3s0.6,3.5-2,3.5c-1,0-2,0-3,0c-11.2,0-22.4-0.1-33.6,0.1c-2.9,0-2.9-1.4-3.1-3.6c-0.2-2.5,1.4-2.5,3-2.6
			c1-0.1,2,0,3,0c3.7,0,3.7,0,3.7-3.6c0-32.4,0-65,0-97.4c0-3.8,0-3.8-3.8-3.8c-1,0-2,0-3,0c-2.9,0-3.2-0.4-3.3-3.4
			c-0.1-2.3,0.9-2.9,3-2.9c15.7,0.1,31.3-0.1,47.1,0.1c14.6,0.1,24.8,10,25.4,24.7c0.1,2.7,0.2,5.4-0.2,8.1
			c-1.2,9.4-6.9,15.3-15.2,19C347.3,184.8,344,185.7,340.3,186.5z M342.4,159.1c0-5.3,0.1-9.7,0-14.2c-0.1-4-1.5-5.6-5.3-6.6
			c-4.1-1-8.4-0.3-12.6-0.6c-2.1-0.1-2.8,0.7-2.8,2.8c0.1,7.2,0,14.3,0,21.5c0,6.2,0,12.3,0,18.4c0,1.5,0.3,2.7,2.2,2.7
			c3.7,0.1,7.4-0.1,11.1-1c3.8-0.9,6.1-3.3,6.8-7.2C343,169.4,342,163.8,342.4,159.1z"/>
		<path class="st1" d="M137.5,187.6c5.9,0.9,11.1,2.4,15.6,5.7c9.4,7,12.5,16.6,11.6,27.8c-0.6,7.7-3.9,14.3-9.5,19.8
			c-5.2,5.2-11.4,7.5-18.4,7.6c-15.6,0.3-31.2,0.1-46.8,0.1c-2.5,0-2.6-1.3-2.7-3.2c-0.1-2.1,0.6-2.8,2.8-2.7
			c7.1,0.2,5.8-0.4,5.8-5.9c0-31.8,0-63.6,0-95.4c0-3.8,0-3.8-3.8-3.8c-0.6,0-1.2,0-1.8,0c-3.2,0-4.6-2.1-3.3-5.1
			c0.6-1.4,1.8-1.1,2.9-1.1c8.8,0,17.5,0,26.3,0c6.3,0,12.4-0.1,18.7,0.1c12.5,0.3,22.9,9.2,25.3,21.5c2.9,15.2-4.4,27.9-19,33.2
			C140.1,186.6,139.1,187,137.5,187.6z M117.7,216.5c0,7.7,0.1,15.5,0,23.2c0,2.1,0.7,3,2.9,3c4.2-0.1,8.4-0.1,12.6-0.3
			c1.9-0.1,3.5-1,4.8-2.5c1.4-1.7,2.1-3.7,2.3-5.8c1-10.8,1-21.6-0.3-32.3c-0.9-7.2-3.7-9.6-10.9-10.8c-2.9-0.5-5.7-0.2-8.6-0.4
			c-2.2-0.2-2.9,0.8-2.9,2.9C117.7,201.4,117.7,208.9,117.7,216.5z M117.7,161.3c0,6.9,0,13.8,0,20.7c0,1.9,0.6,2.9,2.6,2.7
			c2.3-0.2,4.5-0.2,6.8-0.3c7.1-0.3,9.5-4.2,10.2-9.8c1.4-10,1.3-20,0.4-30c-0.5-5-2.9-6.8-7.9-7c-3-0.1-6.1,0.1-9.1-0.1
			c-2.2-0.1-2.9,0.7-2.9,2.9C117.7,147.5,117.7,154.4,117.7,161.3z"/>
		<path class="st1" d="M49.3,193.6c0-17.4,0-34.9,0-52.4c0-3.5,0-3.5-3.5-3.5c-1,0-2-0.1-3,0c-2.3,0.2-3.2-0.6-3.1-3
			c0.1-3.2,0.1-3.2,3.2-3.2c11.4,0,22.8,0.1,34.2,0c2.9,0,2.9,1.3,3,3.5c0.1,2.4-1,2.8-3,2.8c-6.5,0-5.8-0.9-5.8,5.8
			c0,28.5,0.1,57.1-0.1,85.5c-0.1,8.2-0.8,16.5-3.9,24.3c-3.8,9.5-11,14.3-20.9,14.9c-3.5,0.2-7.1,0.7-10.5-0.6
			c-7.2-2.9-10-9-10.7-16.1c-0.4-4-0.2-7.9,2.1-11.5c1.8-2.7,4.1-4.2,7.3-4.2c3.5,0.1,5.8,2.1,7.3,5.1c2.8,5.5,1.8,11.2-0.1,16.8
			c-0.5,1.3-1.7,2.8,0.6,3.6c1.8,0.7,3.7,0.7,4.9-1.3c0.7-1.3,0.9-2.7,1.2-4.1c1.1-7.2,1-14.5,1-21.7
			C49.3,220.5,49.3,207.1,49.3,193.6z"/>
	</g>
</g>
</svg>
