<?xml version="1.0" encoding="utf-8"?>
<!-- Generator: Adobe Illustrator 28.3.0, SVG Export Plug-In . SVG Version: 6.00 Build 0)  -->
<svg version="1.1" id="Layer_1" xmlns="http://www.w3.org/2000/svg" xmlns:xlink="http://www.w3.org/1999/xlink" x="0px" y="0px"
	 viewBox="0 0 400 400" style="enable-background:new 0 0 400 400;" xml:space="preserve">
<style type="text/css">
	
		.st0{opacity:0.1;fill:#FFFFFF;stroke:#FFFFFF;stroke-width:18;stroke-linecap:round;stroke-linejoin:round;stroke-miterlimit:10;enable-background:new    ;}
</style>
<rect x="11.6" y="9.8" class="st0" width="376.9" height="381.4"/>
<path d="M263.4,203.1h60.7c36.9,0,42.6,15.4,42.6,41.7c0,10.4,0.6,27.1,3.4,33.9h5c-2.9-4.4-3.8-23.5-3.8-33.2
	c0-25.8-4.4-41-31.9-44.7v-0.4c22.6-5,34.9-20.3,34.5-41.5c-0.6-27.8-16-41.3-49.1-41.3H259v161.1h4.4v-75.5h-0.1V203.1z M263.4,122
	h62.4c30.7,0,43.3,13.4,43.6,36.3c0.3,28.2-22.1,40.2-45.8,40.2h-60.3L263.4,122L263.4,122z M127.3,122h50.8
	c32.2,0,65.2,15.8,65.2,76c0,51.9-31.9,76-69.9,76h-46.1L127.3,122L127.3,122z M122.8,278.7h49.4c38.9,0,75.5-22.8,75.5-80.6
	c0-63.5-36.6-80.6-68.5-80.6h-56.4V278.7L122.8,278.7z M107.5,233.3c0,33.9-14,44.7-39.7,44.7c-24.9,0-38.3-13.1-38.3-39.5v-9.7
	h-4.4v9.7c0,25.1,12.4,44,42.9,44c32.5,0,44.2-18.9,44.2-45.8V117.6h-4.4v115.8H107.5z"/>
</svg>
