<?xml version="1.0" encoding="utf-8"?>
<!-- Generator: Adobe Illustrator 28.3.0, SVG Export Plug-In . SVG Version: 6.00 Build 0)  -->
<svg version="1.1" id="Layer_1" xmlns="http://www.w3.org/2000/svg" xmlns:xlink="http://www.w3.org/1999/xlink" x="0px" y="0px"
	 viewBox="0 0 400 400" style="enable-background:new 0 0 400 400;" xml:space="preserve">
<style type="text/css">
	
		.st0{opacity:0.1;fill:#FFFFFF;stroke:#FFFFFF;stroke-width:18;stroke-linecap:round;stroke-linejoin:round;stroke-miterlimit:10;enable-background:new    ;}
</style>
<rect x="11.6" y="9.8" class="st0" width="376.9" height="381.4"/>
<path d="M268.8,203.4h65.9c40.1,0,46.3,16.7,46.3,45.3c0,11.3,0.7,29.4,3.7,36.8h5.4c-3.2-4.8-4.1-25.5-4.1-36
	c0-28-4.8-44.5-34.6-48.5v-0.4c24.5-5.4,37.9-22,37.5-45.1c-0.7-30.2-17.4-44.8-53.3-44.8h-71.5v174.9h4.8v-82h-0.1V203.4z
	 M268.8,115.3h67.8c33.3,0,47,14.6,47.3,39.4c0.3,30.6-24,43.7-49.7,43.7h-65.5v-83.1H268.8z M121.1,115.3h55.1
	c35,0,70.8,17.1,70.8,82.5c0,56.4-34.6,82.5-75.9,82.5h-50L121.1,115.3L121.1,115.3z M116.2,285.4h53.6c42.2,0,82-24.8,82-87.5
	c0-68.9-39.7-87.5-74.4-87.5h-61.2V285.4L116.2,285.4z M99.6,236.2c0,36.8-15.2,48.5-43.1,48.5c-27,0-41.6-14.2-41.6-42.9v-10.5
	h-4.8v10.5c0,27.2,13.5,47.8,46.6,47.8c35.3,0,48-20.5,48-49.7V110.5h-4.8v125.7H99.6z"/>
</svg>
