<?xml version="1.0" encoding="utf-8"?>
<!-- Generator: Adobe Illustrator 28.3.0, SVG Export Plug-In . SVG Version: 6.00 Build 0)  -->
<svg version="1.1" id="Layer_1" xmlns="http://www.w3.org/2000/svg" xmlns:xlink="http://www.w3.org/1999/xlink" x="0px" y="0px"
	 viewBox="0 0 400 400" style="enable-background:new 0 0 400 400;" xml:space="preserve">
<style type="text/css">
	
		.st0{opacity:0.1;fill:#FFFFFF;stroke:#FFFFFF;stroke-width:18;stroke-linecap:round;stroke-linejoin:round;stroke-miterlimit:10;enable-background:new    ;}
	.st1{fill:#272525;}
	.st2{fill:#2E5095;}
</style>
<rect x="11.1" y="9.8" class="st0" width="376.9" height="381.4"/>
<g>
	<path class="st1" d="M118.4,170c0-5.1,0.3-8.9,0.7-10.5c0.5-2.1,1.2-2.6,5.1-3l3.5-0.4v-0.8H94.9v0.8l3.5,0.4c4,0.4,4.8,0.9,5.3,3
		c0.4,1.6,0.7,5.5,0.7,10.5l-0.1,53c0,7.5-0.3,13.2-1,16c-0.3,1.2-0.7,2.3-1.5,2.3c-0.4,0-0.7-0.3-1.3-1.1l-4.5-6.9
		c-1-1.3-1.9-2.1-3.3-2.1c-3.6,0.1-6.5,3-6.5,6.6c0,4.4,3.7,7,8.7,7c9.6,0,15.7-7.9,19.3-15.2c3.4-6.8,4.4-13.2,4.4-22.8L118.4,170
		L118.4,170z M189.9,205.6l-0.7-0.3c-3.8,6.3-6.4,10-8,11.6c-1.3,1.2-2.7,2.2-4.3,3c-4.3,2.1-11.9,2.8-18,2.8
		c-2.8,0-3.7-0.7-4.3-2.8c-0.4-1.7-0.6-4.9-0.6-10.1v-20l7.2,0.3c6.1,0.2,8.5,1.1,10.1,2.8c1.4,1.4,2.2,3.4,3.1,6.5l0.9,2.9l0.8-0.2
		l0.4-26.2l-0.7-0.2l-0.9,2.9c-0.6,2.3-1.8,4.5-3.4,6.3c-2.4,2.3-5.2,2.8-10.7,3.1l-6.9,0.3v-31.3l9.2,0.5
		c8.4,0.5,12.6,2.3,15.2,4.8c2,2.1,3.5,5.1,6.3,11.7l0.7-0.2l0.3-18.4h-55.1v0.8l3.6,0.4c3.8,0.4,4.5,0.9,5.1,3
		c0.4,1.6,0.7,5.6,0.7,10.5v39.4c0,5.1-0.3,8.9-0.7,10.5c-0.5,2.1-1.2,2.6-5.1,3l-3.6,0.4v0.8H186L189.9,205.6L189.9,205.6z
		 M255.8,166.9l1.4,46.7c0.2,7.5,0,8.9-5.7,9.5l-2.7,0.3v0.8h31.8v-0.8l-3.3-0.4c-4.1-0.4-4.8-1.2-5.3-3.3c-0.5-2.1-0.8-5.2-1-9.9
		l-1.4-39.4c-0.3-9,0.1-11.9,8.4-13.7l2.1-0.5v-0.8h-23.7c-0.9,5.5-2.5,10.8-4.6,15.9L237.4,206l-15.7-38.7c-1.8-4.8-3.2-8.8-3.6-12
		h-23.6v0.7l2.6,0.8c4.5,1.4,6.6,3.5,8.7,8.2l-2.9,45.2c-0.5,8.7-1.5,10.7-7.8,12.4l-3.6,1v0.6h25.6v-0.6l-3.6-1
		c-6.2-1.8-6.5-3.2-6.5-12.1l0.3-41.8l24,55.9h1.3L255.8,166.9L255.8,166.9z"/>
	<path class="st1" d="M292.5,171.3h1.7v8.8c0,3.1-2.2,3.8-3.6,3.8c-1.7,0.1-3.1-1-3.3-2.7l1.6-0.4c0.1,0.9,0.8,1.5,1.7,1.5
		c1.6,0,1.9-1.4,1.9-2.8L292.5,171.3z"/>
	<path class="st1" d="M300.6,175.2c2.4,0,4.3,2,4.3,4.4c0,2.4-2,4.3-4.4,4.3c-2.4,0-4.3-2-4.3-4.3
		C296.2,177.1,298.1,175.2,300.6,175.2C300.5,175.2,300.6,175.2,300.6,175.2z M300.6,182.4c1.5,0,2.7-1.1,2.7-2.6c0-0.1,0-0.2,0-0.3
		c0.1-1.5-1.1-2.8-2.6-2.8s-2.8,1.1-2.8,2.6c0,0.1,0,0.2,0,0.3c-0.1,1.5,1,2.7,2.4,2.8C300.4,182.4,300.5,182.4,300.6,182.4z"/>
	<path class="st1" d="M314.2,183.7h-1.6v-1.3h0c-0.5,1-1.6,1.5-2.7,1.5c-1.6,0-3-1-3-3.1v-5.3h1.6v4.9c0,1.5,0.9,2.1,1.9,2.1
		c1.3,0,2.3-0.8,2.3-2.7v-4.3h1.6L314.2,183.7z"/>
	<path class="st1" d="M316.6,175.4h1.6v1.3l0,0c0.5-0.9,1.4-1.5,2.5-1.5c0.2,0,0.5,0,0.7,0.1l-0.1,1.7c-0.2-0.1-0.5-0.1-0.8-0.1
		c-1.5,0-2.4,0.8-2.4,2.6v4.2h-1.6L316.6,175.4z"/>
	<path class="st1" d="M323,175.4h1.6v1.3l0,0c0.5-1,1.6-1.5,2.7-1.5c1.6,0,3,1,3,3.1v5.3h-1.6v-4.9c0-1.5-0.9-2.1-1.9-2.1
		c-1.3,0-2.3,0.8-2.3,2.7v4.3H323L323,175.4z"/>
	<path class="st1" d="M332.7,176.4c0.9-0.8,2.1-1.2,3.3-1.2c2.4,0,3.4,1.3,3.4,2.7v4.2c0,0.5,0,1,0.1,1.5h-1.4c0-0.4,0-0.8,0-1.3h0
		c-0.6,1-1.7,1.5-2.9,1.4c-1.5,0-2.8-0.9-2.8-2.5c0-2.1,2-2.8,4.5-2.8h1.1v-0.3c0-1-0.8-1.8-1.8-1.7c-0.1,0-0.1,0-0.2,0
		c-0.9,0-1.7,0.3-2.3,0.9L332.7,176.4z M337.1,179.7c-1.5,0-3.3,0.3-3.3,1.6c0,0.9,0.7,1.3,1.8,1.3c1.2,0.1,2.3-0.9,2.3-2.1
		c0-0.1,0-0.2,0-0.3v-0.5H337.1z"/>
	<path class="st1" d="M341.8,170.5h1.6v13.2h-1.6V170.5z"/>
	<path class="st1" d="M353.3,175.2c2.4,0,4.3,2,4.3,4.4c0,2.4-2,4.3-4.4,4.3c-2.4,0-4.3-2-4.3-4.3
		C348.9,177.1,350.8,175.2,353.3,175.2C353.2,175.2,353.3,175.2,353.3,175.2z M353.3,182.4c1.5,0,2.7-1.1,2.7-2.6c0-0.1,0-0.2,0-0.3
		c0.1-1.5-1.1-2.8-2.6-2.8c-1.5-0.1-2.8,1.1-2.8,2.6c0,0.1,0,0.2,0,0.3c-0.1,1.5,1,2.7,2.4,2.8C353.1,182.4,353.2,182.4,353.3,182.4
		z"/>
	<path class="st1" d="M360.2,176.7h-1.8v-1.3h1.8v-1.8c0-2.2,0.8-3.3,2.8-3.3c0.4,0,0.8,0,1.2,0.1l-0.2,1.4
		c-0.3-0.1-0.6-0.2-0.9-0.2c-1.2,0-1.3,0.7-1.3,1.9v1.9h1.9v1.3h-1.9v6.9h-1.6L360.2,176.7z"/>
	<path class="st1" d="M288.6,191.7h7.9v1.6h-6.3v3.7h5.8v1.6h-5.8v3.9h6.6v1.6h-8.3V191.7z"/>
	<path class="st1" d="M301.1,199.6l-2.9-3.9h2l2,2.9l2-2.9h1.9l-2.8,3.8l3.3,4.4h-2l-2.4-3.5l-2.4,3.5h-1.9L301.1,199.6z"/>
	<path class="st1" d="M307.9,195.7h1.6v1.2h0c0.7-0.9,1.7-1.4,2.8-1.4c2.4,0,4.3,1.9,4.3,4.3s-1.9,4.3-4.3,4.3
		c-1.1,0-2.2-0.5-2.8-1.4h0v6.1h-1.6L307.9,195.7z M309.4,199.9c0.1,1.5,1.3,2.7,2.8,2.6c1.5-0.1,2.7-1.3,2.6-2.8
		c-0.1-1.5-1.3-2.6-2.7-2.6c-1.5,0-2.7,1.1-2.7,2.6C309.4,199.7,309.4,199.8,309.4,199.9L309.4,199.9z"/>
	<path class="st1" d="M319.7,200.4c0,1.4,1.3,2.4,2.8,2.4c0.9,0,1.7-0.5,2.3-1.2l1.2,0.9c-0.9,1.1-2.2,1.8-3.7,1.7
		c-2.3,0.1-4.2-1.7-4.3-3.9c0-0.1,0-0.3,0-0.4c-0.1-2.3,1.7-4.2,4-4.3c0.1,0,0.2,0,0.2,0c2.9,0,4,2.2,4,4.3v0.6H319.7z M324.6,199.2
		c0.1-1.2-0.8-2.3-2-2.4c-0.1,0-0.2,0-0.3,0c-1.4,0-2.5,1-2.6,2.4H324.6z"/>
	<path class="st1" d="M328.1,195.7h1.6v1.3h0c0.5-0.9,1.4-1.5,2.5-1.5c0.2,0,0.5,0,0.7,0.1l-0.1,1.7c-0.2-0.1-0.5-0.1-0.8-0.1
		c-1.5,0-2.4,0.8-2.4,2.6v4.1h-1.6L328.1,195.7z"/>
	<path class="st1" d="M335.5,191.6c0.6,0,1.1,0.6,1.1,1.2c0,0.6-0.5,1-1.1,1.1c-0.6,0-1.2-0.4-1.2-1.1s0.4-1.2,1.1-1.2
		C335.4,191.6,335.4,191.6,335.5,191.6z M334.7,195.7h1.6v8.2h-1.6V195.7z"/>
	<path class="st1" d="M338.7,195.7h1.4v1.3h0c0.5-0.9,1.6-1.5,2.6-1.5c1.1-0.1,2.1,0.5,2.6,1.5c0.5-0.9,1.5-1.5,2.6-1.5
		c2.5,0,3.1,1.8,3.1,3.7v4.8h-1.6v-4.6c0-1.3-0.3-2.4-1.8-2.4s-2.1,1-2.1,2.5v4.5h-1.6v-4.3c0-1.6-0.2-2.7-1.7-2.7
		c-1.1,0-2.1,0.9-2.1,2.7v4.3h-1.6L338.7,195.7z"/>
	<path class="st1" d="M354.7,200.4c0,1.4,1.3,2.4,2.8,2.4c0.9,0,1.7-0.5,2.3-1.2l1.2,0.9c-0.9,1.1-2.2,1.8-3.7,1.7
		c-2.3,0.1-4.2-1.6-4.3-3.9c0-0.1,0-0.3,0-0.4c-0.1-2.3,1.7-4.2,4-4.3c0.1,0,0.2,0,0.3,0c2.9,0,4,2.2,4,4.3v0.6H354.7z M359.7,199.2
		c0.1-1.2-0.8-2.3-2-2.4c-0.1,0-0.2,0-0.3,0c-1.4,0-2.5,1-2.6,2.4H359.7z"/>
	<path class="st1" d="M363.2,195.7h1.6v1.3h0c0.5-1,1.6-1.5,2.7-1.5c1.6,0,3,1,3,3.1v5.3h-1.6v-4.9c0-1.5-0.9-2.1-1.9-2.1
		c-1.3,0-2.3,0.8-2.3,2.7v4.3h-1.6L363.2,195.7z"/>
	<path class="st1" d="M377.3,197.1H375v3.7c0,0.9,0,1.9,1.2,1.9c0.4,0,0.8-0.1,1.1-0.2v1.4c-0.4,0.2-0.9,0.3-1.4,0.3
		c-2.4,0-2.5-1.5-2.5-2.8v-4.3h-1.8v-1.4h1.8v-2.3h1.6v2.3h2.2L377.3,197.1z"/>
	<path class="st1" d="M379.3,196.8c0.9-0.8,2.1-1.2,3.3-1.2c2.4,0,3.4,1.3,3.4,2.7v4.2c0,0.5,0,1,0.1,1.5h-1.4c0-0.4,0-0.8,0-1.3h0
		c-0.6,1-1.7,1.5-2.9,1.5c-1.5,0-2.8-0.9-2.8-2.5c0-2.1,2-2.8,4.5-2.8h1.1v-0.3c0-1-0.8-1.8-1.8-1.7c-0.1,0-0.1,0-0.2,0
		c-0.9,0-1.7,0.3-2.3,0.9L379.3,196.8z M383.8,200c-1.5,0-3.3,0.3-3.3,1.6c0,0.9,0.7,1.3,1.8,1.3c1.2,0.1,2.3-0.9,2.3-2.1
		c0-0.1,0-0.2,0-0.3V200L383.8,200z"/>
	<path class="st1" d="M388.4,190.8h1.6V204h-1.6V190.8z"/>
	<path class="st1" d="M288.5,212h2.5l3.9,9.3h0.1l3.9-9.3h2.5v12.3h-1.7v-10.1h0l-4.1,10.1h-1.1l-4.1-10.1l0,0v10.1h-1.7L288.5,212z
		"/>
	<path class="st1" d="M305.1,220.8c0.1,1.4,1.3,2.5,2.8,2.4c0,0,0,0,0,0c0.9,0,1.7-0.5,2.3-1.2l1.2,0.9c-0.9,1.1-2.2,1.8-3.6,1.7
		c-2.3,0.1-4.2-1.7-4.3-3.9c0-0.1,0-0.3,0-0.4c-0.1-2.3,1.7-4.2,4-4.3c0.1,0,0.2,0,0.2,0c2.9,0,4,2.2,4,4.3v0.6H305.1z M310.1,219.5
		c0.1-1.2-0.8-2.3-2-2.4c-0.1,0-0.2,0-0.3,0c-1.4,0-2.5,1-2.6,2.4H310.1z"/>
	<path class="st1" d="M321.9,224.3h-1.6v-1.2h0c-0.7,0.9-1.7,1.4-2.8,1.4c-2.4,0-4.3-1.9-4.3-4.3s1.9-4.3,4.3-4.3l0,0
		c1.1,0,2.2,0.5,2.8,1.4h0v-6.1h1.6V224.3z M320.3,220.2c-0.1-1.5-1.3-2.7-2.8-2.6s-2.7,1.3-2.6,2.8c0.1,1.4,1.3,2.6,2.7,2.6
		c1.5,0,2.7-1.1,2.7-2.6C320.3,220.4,320.3,220.3,320.3,220.2L320.3,220.2z"/>
	<path class="st1" d="M325.1,212c0.6,0,1.2,0.5,1.2,1.2s-0.5,1.2-1.2,1.2c-0.6,0-1.2-0.5-1.2-1.2l0,0C324,212.5,324.5,212,325.1,212
		z M324.4,216.1h1.6v8.2h-1.6V216.1z"/>
	<path class="st1" d="M334.3,218.3c-0.5-0.6-1.3-0.9-2.1-0.9c-1.7,0-2.6,1.4-2.6,2.9c-0.1,1.5,1,2.7,2.5,2.8c0.1,0,0.1,0,0.2,0
		c0.8,0,1.5-0.3,2-0.9l1.1,1.1c-0.8,0.9-1.9,1.3-3.1,1.3c-2.4-0.1-4.2-2.1-4.1-4.5c0.1-2.2,1.9-4,4.1-4.1c1.2,0,2.3,0.4,3.2,1.3
		L334.3,218.3z"/>
	<path class="st1" d="M337.7,212c0.6,0,1.2,0.5,1.2,1.2s-0.5,1.2-1.2,1.2c-0.6,0-1.2-0.5-1.2-1.2l0,0
		C336.5,212.5,337.1,212,337.7,212z M336.9,216.1h1.6v8.2h-1.6V216.1z"/>
	<path class="st1" d="M341,216.1h1.6v1.3h0c0.5-1,1.6-1.5,2.7-1.5c1.6,0,3,1,3,3.1v5.3h-1.6v-4.9c0-1.5-0.9-2.1-1.9-2.1
		c-1.3,0-2.3,0.8-2.3,2.7v4.3H341L341,216.1z"/>
	<path class="st1" d="M351.8,220.8c0,1.4,1.3,2.4,2.8,2.4c0.9,0,1.7-0.5,2.3-1.2l1.2,0.9c-0.9,1.1-2.2,1.8-3.7,1.7
		c-2.3,0.1-4.2-1.6-4.3-3.9c0-0.1,0-0.3,0-0.4c-0.1-2.3,1.7-4.2,4-4.3c0.1,0,0.2,0,0.2,0c2.9,0,4,2.2,4,4.3v0.6H351.8z M356.7,219.5
		c0.1-1.2-0.8-2.3-2-2.4c-0.1,0-0.2,0-0.3,0c-1.4,0-2.5,1-2.6,2.4H356.7z"/>
	<path class="st2" d="M81,203.5c3.2-3,3.3-8.1,0.3-11.3c-1.9-2-4.8-2.9-7.6-2.3c2.3,2.4,2.1,6.2-0.3,8.5c-1.5,1.4-3.7,2-5.7,1.4
		c1.2,4.3,5.6,6.8,9.8,5.7C78.9,205.1,80,204.4,81,203.5z"/>
	<path class="st2" d="M67.7,203.1c-3-3.2-2.9-8.3,0.3-11.3c0,0,0,0,0,0c0.1-0.1,0.3-0.3,0.4-0.4c-3.3-0.5-6.3,1.7-6.9,5
		c-0.5,3.3,1.7,6.3,5,6.9c0.4,0.1,0.9,0.1,1.3,0.1C67.8,203.3,67.8,203.2,67.7,203.1z"/>
	<path class="st2" d="M29.5,203.5c3.2-3,3.3-8.1,0.3-11.3c-1.9-2-4.8-2.9-7.5-2.3c2.3,2.4,2.1,6.2-0.3,8.5c-1.5,1.4-3.7,2-5.7,1.4
		c1.1,4.3,5.5,6.8,9.8,5.7C27.3,205.1,28.5,204.4,29.5,203.5z"/>
	<path class="st2" d="M16.2,203.1c-3-3.2-2.9-8.3,0.3-11.3c0,0,0,0,0,0c0.1-0.1,0.3-0.3,0.4-0.4c-3.3-0.5-6.3,1.7-6.9,5
		c-0.5,3.3,1.7,6.3,5,6.9c0.4,0.1,0.9,0.1,1.3,0.1C16.3,203.3,16.3,203.2,16.2,203.1z"/>
	<path class="st2" d="M52.7,163.3c-3-3.2-8.1-3.4-11.3-0.3c-2.1,1.9-2.9,4.8-2.3,7.6c2.4-2.3,6.2-2.1,8.5,0.3c1.4,1.5,2,3.7,1.4,5.7
		c1.3-0.3,2.5-1,3.4-1.9C55.6,171.6,55.7,166.5,52.7,163.3C52.7,163.3,52.7,163.3,52.7,163.3L52.7,163.3z"/>
	<path class="st2" d="M52.3,176.6c-3.2,3-8.3,2.9-11.3-0.3c-0.1-0.1-0.3-0.3-0.4-0.4c-0.5,3.3,1.7,6.4,5,6.9s6.4-1.7,6.9-5
		c0.1-0.5,0.1-0.9,0.1-1.4C52.5,176.4,52.3,176.6,52.3,176.6z"/>
	<path class="st2" d="M52.7,214.8c-3-3.2-8.1-3.4-11.3-0.3c-2,1.9-2.9,4.8-2.3,7.6c2.4-2.3,6.2-2.1,8.5,0.3c1.4,1.5,2,3.7,1.4,5.7
		c4.3-1.1,6.8-5.5,5.7-9.8C54.3,216.9,53.6,215.7,52.7,214.8L52.7,214.8z"/>
	<path class="st2" d="M52.3,228.1c-3.2,3-8.3,2.9-11.3-0.3c0,0,0,0,0,0c-0.1-0.1-0.3-0.3-0.4-0.4c-0.5,3.3,1.7,6.3,5,6.9
		c3.3,0.5,6.3-1.7,6.9-5c0.1-0.4,0.1-0.9,0.1-1.3C52.4,228,52.4,228,52.3,228.1z"/>
	<path class="st2" d="M75.1,177.6c0.1-4.4-3.4-8.1-7.8-8.2c-2.8-0.1-5.4,1.3-7,3.7c3.3,0.1,5.9,2.9,5.8,6.2c-0.1,2.1-1.2,4-3.1,5
		c3.8,2.2,8.7,0.9,10.9-2.9C74.7,180.2,75,178.9,75.1,177.6z"/>
	<path class="st2" d="M65.4,186.7c-4.4-0.1-7.9-3.8-7.8-8.2c0,0,0,0,0,0c0-0.2,0-0.4,0-0.6c-2.6,2-3.1,5.8-1,8.4
		c2,2.6,5.8,3.1,8.4,1c0.3-0.2,0.5-0.4,0.7-0.7L65.4,186.7z"/>
	<path class="st2" d="M38.7,214c0.1-4.4-3.4-8.1-7.8-8.2c-2.8-0.1-5.5,1.3-7,3.7c3.3,0.1,5.9,2.9,5.8,6.2c-0.1,2.1-1.2,4-3.1,5
		c1.2,0.7,2.5,1,3.8,1.1C34.9,221.9,38.6,218.4,38.7,214C38.7,214,38.7,214,38.7,214L38.7,214z"/>
	<path class="st2" d="M29,223.1c-4.4-0.1-7.9-3.8-7.8-8.2c0,0,0,0,0,0c0-0.2,0-0.4,0-0.6c-2.7,1.9-3.3,5.7-1.3,8.4
		c1.9,2.7,5.7,3.3,8.4,1.3c0.4-0.3,0.7-0.6,1-0.9C29.2,223.1,29.1,223.1,29,223.1z"/>
	<path class="st2" d="M66.9,226c4.4,0.1,8.1-3.4,8.2-7.8c0.1-2.8-1.3-5.4-3.7-7c-0.1,3.3-2.9,5.9-6.2,5.8c-2.1-0.1-4-1.2-5-3.1
		c-2.2,3.8-0.9,8.7,2.9,10.9C64.2,225.6,65.5,226,66.9,226z"/>
	<path class="st2" d="M57.7,216.3c0.1-4.4,3.8-7.9,8.2-7.8c0.2,0,0.4,0,0.6,0c-2-2.7-5.7-3.3-8.4-1.3c-2.7,2-3.3,5.7-1.3,8.4
		c0.3,0.4,0.6,0.7,0.9,1C57.7,216.5,57.7,216.4,57.7,216.3L57.7,216.3z"/>
	<path class="st2" d="M30.5,189.6c4.4,0.1,8.1-3.4,8.2-7.8c0.1-2.8-1.3-5.5-3.7-7c-0.1,3.3-2.9,5.9-6.2,5.8c-2.1-0.1-4-1.2-5-3.1
		c-2.2,3.8-0.9,8.7,2.9,10.9C27.8,189.2,29.1,189.6,30.5,189.6z"/>
	<path class="st2" d="M21.3,179.9c0.1-4.4,3.8-7.9,8.2-7.8c0.2,0,0.4,0,0.6,0c-1.9-2.7-5.7-3.3-8.4-1.4s-3.3,5.7-1.4,8.4
		c0.3,0.4,0.6,0.8,1,1.1C21.3,180.1,21.3,180,21.3,179.9L21.3,179.9z"/>
</g>
</svg>
