<?xml version="1.0" encoding="UTF-8" standalone="no"?>
<!DOCTYPE svg PUBLIC "-//W3C//DTD SVG 1.1//EN" "http://www.w3.org/Graphics/SVG/1.1/DTD/svg11.dtd">
<svg width="100%" height="100%" viewBox="0 0 500 200" version="1.1"
     xmlns="http://www.w3.org/2000/svg" xmlns:xlink="http://www.w3.org/1999/xlink"
     xml:space="preserve" xmlns:serif="http://www.serif.com/"
     style="fill-rule:evenodd;clip-rule:evenodd;stroke-linecap:round;">
  <defs>
    <style type="text/css"><![CDATA[
      /* ---- ICON ANIMATION (unchanged) ---- */

      #n2-ring circle {
        animation-name: n2Stroke;
        animation-duration: 5s;
        animation-timing-function: ease-in-out;
        animation-iteration-count: 1;
        animation-fill-mode: forwards;
      }
      #n2-fill circle {
        animation-name: n2Fill;
        animation-duration: 5s;
        animation-timing-function: ease-in-out;
        animation-iteration-count: 1;
        animation-fill-mode: forwards;
      }
      @keyframes n2Stroke {
        0%   { stroke: rgb(156,163,175); }
        18%  { stroke: rgb(156,163,175); }
        28%  { stroke: rgb(15,118,110); }
        100% { stroke: rgb(15,118,110); }
      }
      @keyframes n2Fill {
        0%   { fill: rgb(156,163,175); }
        18%  { fill: rgb(156,163,175); }
        28%  { fill: rgb(15,118,110); }
        100% { fill: rgb(15,118,110); }
      }

      #n3-ring circle {
        animation-name: n3Stroke;
        animation-duration: 5s;
        animation-timing-function: ease-in-out;
        animation-iteration-count: 1;
        animation-fill-mode: forwards;
      }
      #n3-fill circle {
        animation-name: n3Fill;
        animation-duration: 5s;
        animation-timing-function: ease-in-out;
        animation-iteration-count: 1;
        animation-fill-mode: forwards;
      }
      @keyframes n3Stroke {
        0%   { stroke: rgb(156,163,175); }
        44%  { stroke: rgb(156,163,175); }
        52%  { stroke: rgb(15,118,110); }
        100% { stroke: rgb(15,118,110); }
      }
      @keyframes n3Fill {
        0%   { fill: rgb(156,163,175); }
        44%  { fill: rgb(156,163,175); }
        52%  { fill: rgb(15,118,110); }
        100% { fill: rgb(15,118,110); }
      }

      #center-ring circle {
        animation-name: centerStroke;
        animation-duration: 5s;
        animation-timing-function: ease-in-out;
        animation-iteration-count: 1;
        animation-fill-mode: forwards;
      }
      #center-fill circle {
        animation-name: centerFill;
        animation-duration: 5s;
        animation-timing-function: ease-in-out;
        animation-iteration-count: 1;
        animation-fill-mode: forwards;
      }
      @keyframes centerStroke {
        0%   { stroke: rgb(156,163,175); }
        70%  { stroke: rgb(156,163,175); }
        90%  { stroke: rgb(15,118,110); }
        100% { stroke: rgb(15,118,110); }
      }
      @keyframes centerFill {
        0%   { fill: rgb(156,163,175); }
        70%  { fill: rgb(156,163,175); }
        90%  { fill: rgb(15,118,110); }
        100% { fill: rgb(15,118,110); }
      }

      /* ---- LETTER FADE-IN (applies to path groups) ---- */

      #label-L, #label-MI {
        opacity: 0;
        animation-name: labelFade;
        animation-duration: 1s;
        animation-timing-function: ease-in-out;
        animation-delay: 3.5s;  /* 70% of 5s: when center cell starts changing */
        animation-iteration-count: 1;
        animation-fill-mode: forwards;
      }
      @keyframes labelFade {
        0%   { opacity: 0; }
        100% { opacity: 1; }
      }
    ]]></style>
  </defs>

  <!-- Icon group transformed exactly as in your Affinity export -->
  <g transform="matrix(1,0,0,1,150,0)">

    <!-- Arc 1 grey base -->
    <g id="arc2-base" transform="matrix(1.71104,1.03826,-0.777585,1.28144,-2.337378,3.09829)">
      <path d="M72,68C66.949,72.263 60.549,74.603 53.94,74.603C45.397,74.603 37.308,70.694 32,64"
            style="fill:none;fill-rule:nonzero;stroke:rgb(156,163,175);stroke-width:3px;"/>
    </g>
    <!-- Arc 1 teal overlay, animated (26–44%) -->
    <g transform="matrix(1.71104,1.03826,-0.777585,1.28144,-2.337378,3.09829)">
      <path d="M72,68C66.949,72.263 60.549,74.603 53.94,74.603C45.397,74.603 37.308,70.694 32,64"
            style="fill:none;fill-rule:nonzero;stroke:rgb(15,118,110);stroke-width:3px;stroke-dasharray:70,70;stroke-dashoffset:70;">
        <animate attributeName="stroke-dashoffset"
                 values="70;70;0;0;0"
                 keyTimes="0;0.26;0.44;0.44;1"
                 dur="5s" repeatCount="1" fill="freeze"/>
      </path>
    </g>

    <!-- Arc 2 grey base -->
    <g id="arc2-base1" serif:id="arc2-base"
       transform="matrix(-0.032809,-2.00114,1.49871,-0.024571,24.905522,207.66547)">
      <path d="M72,68C66.949,72.263 60.549,74.603 53.94,74.603C45.397,74.603 37.308,70.694 32,64"
            style="fill:none;fill-rule:nonzero;stroke:rgb(156,163,175);stroke-width:3px;"/>
    </g>
    <!-- Arc 2 teal overlay, animated (0–18%) -->
    <g transform="matrix(-0.032809,-2.00114,1.49871,-0.024571,24.905522,207.66547)">
      <path d="M72,68C66.949,72.263 60.549,74.603 53.94,74.603C45.397,74.603 37.308,70.694 32,64"
            style="fill:none;fill-rule:nonzero;stroke:rgb(15,118,110);stroke-width:3px;stroke-dasharray:70,70;stroke-dashoffset:70;">
        <animate attributeName="stroke-dashoffset"
                 values="70;70;0;0;0"
                 keyTimes="0;0;0.18;0.18;1"
                 dur="5s" repeatCount="1" fill="freeze"/>
      </path>
    </g>

    <!-- Arc 3 grey base -->
    <g id="arc2-base2" serif:id="arc2-base"
       transform="matrix(-1.77502,0.924632,-0.692483,-1.32936,178.834322,86.08597)">
      <path d="M72,68C66.949,72.263 60.549,74.603 53.94,74.603C45.397,74.603 37.308,70.694 32,64"
            style="fill:none;fill-rule:nonzero;stroke:rgb(156,163,175);stroke-width:3px;"/>
    </g>
    <!-- Arc 3 teal overlay, animated (52–70%) -->
    <g transform="matrix(-1.77502,0.924632,-0.692483,-1.32936,178.834322,86.08597)">
      <path d="M72,68C66.949,72.263 60.549,74.603 53.94,74.603C45.397,74.603 37.308,70.694 32,64"
            style="fill:none;fill-rule:nonzero;stroke:rgb(15,118,110);stroke-width:3px;stroke-dasharray:70,70;stroke-dashoffset:70;">
        <animate attributeName="stroke-dashoffset"
                 values="70;70;0;0;0"
                 keyTimes="0;0.52;0.70;0.70;1"
                 dur="5s" repeatCount="1" fill="freeze"/>
      </path>
    </g>

    <!-- Center cell ring and nucleus -->
    <g id="center-ring" transform="matrix(1.68102,1.0836,-1.0836,1.68102,37.062222,-41.69653)">
      <circle cx="50" cy="50" r="20"
              style="fill:none;stroke:rgb(156,163,175);stroke-width:3px;stroke-linecap:butt;"/>
    </g>
    <g id="center-fill" transform="matrix(1.35217,0.871619,-0.871619,1.35217,49.556122,-3.189419)">
      <circle cx="50" cy="50" r="10" style="fill:rgb(156,163,175);"/>
    </g>

    <!-- n1 always teal -->
    <g id="n1-ring" transform="matrix(1.68102,1.0836,-1.0836,1.68102,16.339322,-83.37683)">
      <circle cx="70" cy="28" r="7"
              style="fill:none;stroke:rgb(15,118,110);stroke-width:8px;stroke-linecap:butt;"
              vector-effect="non-scaling-stroke"/>
    </g>
    <g id="n1-fill" transform="matrix(1.68102,1.0836,-1.0836,1.68102,16.339322,-83.37683)">
      <circle cx="70" cy="28" r="3" style="fill:rgb(15,118,110);"/>
    </g>

    <!-- n2 -->
    <g transform="matrix(0.840509,0.541798,-0.541798,0.840509,52.916922,-40.27693)">
      <g id="n2-ring" transform="matrix(2,0,0,2,0,10)">
        <circle cx="72" cy="68" r="7"
                style="fill:none;stroke:rgb(156,163,175);stroke-width:8px;stroke-linecap:butt;"
                vector-effect="non-scaling-stroke"/>
      </g>
      <g id="n2-fill" transform="matrix(2,0,0,2,0,10)">
        <circle cx="72" cy="68" r="3" style="fill:rgb(156,163,175);"/>
      </g>
    </g>

    <!-- n3 -->
    <g id="n3-ring" transform="matrix(1.68102,1.0836,-1.0836,1.68102,2.318922,-26.96443)">
      <circle cx="30" cy="52" r="7"
              style="fill:none;stroke:rgb(156,163,175);stroke-width:8px;stroke-linecap:butt;"
              vector-effect="non-scaling-stroke"/>
    </g>
    <g id="n3-fill" transform="matrix(1.68102,1.0836,-1.0836,1.68102,2.318922,-26.96443)">
      <circle cx="30" cy="52" r="3" style="fill:rgb(156,163,175);"/>
    </g>

  </g><!-- end icon group -->

  <!-- Letters as paths, with positions/kerning exactly from Affinity export -->

  <!-- L -->
  <g id="label-L" transform="matrix(6.984993,0,0,6.984993,32.942658,136.534384)">
    <path d="M1.172,0L1.172,-11.453L2.688,-11.453L2.688,-1.352L8.328,-1.352L8.328,0L1.172,0Z"
          style="fill:rgb(15,118,110);fill-rule:nonzero;stroke:rgb(15,118,110);stroke-width:0.68px;stroke-linejoin:round;stroke-miterlimit:2;"/>
  </g>

  <!-- MI -->
  <g id="label-MI">
    <g transform="matrix(6.984993,0,0,6.984993,320.098724,136.79847)">
      <path d="M1.188,0L1.188,-11.453L3.469,-11.453L6.18,-3.344C6.43,-2.589 6.612,-2.023 6.727,-1.648C6.857,-2.065 7.06,-2.677 7.336,-3.484L10.078,-11.453L12.117,-11.453L12.117,0L10.656,0L10.656,-9.586L7.328,0L5.961,0L2.648,-9.75L2.648,0L1.188,0Z"
            style="fill:rgb(15,118,110);fill-rule:nonzero;stroke:rgb(15,118,110);stroke-width:0.68px;stroke-linejoin:round;stroke-miterlimit:2;"/>
    </g>
    <g transform="matrix(6.984993,0,0,6.984993,344.765391,136.79847)">
      <rect x="14.82" y="-11.453" width="1.516" height="11.453"
            style="fill:rgb(15,118,110);fill-rule:nonzero;stroke:rgb(15,118,110);stroke-width:0.68px;stroke-linejoin:round;stroke-miterlimit:30;"/>
    </g>
  </g>

</svg>
