<?xml version="1.0" encoding="utf-8"?>
<!-- Generator: Adobe Illustrator 21.0.0, SVG Export Plug-In . SVG Version: 6.00 Build 0)  -->
<svg version="1.1" id="Layer_1" xmlns="http://www.w3.org/2000/svg" xmlns:xlink="http://www.w3.org/1999/xlink" x="0px" y="0px"
	 viewBox="0 0 920 200" style="enable-background:new 0 0 920 200;" xml:space="preserve">
<style type="text/css">
	.st0{fill:#646569;}
	.st1{fill:#005195;}
	.st2{fill:#5A5A5E;}
</style>
<g>
	<g>
		<path class="st0" d="M172.7,67v66.3H161v-29.9h-30.2v29.9h-11.6V67h11.6v26.4H161V67H172.7z M107.6,133.4H96V67h11.6V133.4z
			 M84.6,133.4H72.3L42.1,84.6h-0.3v48.8H30.8V67H43l30.3,48.9h0.2V67h11.1V133.4z M213.6,100l-41-74.1H21.4
			c-7.5,0-13.7,6.1-13.7,13.7v121.1c0,7.5,6.1,13.7,13.7,13.7h151L213.6,100z"/>
		<path class="st1" d="M182.7,174.2l41.1-74.3l-41-74.1h10.3c5.6,0,12.4,4,15.1,8.9l36,65.2l-36.2,65.3c-2.7,4.9-9.5,8.9-15.2,8.9
			H182.7z"/>
	</g>
	<g>
		<path class="st2" d="M274.5,54.5h6.2L296,79.3h0.1V54.5h5.6v33.6h-6.2l-15.3-24.7h-0.1v24.7h-5.6V54.5z"/>
		<path class="st2" d="M328.3,82.7c0,1.3,0.3,1.8,1.3,1.8c0.3,0,0.8,0,1.3-0.1v3.7c-0.8,0.3-2.5,0.6-3.4,0.6c-2.2,0-3.7-0.8-4.1-3
			c-2.1,2.1-5.5,3-8.4,3c-4.4,0-8.3-2.4-8.3-7.1c0-6.1,4.8-7,9.4-7.6c3.9-0.7,7.3-0.3,7.3-3.4c0-2.8-2.9-3.3-5-3.3
			c-3,0-5.1,1.2-5.4,3.9h-5.4c0.4-6.3,5.7-8.1,11-8.1c4.7,0,9.7,1.9,9.7,7V82.7z M322.9,75.9c-1.6,1.1-4.2,1-6.6,1.5
			c-2.3,0.4-4.4,1.2-4.4,4c0,2.4,3.1,3.1,4.9,3.1c2.3,0,6-1.2,6-4.6V75.9z"/>
		<path class="st2" d="M331.6,63.8h4v-7.3h5.4v7.3h4.8v4H341v13c0,2.2,0.2,3.3,2.6,3.3c0.8,0,1.5,0,2.3-0.2v4.1
			c-1.2,0.1-2.3,0.3-3.5,0.3c-5.6,0-6.6-2.2-6.7-6.2V67.8h-4V63.8z"/>
		<path class="st2" d="M349.8,54.5h5.4v5.1h-5.4V54.5z M349.8,63.8h5.4v24.3h-5.4V63.8z"/>
		<path class="st2" d="M359.9,75.9c0-7.4,4.5-12.8,12.3-12.8s12.3,5.4,12.3,12.8c0,7.5-4.5,12.8-12.3,12.8S359.9,83.4,359.9,75.9z
			 M379.1,75.9c0-4.2-2.1-8.6-6.9-8.6s-6.9,4.4-6.9,8.6c0,4.2,2.1,8.6,6.9,8.6S379.1,80.2,379.1,75.9z"/>
		<path class="st2" d="M388.9,63.8h5.1v3.6l0.1,0.1c1.6-2.7,4.4-4.3,7.6-4.3c5.3,0,8.6,2.8,8.6,8.3v16.7h-5.4V72.8
			c-0.1-3.8-1.6-5.5-4.7-5.5c-3.6,0-5.9,2.8-5.9,6.4v14.3h-5.4V63.8z"/>
		<path class="st2" d="M436.2,82.7c0,1.3,0.3,1.8,1.3,1.8c0.3,0,0.8,0,1.3-0.1v3.7c-0.8,0.3-2.5,0.6-3.4,0.6c-2.2,0-3.7-0.8-4.1-3
			c-2.1,2.1-5.5,3-8.4,3c-4.4,0-8.3-2.4-8.3-7.1c0-6.1,4.8-7,9.4-7.6c3.9-0.7,7.3-0.3,7.3-3.4c0-2.8-2.9-3.3-5-3.3
			c-3,0-5.1,1.2-5.4,3.9h-5.4c0.4-6.3,5.7-8.1,11-8.1c4.7,0,9.7,1.9,9.7,7V82.7z M430.9,75.9c-1.6,1.1-4.2,1-6.6,1.5
			c-2.3,0.4-4.4,1.2-4.4,4c0,2.4,3.1,3.1,4.9,3.1c2.3,0,6-1.2,6-4.6V75.9z"/>
		<path class="st2" d="M442.1,54.5h5.4v33.6h-5.4V54.5z"/>
		<path class="st2" d="M467.1,54.5h5.9v33.6h-5.9V54.5z"/>
		<path class="st2" d="M479.5,63.8h5.1v3.6l0.1,0.1c1.6-2.7,4.4-4.3,7.6-4.3c5.3,0,8.6,2.8,8.6,8.3v16.7h-5.4V72.8
			c-0.1-3.8-1.6-5.5-4.7-5.5c-3.6,0-5.9,2.8-5.9,6.4v14.3h-5.4V63.8z"/>
		<path class="st2" d="M510.5,80.3c0.3,3.1,2.6,4.2,5.5,4.2c2,0,5.5-0.4,5.4-3.2c-0.1-2.8-4-3.1-7.9-4c-3.9-0.8-7.8-2.3-7.8-7.2
			c0-5.3,5.7-7,10.2-7c5,0,9.5,2.1,10.2,7.5h-5.6c-0.5-2.5-2.6-3.2-4.9-3.2c-1.6,0-4.4,0.4-4.4,2.5c0,2.6,3.9,3,7.9,3.9
			c3.9,0.9,7.8,2.3,7.8,7.1c0,5.8-5.8,7.9-10.9,7.9c-6.1,0-10.7-2.7-10.8-8.5H510.5z"/>
		<path class="st2" d="M528.4,63.8h4v-7.3h5.4v7.3h4.8v4h-4.8v13c0,2.2,0.2,3.3,2.6,3.3c0.8,0,1.5,0,2.3-0.2v4.1
			c-1.2,0.1-2.3,0.3-3.5,0.3c-5.6,0-6.6-2.2-6.7-6.2V67.8h-4V63.8z"/>
		<path class="st2" d="M546.6,54.5h5.4v5.1h-5.4V54.5z M546.6,63.8h5.4v24.3h-5.4V63.8z"/>
		<path class="st2" d="M555.4,63.8h4v-7.3h5.4v7.3h4.8v4h-4.8v13c0,2.2,0.2,3.3,2.6,3.3c0.8,0,1.5,0,2.3-0.2v4.1
			c-1.2,0.1-2.3,0.3-3.5,0.3c-5.6,0-6.6-2.2-6.7-6.2V67.8h-4V63.8z"/>
		<path class="st2" d="M594.8,88.1h-5.3v-3.4h-0.1c-1.3,2.4-4.2,4-6.9,4c-6.3,0-9.1-3.2-9.1-9.5V63.8h5.4v14.9
			c0,4.3,1.7,5.8,4.7,5.8c4.5,0,6-2.9,6-6.6V63.8h5.4V88.1z"/>
		<path class="st2" d="M598,63.8h4v-7.3h5.4v7.3h4.8v4h-4.8v13c0,2.2,0.2,3.3,2.6,3.3c0.8,0,1.5,0,2.3-0.2v4.1
			c-1.2,0.1-2.3,0.3-3.5,0.3c-5.6,0-6.6-2.2-6.7-6.2V67.8h-4V63.8z"/>
		<path class="st2" d="M620.3,77.3c0,3.8,2.1,7.2,6.5,7.2c3.1,0,5-1.4,5.9-4h5.1c-1.2,5.3-5.7,8.3-11,8.3c-7.6,0-11.9-5.3-11.9-12.8
			c0-6.9,4.5-12.8,11.7-12.8c7.7,0,12.4,6.9,11.5,14.2H620.3z M632.8,73.8c-0.2-3.4-2.5-6.4-6.1-6.4c-3.7,0-6.3,2.8-6.4,6.4H632.8z"
			/>
		<path class="st2" d="M654.2,75.9c0-7.4,4.5-12.8,12.3-12.8s12.3,5.4,12.3,12.8c0,7.5-4.5,12.8-12.3,12.8S654.2,83.4,654.2,75.9z
			 M673.3,75.9c0-4.2-2.1-8.6-6.9-8.6s-6.9,4.4-6.9,8.6c0,4.2,2.1,8.6,6.9,8.6S673.3,80.2,673.3,75.9z"/>
		<path class="st2" d="M680.8,63.8h4v-2c0-6.2,3.2-7.2,6.7-7.2c1.7,0,2.9,0.1,3.8,0.3v4.2c-0.7-0.2-1.4-0.3-2.5-0.3
			c-1.5,0-2.6,0.5-2.6,2.5v2.5h4.6v4h-4.6v20.3h-5.4V67.8h-4V63.8z"/>
		<path class="st2" d="M711.8,54.5h13.9c10.3,0,14.8,7.5,14.8,16.8s-4.5,16.8-14.8,16.8h-13.9V54.5z M717.6,83.3h5.8
			c9.2,0,11.2-5.3,11.2-12c0-6.7-2-12-11.2-12h-5.8V83.3z"/>
		<path class="st2" d="M749.1,77.3c0,3.8,2.1,7.2,6.5,7.2c3.1,0,5-1.4,5.9-4h5.1c-1.2,5.3-5.7,8.3-11,8.3c-7.6,0-11.9-5.3-11.9-12.8
			c0-6.9,4.5-12.8,11.7-12.8c7.7,0,12.4,6.9,11.5,14.2H749.1z M761.6,73.8c-0.2-3.4-2.5-6.4-6.1-6.4c-3.7,0-6.3,2.8-6.4,6.4H761.6z"
			/>
		<path class="st2" d="M771.1,63.8h5.1v3.6l0.1,0.1c1.6-2.7,4.4-4.3,7.6-4.3c5.3,0,8.6,2.8,8.6,8.3v16.7h-5.4V72.8
			c-0.1-3.8-1.6-5.5-4.7-5.5c-3.6,0-5.9,2.8-5.9,6.4v14.3h-5.4V63.8z"/>
		<path class="st2" d="M795.6,63.8h4v-7.3h5.4v7.3h4.8v4H805v13c0,2.2,0.2,3.3,2.6,3.3c0.8,0,1.5,0,2.3-0.2v4.1
			c-1.2,0.1-2.3,0.3-3.5,0.3c-5.6,0-6.6-2.2-6.7-6.2V67.8h-4V63.8z"/>
		<path class="st2" d="M834.1,82.7c0,1.3,0.3,1.8,1.3,1.8c0.3,0,0.8,0,1.3-0.1v3.7c-0.8,0.3-2.5,0.6-3.4,0.6c-2.2,0-3.7-0.8-4.1-3
			c-2.1,2.1-5.5,3-8.4,3c-4.4,0-8.3-2.4-8.3-7.1c0-6.1,4.8-7,9.4-7.6c3.9-0.7,7.3-0.3,7.3-3.4c0-2.8-2.9-3.3-5-3.3
			c-3,0-5.1,1.2-5.4,3.9h-5.4c0.4-6.3,5.7-8.1,11-8.1c4.7,0,9.7,1.9,9.7,7V82.7z M828.7,75.9c-1.6,1.1-4.2,1-6.6,1.5
			c-2.3,0.4-4.4,1.2-4.4,4c0,2.4,3.1,3.1,4.9,3.1c2.4,0,6-1.2,6-4.6V75.9z"/>
		<path class="st2" d="M840,54.5h5.4v33.6H840V54.5z"/>
		<path class="st2" d="M294.3,139.1c0,1.3,0.3,1.8,1.3,1.8c0.3,0,0.8,0,1.3-0.1v3.7c-0.8,0.3-2.5,0.6-3.4,0.6c-2.2,0-3.7-0.8-4.1-3
			c-2.1,2.1-5.5,3-8.4,3c-4.4,0-8.3-2.3-8.3-7.1c0-6.1,4.8-7,9.4-7.6c3.9-0.7,7.3-0.3,7.3-3.4c0-2.8-2.9-3.3-5-3.3
			c-3,0-5.1,1.2-5.4,3.9h-5.4c0.4-6.3,5.7-8.1,11-8.1c4.7,0,9.7,1.9,9.7,7V139.1z M289,132.3c-1.6,1.1-4.2,1-6.6,1.5
			c-2.3,0.4-4.4,1.2-4.4,4c0,2.4,3.1,3.1,4.9,3.1c2.3,0,6-1.2,6-4.6V132.3z"/>
		<path class="st2" d="M300.1,120.2h5.1v3.6l0.1,0.1c1.6-2.7,4.4-4.3,7.6-4.3c5.3,0,8.6,2.8,8.6,8.3v16.7h-5.4v-15.3
			c-0.1-3.8-1.6-5.5-4.7-5.5c-3.6,0-5.9,2.8-5.9,6.4v14.3h-5.4V120.2z"/>
		<path class="st2" d="M350,144.5h-5.1v-3.3h-0.1c-1.4,2.8-4.5,3.9-7.5,3.9c-7.7,0-11.4-5.7-11.4-13c0-8.8,5.2-12.6,10.5-12.6
			c3.1,0,6.4,1.1,8.1,3.8h0.1v-12.4h5.4V144.5z M338,140.9c4.8,0,6.8-4.4,6.8-8.6c0-5.4-2.6-8.6-6.7-8.6c-5,0-6.8,4.5-6.8,8.8
			C331.3,136.8,333.3,140.9,338,140.9z"/>
		<path class="st2" d="M392.3,121.6c-1-3.9-3.5-6.7-8.4-6.7c-7.2,0-10.2,6.3-10.2,12.8s3,12.8,10.2,12.8c5.2,0,8.1-3.9,8.6-8.8h5.7
			c-0.5,8-6.2,13.6-14.3,13.6c-10.1,0-16.1-8-16.1-17.6c0-9.6,6-17.6,16.1-17.6c7.6,0,13.5,4.2,14.2,11.5H392.3z"/>
		<path class="st2" d="M402.8,120.2h5v4.7h0.1c0.6-2.6,3.8-5.4,7.1-5.4c1.2,0,1.6,0.1,2,0.1v5.2c-0.8-0.1-1.6-0.2-2.3-0.2
			c-3.7,0-6.6,3-6.6,8.3v11.6h-5.4V120.2z"/>
		<path class="st2" d="M439.7,139.1c0,1.3,0.3,1.8,1.3,1.8c0.3,0,0.8,0,1.3-0.1v3.7c-0.8,0.3-2.5,0.6-3.4,0.6c-2.2,0-3.7-0.8-4.1-3
			c-2.1,2.1-5.5,3-8.4,3c-4.4,0-8.3-2.3-8.3-7.1c0-6.1,4.8-7,9.4-7.6c3.9-0.7,7.3-0.3,7.3-3.4c0-2.8-2.9-3.3-5-3.3
			c-3,0-5.1,1.2-5.4,3.9h-5.4c0.4-6.3,5.7-8.1,11-8.1c4.7,0,9.7,1.9,9.7,7V139.1z M434.3,132.3c-1.6,1.1-4.2,1-6.6,1.5
			c-2.3,0.4-4.4,1.2-4.4,4c0,2.4,3.1,3.1,4.9,3.1c2.3,0,6-1.2,6-4.6V132.3z"/>
		<path class="st2" d="M445.5,120.2h5.1v3.6l0.1,0.1c1.6-2.7,4.4-4.3,7.6-4.3c5.3,0,8.6,2.8,8.6,8.3v16.7h-5.4v-15.3
			c-0.1-3.8-1.6-5.5-4.7-5.5c-3.6,0-5.9,2.8-5.9,6.4v14.3h-5.4V120.2z"/>
		<path class="st2" d="M472.6,110.9h5.4v5.1h-5.4V110.9z M472.6,120.2h5.4v24.3h-5.4V120.2z"/>
		<path class="st2" d="M482.7,132.3c0-7.4,4.5-12.8,12.3-12.8c7.8,0,12.3,5.4,12.3,12.8c0,7.5-4.5,12.8-12.3,12.8
			C487.1,145.2,482.7,139.8,482.7,132.3z M501.8,132.3c0-4.2-2.1-8.6-6.9-8.6c-4.8,0-6.9,4.4-6.9,8.6c0,4.2,2.1,8.6,6.9,8.6
			C499.7,140.9,501.8,136.6,501.8,132.3z"/>
		<path class="st2" d="M509.3,120.2h4v-2c0-6.2,3.2-7.2,6.7-7.2c1.7,0,2.9,0.1,3.8,0.3v4.2c-0.7-0.2-1.4-0.3-2.5-0.3
			c-1.5,0-2.6,0.5-2.6,2.5v2.5h4.6v4h-4.6v20.3h-5.4v-20.3h-4V120.2z"/>
		<path class="st2" d="M546.8,139.1c0,1.3,0.3,1.8,1.3,1.8c0.3,0,0.8,0,1.3-0.1v3.7c-0.8,0.3-2.5,0.6-3.4,0.6c-2.2,0-3.7-0.8-4.1-3
			c-2.1,2.1-5.5,3-8.4,3c-4.4,0-8.3-2.3-8.3-7.1c0-6.1,4.8-7,9.4-7.6c3.9-0.7,7.3-0.3,7.3-3.4c0-2.8-2.9-3.3-5-3.3
			c-3,0-5.1,1.2-5.4,3.9H526c0.4-6.3,5.7-8.1,11-8.1c4.7,0,9.7,1.9,9.7,7V139.1z M541.4,132.3c-1.6,1.1-4.2,1-6.6,1.5
			c-2.3,0.4-4.4,1.2-4.4,4c0,2.4,3.1,3.1,4.9,3.1c2.3,0,6-1.2,6-4.6V132.3z"/>
		<path class="st2" d="M569,128.3c-0.4-3-2.6-4.6-5.5-4.6c-2.8,0-6.7,1.5-6.7,8.8c0,4,1.8,8.3,6.4,8.3c3.1,0,5.3-2.1,5.8-5.5h5.4
			c-1,6.3-4.9,9.8-11.1,9.8c-7.6,0-11.8-5.4-11.8-12.5c0-7.3,4-13.1,12-13.1c5.6,0,10.4,2.8,11,8.8H569z"/>
		<path class="st2" d="M578.9,110.9h5.4v5.1h-5.4V110.9z M578.9,120.2h5.4v24.3h-5.4V120.2z"/>
		<path class="st2" d="M610.4,139.1c0,1.3,0.3,1.8,1.3,1.8c0.3,0,0.8,0,1.3-0.1v3.7c-0.8,0.3-2.5,0.6-3.4,0.6c-2.2,0-3.7-0.8-4.1-3
			c-2.1,2.1-5.5,3-8.4,3c-4.4,0-8.3-2.3-8.3-7.1c0-6.1,4.8-7,9.4-7.6c3.9-0.7,7.3-0.3,7.3-3.4c0-2.8-2.9-3.3-5-3.3
			c-3,0-5.1,1.2-5.4,3.9h-5.4c0.4-6.3,5.7-8.1,11-8.1c4.7,0,9.7,1.9,9.7,7V139.1z M605,132.3c-1.6,1.1-4.2,1-6.6,1.5
			c-2.3,0.4-4.4,1.2-4.4,4c0,2.4,3.1,3.1,4.9,3.1c2.3,0,6-1.2,6-4.6V132.3z"/>
		<path class="st2" d="M616.3,110.9h5.4v33.6h-5.4V110.9z"/>
		<path class="st2" d="M641.3,110.9h16c7.3,0,11.1,3.4,11.1,9.1c0,6.4-4.5,8.1-5.5,8.5v0.1c2,0.3,5,1.8,5,7.1c0,3.9,0.6,7.5,1.8,8.8
			h-6.3c-0.9-1.5-0.9-3.3-0.9-4.9c0-6.2-1.3-8.9-6.7-8.9h-8.6v13.8h-5.9V110.9z M647.2,126.2h9.6c3.7,0,5.7-1.8,5.7-5.4
			c0-4.3-2.8-5.1-5.8-5.1h-9.5V126.2z"/>
		<path class="st2" d="M677.8,133.7c0,3.8,2.1,7.2,6.5,7.2c3.1,0,5-1.4,5.9-4h5.1c-1.2,5.3-5.7,8.3-11,8.3
			c-7.6,0-11.9-5.3-11.9-12.8c0-6.9,4.5-12.8,11.7-12.8c7.7,0,12.4,6.9,11.5,14.2H677.8z M690.3,130.2c-0.2-3.4-2.5-6.4-6.1-6.4
			c-3.7,0-6.3,2.8-6.4,6.4H690.3z"/>
		<path class="st2" d="M703.8,136.7c0.3,3.1,2.6,4.2,5.5,4.2c2,0,5.5-0.4,5.4-3.2c-0.1-2.8-4-3.1-7.9-4c-3.9-0.8-7.8-2.3-7.8-7.2
			c0-5.3,5.7-7,10.2-7c5,0,9.5,2.1,10.2,7.5h-5.6c-0.5-2.5-2.6-3.2-4.9-3.2c-1.6,0-4.4,0.4-4.4,2.5c0,2.6,3.9,3,7.9,3.9
			c3.9,0.9,7.8,2.3,7.8,7.1c0,5.8-5.8,7.9-10.9,7.9c-6.1,0-10.7-2.7-10.8-8.5H703.8z"/>
		<path class="st2" d="M728.4,133.7c0,3.8,2.1,7.2,6.5,7.2c3.1,0,5-1.4,5.9-4h5.1c-1.2,5.3-5.7,8.3-11,8.3
			c-7.6,0-11.9-5.3-11.9-12.8c0-6.9,4.5-12.8,11.7-12.8c7.7,0,12.4,6.9,11.5,14.2H728.4z M740.9,130.2c-0.2-3.4-2.5-6.4-6.1-6.4
			c-3.7,0-6.3,2.8-6.4,6.4H740.9z"/>
		<path class="st2" d="M770.7,139.1c0,1.3,0.3,1.8,1.3,1.8c0.3,0,0.8,0,1.3-0.1v3.7c-0.8,0.3-2.5,0.6-3.4,0.6c-2.2,0-3.7-0.8-4.1-3
			c-2.1,2.1-5.5,3-8.4,3c-4.4,0-8.3-2.3-8.3-7.1c0-6.1,4.8-7,9.4-7.6c3.9-0.7,7.3-0.3,7.3-3.4c0-2.8-2.9-3.3-5-3.3
			c-3,0-5.1,1.2-5.4,3.9h-5.4c0.4-6.3,5.7-8.1,11-8.1c4.7,0,9.7,1.9,9.7,7V139.1z M765.3,132.3c-1.6,1.1-4.2,1-6.6,1.5
			c-2.3,0.4-4.4,1.2-4.4,4c0,2.4,3.1,3.1,4.9,3.1c2.4,0,6-1.2,6-4.6V132.3z"/>
		<path class="st2" d="M776.4,120.2h5v4.7h0.1c0.6-2.6,3.8-5.4,7.1-5.4c1.2,0,1.6,0.1,2,0.1v5.2c-0.8-0.1-1.6-0.2-2.3-0.2
			c-3.7,0-6.6,3-6.6,8.3v11.6h-5.4V120.2z"/>
		<path class="st2" d="M808.5,128.3c-0.4-3-2.6-4.6-5.5-4.6c-2.8,0-6.7,1.5-6.7,8.8c0,4,1.8,8.3,6.4,8.3c3.1,0,5.3-2.1,5.8-5.5h5.4
			c-1,6.3-4.9,9.8-11.1,9.8c-7.6,0-11.8-5.4-11.8-12.5c0-7.3,4-13.1,12-13.1c5.6,0,10.4,2.8,11,8.8H808.5z"/>
		<path class="st2" d="M818.3,110.9h5.4v12.5h0.1c1.3-2.2,4.1-3.9,7.3-3.9c5.3,0,8.6,2.8,8.6,8.3v16.7h-5.4v-15.3
			c-0.1-3.8-1.6-5.5-4.7-5.5c-3.6,0-5.9,2.8-5.9,6.4v14.3h-5.4V110.9z"/>
	</g>
</g>
</svg>
