<?xml version="1.0" encoding="utf-8"?>
<!-- Generator: Adobe Illustrator 28.3.0, SVG Export Plug-In . SVG Version: 6.00 Build 0)  -->
<svg version="1.1" id="Layer_1" xmlns="http://www.w3.org/2000/svg" xmlns:xlink="http://www.w3.org/1999/xlink" x="0px" y="0px"
	 viewBox="0 0 400 400" style="enable-background:new 0 0 400 400;" xml:space="preserve">
<style type="text/css">
	
		.st0{opacity:0.1;fill:#FFFFFF;stroke:#FFFFFF;stroke-width:18;stroke-linecap:round;stroke-linejoin:round;stroke-miterlimit:10;enable-background:new    ;}
	.st1{fill:#C72326;}
</style>
<rect x="11.9" y="10.2" class="st0" width="376.9" height="381.4"/>
<g>
	<path d="M10.2,287.5h27.1V285c-3.4-0.2-11-2-11-5.8c0-1.6,0.4-3.8,1.1-6c0.9-3.4,2-6.9,3.8-11.9h23l5.8,17c0.2,0.9,0.4,1.8,0.4,2.5
		c0,2.7-6.3,4-9.6,4.2v2.5h31.3V285c-1.8,0-4.9-0.9-6.5-2c-2.5-1.6-2.9-3.1-3.8-5.1c-3.6-10.3-13-37.4-22.8-65.3h-4.5
		c-7.4,20.8-15.2,43.6-22.1,62.2c-1.6,3.8-3.1,6.9-5.6,8.5c-1.8,1.1-4.9,2-6.9,2L10.2,287.5L10.2,287.5z M32.4,257.8l10.3-30
		l10.5,30H32.4z"/>
	<path d="M99,288.8c6,0,10.7-4.2,12.7-6.7h0.4v4.7l0.7,0.7l17.2-1.1v-2c-1.8,0-4.7-0.4-5.8-1.3c-1.6-1.1-2.2-3.1-2.5-5.1v-70.2
		l-0.9-0.9l-19.9,1.1v2c2.7,0.2,6.9,1.1,8.5,2.5c1.6,1.1,2.5,4,2.7,6.3v21.5c-1.1-0.4-5.6-2.9-11.6-2.9c-11.4,0-21.5,10.5-21.5,25.1
		C79.1,278.6,87.8,288.8,99,288.8z M102.8,284.1c-9.2,0-13-10.1-13-20.8c0-14.8,4.9-23.7,11.9-23.7c6.3,0,9.4,5.1,10.5,8.9v30.6
		C109.5,282.4,107.3,284.1,102.8,284.1z"/>
	<path d="M149.3,288.2h3.6c1.3-4.7,2.7-8.1,3.8-11.6c4-11.4,7.6-20.1,11.4-30c1.3-3.4,5.6-5.6,7.6-6v-1.8h-18.3v2.2
		c1.6,0.2,7.4,1.8,7.4,4c0,0.9-0.2,2.2-0.4,3.1c-3.4,10.3-6.3,17.9-9.6,27.1c-4-11-8.7-23.7-10.5-29.1c-0.4-1.3-0.7-2.2-0.7-2.2
		c0-1.8,3.4-2.2,5.6-2.2v-2.5h-22.8v2.2c2.9,0.4,6.3,2.2,7.4,5.1C140.2,263.8,142.6,269.2,149.3,288.2z"/>
	<path d="M185.6,288.8c5.8,0,10.7-2.9,14.3-7.4h0.2c1.6,4.9,4.2,7.2,8.7,7.2c6,0,10.1-4,10.5-13.9h-2.5c-0.2,4.2-0.7,8.3-3.4,8.3
		c-2.9,0-4.5-3.6-4.5-5.4c0-3.6,0.4-14.5,0.4-24.2c0-14.3-7.4-15.9-17-15.9c-7.6,0-15.9,4.9-15.9,11.6c0,3.1,1.3,5.6,4.5,5.6
		c3.4,0,6.5-2,6.5-4.7c0-2.5-0.9-4.7-0.9-6.3c0.9-1.1,2.2-3.8,5.4-3.8c7.8,0,8.1,8.9,8.1,11v6c-4,2.7-10.7,4.2-16.3,6.7
		c-4.7,2-9.4,4.9-9.4,13.9C174.4,284.1,178.9,288.8,185.6,288.8z M190.9,283.7c-3.8,0-6.3-2.9-6.3-8.1c0-9.6,6.5-12.7,15.4-15.9
		l-0.4,19C197.7,281.9,195.9,283.7,190.9,283.7z"/>
	<path d="M219.6,287.5h23.5v-2.2c-1.6,0-3.1-0.4-4.5-1.3c-1.6-0.9-2.5-2.5-2.5-4.7v-29.7c0.9-2.5,4.7-6.9,11.4-6.9
		c4,0,7.8,4,7.8,11.6v25.5c0,2.5-0.7,4.2-2.7,4.7c-1.1,0.4-2.9,0.7-4.5,0.7v2.2h23.7V285c-1.8,0-2.9-0.4-4.5-1.1
		c-1.8-0.9-2.5-2.5-2.5-4.7v-24.8c0-10.3-4-17-13.2-17c-8.3,0-11.9,4.7-15.4,8.9V239l-0.7-0.7l-16.3,1.1v2c1.8,0,3.8,0.9,4.9,1.8
		c1.6,1.1,2.5,3.6,2.7,5.6v30.9c0,2.5-0.9,4.2-2.7,4.7c-1.3,0.4-2.7,0.7-4.2,0.7v2.5L219.6,287.5L219.6,287.5z M295.8,288.8
		c7.8,0,14.5-5.6,18.3-13l-2.2-1.6c-2.9,6.3-7.2,9.6-13.9,9.6c-8.5,0-13-9.2-13-22.1c0-16.3,5.6-21.9,11.4-21.9c3.1,0,4.7,0.7,5.4,4
		c0,2-1.3,2.2-1.3,6.7c0,4.2,3.8,5.4,5.8,5.4c3.4,0,5.4-2.5,5.4-6c0-6.5-5.1-12.5-15-12.5c-13.6,0-21.9,12.3-21.9,25.5
		C274.6,277.7,281.5,288.8,295.8,288.8z M336.3,288.8c8.3,0,14.8-5.4,18.3-13.2l-2-1.3c-3.6,6.5-6.3,9.6-13.6,9.6
		c-10.1,0-14.1-10.1-14.1-23.7v-1.1h28.9v-0.9c0-11.2-4.9-20.8-18.6-20.8c-13.2,0-20.8,12.5-20.8,25.3
		C314.6,276.8,321.6,288.8,336.3,288.8z M324.9,256.6c0.2-10.3,4.5-16.8,10.3-16.8c6.9,0,8.5,8.9,8.5,16.6L324.9,256.6z
		 M373.2,289.1c8.9,0,16.8-5.8,16.8-15.4c0-8.9-5.8-13-13.6-15.9c-7.6-2.9-11-4.5-11-10.1c0-3.8,2.5-7.8,7.8-7.8
		c6.5,0,11.4,6,12.5,12.3h2.2l-0.7-14.8h-2.9l-0.7,2.9c-2.5-1.8-6.5-2.9-10.3-2.9c-8.7,0-15,6.3-15,14.3c0,9.4,7.4,13,13.6,15.2
		c7.2,2.5,11,4.7,11,10.3c0,5.1-2.7,9.4-8.9,9.4c-7.8,0-13.4-9.8-14.3-15h-2.2l0.4,16.8h3.1l0.9-3.4
		C363.2,286.4,368.5,289.1,373.2,289.1z"/>
	<path class="st1" d="M18.1,188.2l-3.6,5.4h-3.8L10,166.5h2.7c4.5,12.3,11.4,23.9,24.6,23.9c9.6,0,14.3-6,14.3-14.5
		c0-6.9-3.6-12.3-10.5-15.4c-6-2.5-10.3-4.2-16.3-6.9c-8.1-3.6-13-10.3-13-20.4c0-12.3,9.6-21.2,22.4-21.2c5.6,0,12.5,2.2,16.3,5.6
		l3.4-5.1h3.8l0.7,26.2h-2.7c-4.2-13.2-9.4-23.3-23.7-23.3c-3.1,0-11,2.7-11,11.9c0,6.9,2.9,11.2,9.6,15c5.4,3.1,10.7,4.5,15.4,6.9
		c8.5,4.2,15,8.9,15,21c0.4,13.9-10.1,23.9-24.4,23.9C27.7,194,21.4,190.9,18.1,188.2z"/>
	<path class="st1" d="M64.6,166.1c0-14.3,8.9-27.5,23.9-27.5c10.7,0,16.3,6.5,16.3,13.4c0,3.8-2.2,6.5-5.8,6.5
		c-2.2,0-6.3-1.3-6.3-5.8c0-4.9,1.3-4.9,1.3-7.2c-0.7-3.4-2.2-4.2-5.8-4.2c-6.3,0-12.3,6.3-12.3,23.7c0,14.1,5.1,23.7,13.9,23.7
		c7.2,0,11.6-3.6,14.8-10.3l2.5,1.8c-3.8,7.6-11.4,13.9-19.7,13.9C72.2,193.8,64.6,181.9,64.6,166.1z"/>
	<path class="st1" d="M113.3,118.2c0-3.8,2.9-7.2,6.9-7.2c4.2,0,7.2,3.1,7.2,6.9c0,4-2.9,7.4-7.2,7.4
		C116.5,125.1,113.3,122,113.3,118.2z M108.4,190.2c2-0.2,3.4-0.4,4.7-0.9c2-0.7,2.7-2.9,2.7-5.1v-33.3c-0.2-2.2-1.1-4.5-2.7-5.8
		c-1.3-0.9-4.5-2.2-6.5-2.2v-2.2l18.8-1.3l0.7,0.9v43.4c0,2.2,1.1,4.5,2.7,5.4c1.8,0.9,3.4,1.3,4.7,1.6v2.2h-25.1V190.2z"/>
	<path class="st1" d="M165,158.9c0-8.3-1.8-17.9-8.9-17.9c-6.3,0-10.7,7.2-11.2,18.1L165,158.9z M133.7,165.8
		c0-13.9,8.3-27.3,22.6-27.3c14.5,0,19.9,10.5,19.9,22.1v1.1h-31.3v1.3c0,15,4.2,25.7,15.2,25.7c7.8,0,10.7-3.1,14.5-10.3l2.2,1.6
		c-3.6,8.3-10.7,14.1-19.7,14.1C140.8,193.8,133.7,181,133.7,165.8z"/>
	<path class="st1" d="M176.6,190.2c2-0.2,3.4-0.4,4.7-0.9c2-0.7,2.7-2.5,2.7-5.1v-33.3c-0.2-2.2-1.1-4.9-2.7-6.3
		c-1.1-0.9-3.4-1.8-5.4-2v-2.2l17.9-1.3l0.9,0.9v7.8c4-4.2,8.1-9.6,16.8-9.6c9.6,0,14.1,7.2,14.1,18.3v26.6c0,2.5,0.9,4.2,2.7,5.1
		c1.6,0.7,2.7,1.1,4.9,1.3v2.2h-25.5v-2.2c1.8-0.2,3.6-0.4,4.9-0.9c2-0.7,2.7-2.5,2.7-5.1v-26.8c0-7.8-3.8-12.3-8.3-12.3
		c-7.4,0-11.4,4.9-12.3,7.4v31.8c0,2.5,0.9,4.2,2.7,5.1c1.3,0.9,3.1,1.3,4.9,1.6v2.2h-25.7V190.2z"/>
	<path class="st1" d="M231.2,166.1c0-14.3,8.9-27.5,23.9-27.5c10.7,0,16.3,6.5,16.3,13.4c0,3.8-2.2,6.5-5.8,6.5
		c-2.2,0-6.3-1.3-6.3-5.8c0-4.9,1.3-4.9,1.3-7.2c-0.7-3.4-2.2-4.2-5.8-4.2c-6.3,0-12.3,6.3-12.3,23.7c0,14.1,5.1,23.7,13.9,23.7
		c7.2,0,11.6-3.6,14.8-10.3l2.5,1.8c-3.8,7.6-11.4,13.9-19.7,13.9C239,193.8,231.2,181.9,231.2,166.1z"/>
	<path class="st1" d="M305.2,158.9c0-8.3-1.8-17.9-8.9-17.9c-6.3,0-10.7,7.2-11.2,18.1L305.2,158.9z M273.9,165.8
		c0-13.9,8.3-27.3,22.6-27.3c14.5,0,19.9,10.5,19.9,22.1v1.1h-31.1v1.3c0,15,4.2,25.7,15.2,25.7c7.8,0,10.7-3.1,14.5-10.3l2.2,1.6
		c-3.6,8.3-10.7,14.1-19.7,14.1C281.5,193.8,273.9,181,273.9,165.8z"/>
</g>
</svg>
