<?xml version="1.0" encoding="utf-8"?>
<!-- Generator: Adobe Illustrator 28.3.0, SVG Export Plug-In . SVG Version: 6.00 Build 0)  -->
<svg version="1.1" id="Layer_1" xmlns="http://www.w3.org/2000/svg" xmlns:xlink="http://www.w3.org/1999/xlink" x="0px" y="0px"
	 viewBox="0 0 400 400" style="enable-background:new 0 0 400 400;" xml:space="preserve">
<style type="text/css">
	
		.st0{opacity:0.1;fill:#FFFFFF;stroke:#FFFFFF;stroke-width:18;stroke-linecap:round;stroke-linejoin:round;stroke-miterlimit:10;enable-background:new    ;}
	.st1{fill:#080808;}
	.st2{fill:#C8282A;}
</style>
<rect x="11.1" y="9.3" class="st0" width="376.9" height="381.4"/>
<g>
	<g>
		<path class="st1" d="M375,226.5c-2.8,0.7-4.2,2.6-5.2,5.2c-3.7,10.5-7.5,21-11.8,31.2c-1.2,2.9-2.6,5.6-4.8,7.8
			c-1.7,1.7-3.7,2.4-6,2.3c-3.9-0.2-6.1-4.3-4.1-7.6c0.9-1.5,2.2-2.3,4.1-1.9c1.8,0.4,2.5,1.7,2.7,3.3c0.1,0.6,0,1.4,0,2
			c0.7,0.3,1.1-0.3,1.5-0.6c0.6-0.6,1.3-1.4,1.8-2.1c2.7-3.7,4-7.2,1.8-12c-3.3-7.5-5.8-15.3-8.5-23c-0.7-2.1-2-3.7-4.2-4.2
			c-1.3-0.4-1.2-1.1-1.2-2.1c0-1.3,0.9-0.8,1.6-0.9c4,0,7.9,0,11.9,0c0.7,0,1.6-0.1,1.4,1.1c-0.1,0.8,0.2,1.7-1.2,1.8
			c-2.7,0.4-2.9,0.7-1.9,3.3c2.3,6.6,4.6,13.2,7,20.1c1.7-4,2.9-7.8,4.2-11.6c0.8-2.3,1.7-4.7,2.4-7c1-3,0.7-3.6-2.4-4.8
			c-0.5-0.2-1.4,0-1.4-0.8c-0.1-1-0.5-2.1,1.5-2.1c3.6,0,7.3,0.3,10.9-0.2C375,224.6,375,225.5,375,226.5z"/>
		<path class="st1" d="M114.2,228.9c3.1-2.9,5.9-5.9,10.4-6c4.6-0.1,7.4,2.5,8.9,6.1c1.2-1,2.4-2.1,3.6-3.2c2.4-2.1,5.2-3.1,8.3-2.9
			c3.2,0.3,5.4,1.9,6.6,4.8c1,2.2,1.3,4.6,1.3,7.1c0,6,0,12,0,18c0,3.2,0.6,4.1,3.8,4.7c1.4,0.2,1.1,0.9,1.2,1.8
			c0.1,1.3-0.8,1-1.5,1c-4.3,0-8.7,0-12.9,0c-0.7,0-1.6,0.2-1.5-1c0.1-0.9-0.1-1.6,1.3-1.7c2.6-0.2,3.4-1.1,3.4-3.8
			c0-6.3,0-12.5,0-18.8c0-0.4,0-0.6-0.1-1c-0.5-4.3-2.5-6.6-5.7-6.4c-3.9,0.2-7.4,3.8-7.4,7.4c0,6,0,12,0,18c0,3,0.6,4.1,3.7,4.6
			c1.3,0.3,1.2,0.9,1.2,1.8c0,1.3-0.9,0.9-1.6,0.9c-4.2,0-8.5,0-12.7,0c-0.7,0-1.6,0.2-1.5-1c0.1-0.9-0.1-1.6,1.3-1.7
			c2.5-0.2,3.2-1.2,3.2-3.7c0-6.4,0-12.8,0-19.2c0-2.9-0.7-5.5-3.7-6.8c-2.3-1-5.6,0.3-7.8,2.9c-1.1,1.3-1.8,2.8-1.7,4.6
			c0.1,5.9,0,11.7,0,17.6c0,2.9,0.7,4.1,3.7,4.6c1.4,0.3,1.2,0.9,1.2,1.8c0,1.2-0.8,0.9-1.6,0.9c-9.7,0-19.2,0-28.9,0
			c-0.6,0-1.6,0.3-1.6-0.9c0-1,0.4-1.5,1.4-1.7c3-0.7,3.3-1.1,3.3-4.3c0-6,0-12,0-18c0-1-0.1-2-0.4-3c-1.2-4.8-5-6.3-9.1-3.6
			c-2.4,1.6-3.9,3.6-3.8,6.8c0.2,5.8,0.1,11.6,0.1,17.4c0,2.9,0.6,4,3.5,4.5c1.3,0.3,1.2,0.8,1.3,1.8c0.1,1.2-0.7,1-1.5,1
			c-4.2,0-8.5,0-12.7,0c-0.9,0-1.6,0-1.6-1.2c0-0.9,0.2-1.4,1.3-1.5c2.5-0.3,3.3-1.3,3.4-3.9c0-6.2,0-12.2,0-18.4
			c0-0.9-0.2-1.8-0.4-2.8c-1-4.8-4.9-6.4-8.9-3.8c-2.5,1.7-4.1,3.8-4.1,7.1c0.2,5.6,0.1,11.3,0.1,16.9c0,2.9,0.8,4.1,3.6,4.7
			c1.3,0.3,1.2,0.8,1.3,1.8c0.1,1.2-0.7,1-1.5,1c-4.3,0-8.7,0-12.9,0c-0.7,0-1.5,0.2-1.5-1c0.1-0.9-0.1-1.6,1.3-1.7
			c2.7-0.2,3.5-1.2,3.5-3.9c0-7.2,0-14.4,0-21.6c0-2.8-1.2-4.2-4.1-5c-1.1-0.3-1.1-0.7-1.2-1.7c-0.1-1.1,0.6-1.1,1.4-1.2
			c2.9-0.2,5.6-0.4,8.5-0.6c1.2-0.1,1.6,0.4,1.5,1.5c-0.1,1.3,0,2.7,0,4.6c2.9-3.6,5.7-6.4,10.1-6.6c4.6-0.2,7.5,2.2,9.2,6.4
			c1-1.1,1.9-2.1,2.9-3c1.9-2,4.3-3.2,7.1-3.4c5.3-0.4,8.8,2.8,9.5,8.8c0.6,4.8,0.2,9.7,0.3,14.6c0,2.6,0,5.2,0.1,7.6
			c0,1.8,0.9,2.9,2.8,3.4c1.4,0.4,2.7,0.4,4,0.2c2.2-0.4,3-1.2,3.1-3.5c0.1-7.5,0.1-14.9,0-22.4c0-2.5-1.2-3.9-3.8-4.5
			c-1.1-0.3-1.6-0.6-1.5-1.8c0.1-1.4,1.1-1,1.8-1c2.8-0.3,5.5-0.5,8.2-0.6c1-0.1,1.4,0.2,1.3,1.2
			C114.2,226.1,114.2,227.5,114.2,228.9z"/>
		<path class="st1" d="M203.4,229.2c2.8-2.9,5.1-5.4,8.7-6.1c5.8-1.1,10.1,1.7,11.1,7.6c0.3,1.5,0.4,3,0.4,4.6c0,5.9,0,11.7,0,17.6
			c0,2.9,0.6,3.9,3.5,4.5c1.3,0.3,1.4,0.8,1.4,1.9c-0.1,1.3-0.9,0.9-1.6,0.9c-4.4,0-8.8,0-13.2,0c-0.9,0-1.5-0.1-1.5-1.3
			c0-1,0.2-1.4,1.3-1.4c2.8-0.2,3.6-1.2,3.6-4c0-6.2,0-12.4,0-18.6c0-0.6,0-1.1-0.1-1.7c-0.7-5.3-5.1-7.6-9.7-4.8
			c-2.6,1.6-4.3,3.6-4.1,7c0.3,5.6,0.1,11.3,0.1,16.9c0,3.1,0.6,4.1,3.7,4.8c1.3,0.3,1.4,0.9,1.3,1.8c0,1.5-1.1,0.9-1.8,0.9
			c-3.6,0-7.2,0.1-10.7,0c-1.3-0.1-2.9,0.9-3.9-0.9c0-0.1-0.6,0.2-0.9,0.2c-3,0.3-6.1,0.5-9,0.7c-1,0.1-1.4-0.3-1.3-1.2
			c0-1.2,0-2.4,0-4.1c-0.8,0.9-1.5,1.6-2,2.2c-2.7,2.9-6,4.2-9.9,3.9c-3.2-0.3-5.3-2-6.5-4.9c-1-2.3-1.3-4.8-1.3-7.3
			c0-5.3,0-10.8,0-16.1c0-3.5-0.8-4.8-4.1-5.6c-1.1-0.3-0.9-0.8-1-1.6c-0.1-0.9,0.5-1.1,1.2-1.2c2.9-0.2,5.6-0.4,8.5-0.7
			c1.6-0.2,1.8,0.4,1.8,1.8c-0.1,4.9,0,9.7,0,14.6c0,3.6,0,7.1,0.1,10.7c0.1,2.6,1,5.1,3.7,6c2.8,1,5.2-0.2,7.1-2.1
			c1.8-1.7,2.7-3.5,2.6-6.1c-0.2-5.2-0.1-10.4-0.1-15.6c0-4.2-0.9-5.3-5.1-5.9c-0.8-0.1-1.1-0.4-1.1-1.2c0-0.8,0.2-1.4,1.2-1.5
			c3.3-0.2,6.7-0.6,10-0.7c1.5-0.1,1.1,1,1.1,1.8c0,8.7,0,17.4,0,26.1c0,1.3,0.1,2.6,0.8,3.7c1.3,2,5.8,3.2,7.9,2
			c1.4-0.7,1.6-2.1,1.6-3.5c0-3.4,0-6.7,0-10.1c0-3.6,0-7.1,0-10.7c0-3.8-0.7-4.8-4.3-5.9c-1-0.3-0.7-0.9-0.8-1.6
			c-0.1-0.7,0.2-1.1,1-1.2c3-0.2,6.1-0.4,9-0.6c1-0.1,1.3,0.4,1.3,1.3C203.4,226.1,203.4,227.4,203.4,229.2z"/>
		<path class="st1" d="M315.3,256.2c-3.3-1.4-6.4-2.4-6.3-6.4c0.1-3.3,2.5-4.5,5.1-5.7c-0.3-0.2-0.5-0.4-0.6-0.5
			c-4.9-2.9-7-7.5-5.7-12.5c1.2-4.7,5.7-8,11-8.3c2.9-0.1,5.6,0.6,8.2,1.8c1,0.5,1.7,0.6,2.8-0.2c1.8-1.3,3.8-1.7,5.9-1.6
			c1.8,0.1,2.7,1.3,3,2.8c0.4,1.7,0.3,3.4-1.4,4.5c-1.8,1.2-3.9,0.1-4.2-2.2c-0.1-0.6,0.3-1.7-0.7-1.8c-1-0.2-2,0.2-2.9,0.8
			s0,1,0.3,1.5c4,7.1,0.6,14.7-7.4,16.5c-1.7,0.4-3.3,0.2-5.1,0.2c-1.9,0.1-3.4,1.1-3.5,2.6c-0.1,1.6,1,2.9,3.1,3
			c3.3,0.3,6.7,0.4,10,0.6c5.2,0.3,8.7,2.7,9.8,6.9c1.3,4.8-0.6,9.3-5,12c-4.7,2.9-9.9,3.2-15.2,2.7c-2.3-0.2-4.5-0.6-6.5-1.7
			c-3.2-1.7-4.8-4.5-4.4-7.9c0.4-3.2,2.6-5.4,6.2-6.3C312.6,256.5,313.7,256.5,315.3,256.2z M322.4,257.5c-2.8-0.2-5.5-0.5-8,1
			c-2.2,1.3-3.2,3.2-3.2,5.6c0,2.2,1.6,3.5,3.4,4.3c3.2,1.6,6.7,1.7,10.2,0.9c2.2-0.5,4.2-1.5,5.5-3.4c2.7-4,0.8-8-3.9-8.4
			C325.1,257.6,323.8,257.5,322.4,257.5z M324.9,234.1c0.1-2.1-0.3-4.1-1.5-6c-1-1.7-2.7-2.3-4.5-2.2c-1.9,0.1-3.6,0.9-4.3,2.9
			c-1.5,3.9-1.5,7.6,0.6,11.3c1.8,3.2,6.1,3.2,8.2,0.1C324.6,238.2,325,236.2,324.9,234.1z"/>
		<path class="st1" d="M35.7,260.2c-3.1,0-6.2-0.1-9.3,0c-1.1,0-1.4-0.4-1.3-1.4c0.1-0.8-0.2-1.8,1.3-1.7c0.6,0.1,1.4,0,2-0.1
			c2.8-0.4,3.8-1.6,3.8-4.2c0-12.2,0-24.5,0-36.8c0-4.8-0.7-5.6-5.4-6.5c-0.9-0.2-1.7-0.2-1.7-1.5c0-1.4,0.4-1.7,1.8-1.7
			c6.1,0.1,12.2,0,18.1,0c0.8,0,1.8-0.3,1.7,1.2c-0.1,1.1,0,2-1.5,1.9c-0.6,0-1.2,0.1-1.8,0.2c-3.1,0.6-3.9,1.5-3.9,4.6
			c0,12.5,0,25.1,0,37.6c0,3.5,1.2,4.7,5.5,5.2c1.5,0.2,1.7,0.6,1.7,1.9c0,1.7-1.2,1.1-1.9,1.1C41.7,260.2,38.7,260.2,35.7,260.2z"
			/>
		<path class="st1" d="M259.9,241.3c-0.1,4.9-0.9,9.2-3.4,13.1c-5.7,8.9-18,9.2-24.1,0.6c-5-7-5.1-18.9-0.1-25.9
			c6.3-8.8,19.7-8.1,25,1.5C259.2,234,259.9,237.8,259.9,241.3z M253.1,241.5c-0.1-3.5-0.3-7.3-1.8-10.8c-1.3-2.9-3.3-5-6.7-5
			c-3.4,0-5.8,1.8-6.9,4.9c-2.9,7.6-2.8,15.2,0.3,22.8c1.2,2.9,3.3,4.8,6.6,4.7c3.2-0.1,5.1-2.1,6.4-4.8
			C252.6,249.7,252.9,245.8,253.1,241.5z"/>
		<path class="st1" d="M274.2,242c-0.1-3.9,0.6-7.6,2.5-11.1c2.9-5.3,7.3-8.1,13.4-8.1c6.1,0,10.5,2.9,13,8.3
			c3.6,7.6,3.4,15.5-0.8,22.8c-5.4,9.4-18.1,9.8-24.4,0.8C275.2,250.9,274.1,246.7,274.2,242z M281.1,241.5c-0.1,4,0.3,7.9,1.9,11.6
			c1.3,2.9,3.4,5.1,6.8,5.1c3.4,0,5.2-2.3,6.5-5.2c1.2-2.8,1.7-5.6,1.8-8.6c0.3-4.9,0.1-9.7-2-14.2c-1.3-2.8-3.5-4.5-6.6-4.5
			c-3.1,0-5.2,1.8-6.5,4.5C281.4,233.9,281.1,237.7,281.1,241.5z"/>
		<path class="st1" d="M270.2,231.5c0,7.1,0,14.2,0,21.2c0,3.1,0.6,4.1,3.5,4.7c1.3,0.3,1.2,1,1.2,1.8c0,1.2-0.8,0.9-1.6,0.9
			c-4.2,0-8.5,0-12.7,0c-0.8,0-1.6,0-1.6-1.2c0-0.9,0.2-1.4,1.3-1.5c2.9-0.4,3.6-1.2,3.6-4.2c0-11.9,0-23.7,0-35.6
			c0-4.5-0.9-5.7-5.3-6.5c-1.2-0.2-1.1-0.8-1.2-1.7c-0.1-1.1,0.6-1.2,1.4-1.2c3.1-0.2,6.2-0.4,9.2-0.7c1.7-0.2,2.1,0.4,2.1,1.9
			C270.2,216.9,270.2,224.2,270.2,231.5z"/>
	</g>
	<g>
		<path class="st2" d="M25,170.6c1.7-0.3,2.3,0.6,2.9,2c1.8,4.7,4.1,9.1,7.7,12.6s8,4.9,13,4.2c6.3-0.8,9.9-6.1,9-12.8
			c-0.6-5.2-3.5-8.6-8.2-10.6c-4.6-2-9.3-3.9-13.8-6.1c-6.2-3.1-9-8.4-9-15.3c0-6.7,2.9-11.9,8.7-15c6.7-3.6,13.4-2.7,19.8,1.1
			c1.7,1,2.2,0.6,2.9-0.8c0.2-0.5,0.6-0.9,0.8-1.4c0.7-1.4,2-0.8,3-0.7c1.1,0.1,0.6,1.2,0.6,1.8c0.2,5.7,0.3,11.4,0.4,17.1
			c0,0.6,0.6,1.7-0.8,1.8c-1.2,0.2-1.4-0.6-1.8-1.5c-1.8-4.8-3.5-9.5-7.4-13c-3.6-3.2-7.9-4.6-12.5-3.5c-7.1,1.8-9.1,11.3-3.7,17.1
			c2.6,2.7,5.8,4.3,9.1,5.8c3.5,1.5,7.2,2.8,10.5,4.7c7.3,4.3,10.2,10.3,8.8,18.4c-1.4,7.9-7,13.8-14.7,15.2
			c-6.4,1.2-12.5,0.4-18.1-3.1c-1.2-0.7-1.5-0.4-2.1,0.6c-0.8,1.2-1.2,3.1-3.4,2.9c-1.1-0.1-1.5-0.4-1.6-1.5
			c-0.1-1.4,0.5-2.8-0.4-4.1C25,181.4,25,176,25,170.6z"/>
		<path class="st2" d="M113.6,127c2.3,1.4,4,3,3.7,6.1c-0.3,2.7-2.1,4.8-4.5,5.2c-2.7,0.5-5.2-0.9-6.2-3.4c-0.9-2.4-0.2-5.3,1.9-6.8
			c0.5-0.4,0.9-0.6,1.5-1C111.1,127,112.4,127,113.6,127z"/>
		<path class="st2" d="M170.1,155.9c1.4-1.4,2.5-2.4,3.5-3.4c3.4-3.2,7.6-4.3,12.2-3.6c4.5,0.7,7.6,4.5,8.4,9.9
			c0.2,1.7,0.4,3.3,0.4,5.1c0,6.6,0,13.4,0,20c0,3.3,1,4.6,4.2,5.3c0.8,0.2,1.7,0.1,1.6,1.3c-0.1,1.3-1.1,0.8-1.7,0.8
			c-5.6,0-11.1,0-16.8,0c-0.6,0-1.6,0.5-1.7-0.8c-0.1-1.3,0.8-1.1,1.6-1.3c3.4-0.5,4.3-1.5,4.3-4.9c0-7.1,0-14.3,0-21.4
			c0-1.8-0.3-3.6-0.9-5.3c-1.4-3.4-3.8-4.7-7.4-4.1c-5,0.8-7.6,4-7.6,8.8c0,7,0,14,0,21c0,3.7,1,5,4.5,5.7c0.8,0.2,1.4,0.4,1.3,1.4
			c-0.1,1.2-0.9,0.7-1.5,0.7c-5.7,0-11.4,0-17.2,0c-0.6,0-1.4,0.4-1.5-0.7c-0.1-1,0.6-1.2,1.4-1.3c4-0.6,4.7-1.5,4.7-5.3
			c0-8.1,0-16.1,0-24.2c0-4.3-1.2-6-5.4-7.3c-0.6-0.2-1-0.5-1-1.2c0-0.8,0.6-0.8,1.1-0.8c4.1-0.3,8.2-0.6,12.2-0.9
			c1.1-0.1,1.4,0.6,1.4,1.5C170.1,152.4,170.1,153.9,170.1,155.9z"/>
		<path class="st2" d="M253.4,167.2c-3.6,0-7.2,0-10.7,0c-0.9,0-1.6,0.1-1.6,1.3c0.2,4.1,0.4,8.2,1.8,12.1c2.3,6.1,6.6,8.6,13,7.5
			c3.6-0.6,5.6-3.1,7.5-6c0.4-0.6,0.3-2.2,1.8-1.4c1.7,0.8,0.5,1.8,0,2.7c-3.6,6.2-8.8,9.7-16.2,9.1c-7.5-0.6-12.5-4.6-15-11.6
			c-3.1-9-2.8-17.8,3.1-25.7c5.8-7.8,17.9-8.7,24.1-1.9c3.4,3.7,4.2,8.3,4.3,13.1c0,1.3-0.8,0.9-1.6,1
			C260.6,167.2,257,167.2,253.4,167.2z M248.9,165L248.9,165c2.2-0.1,4.4-0.1,6.6-0.1c0.9,0,1.3-0.3,1.3-1.3
			c-0.1-2.9-0.4-5.8-1.5-8.5c-2.1-5.1-7.4-5.8-10.8-1.4c-2.3,2.9-3,6.4-3.2,10.1c-0.1,0.9,0.4,1.1,1.1,1.1
			C244.6,165,246.8,165,248.9,165z"/>
		<path class="st2" d="M140,148.7c11.1,0,15.4,8.4,15.3,17.4c0,1.4-0.9,1.1-1.7,1.1c-6.9,0-13.9,0.1-20.8,0c-1.6,0-2,0.4-1.9,2
			c0.2,4,0.6,7.9,2,11.7c1.7,4.2,4.4,7.1,9.1,7.5c4.6,0.4,8.3-1.5,10.7-5.5c0.3-0.6,0.6-1,0.9-1.6c0.3-0.5,0.4-1.3,1.3-0.6
			c0.6,0.5,1.1,0.8,0.6,1.8c-3,5.6-7.3,9.6-13.9,10c-6.7,0.6-12.3-1.8-16-7.6c-5.1-7.9-4.9-20.8,0.4-28.6
			C129.4,151.1,134.1,148.6,140,148.7z M138.6,165L138.6,165c2.2-0.1,4.4-0.1,6.6-0.1c0.9,0,1.4-0.2,1.4-1.2
			c-0.2-2.8-0.3-5.5-1.3-8.1c-0.9-2.4-2.3-4.3-5.1-4.6c-2.7-0.3-4.7,1.1-6.2,3.2c-2,2.9-2.7,6.3-3,9.7c-0.1,1,0.4,1.2,1.3,1.2
			C134.3,165,136.4,165,138.6,165z"/>
		<path class="st2" d="M207.8,170.2c-0.1,3,0.4,6.9,1.8,10.6c1.6,3.9,4,7,8.5,7.4c4.4,0.4,8-1.5,10.5-5.2c0.5-0.6,0.7-1.3,1.2-1.8
			c0.3-0.5,0.4-1.3,1.3-0.6c0.6,0.5,1.3,0.6,0.8,1.7c-2.7,6.4-11,11.1-17.9,10c-7.7-1.2-12.6-5.8-14.5-14.2
			c-1.8-8.1-1.1-15.9,4.2-22.8c5.1-6.4,14.5-8.6,21.3-4.8c3.8,2.1,5.9,6.4,5.1,10.3c-0.6,2.5-2.5,4-5,3.7c-2.7-0.3-4.4-2-4.5-4.6
			c0-1.4,0.2-2.8,0.6-4.1c0.9-2.6-0.4-4.5-3.1-4.8c-3.7-0.3-6.2,1.6-7.8,4.6C208.2,159.9,207.8,164.6,207.8,170.2z"/>
		<path class="st2" d="M67.8,170.7c0.1-7.2,2.1-13.5,7.9-18.2c5-4.1,10.8-4.8,16.8-2.8c4.5,1.5,7.1,5.5,6.9,10
			c-0.1,2.9-2,4.8-4.7,4.8c-2.9,0-4.9-1.9-5-5c0-1.4,0.3-2.7,0.7-4c0.8-2.5-0.4-4.2-2.9-4.6c-3.4-0.4-5.9,1-7.6,3.9
			c-2.2,3.5-2.7,7.4-3,11.4c-0.4,4.5-0.1,9,1.3,13.4c1.5,4.4,3.8,8.2,9,8.6c5.1,0.4,8.8-2.1,11.2-6.4c0.5-0.7,0.6-2.2,2-0.9
			c0.6,0.5,0.6,0.9,0.3,1.6c-2.9,5.2-8.8,10.4-16.1,10c-7.3-0.4-12.8-4.4-15.3-11.4C68.3,177.6,67.8,174.2,67.8,170.7z"/>
		<path class="st2" d="M116.5,167.7c0,5.2,0,10.3,0,15.6c0,3.6,1,5,4.5,5.9c0.8,0.2,1.6,0.2,1.5,1.4c-0.2,1.3-1.1,0.7-1.7,0.7
			c-5.6,0-11.1,0.1-16.8,0c-0.6,0-1.8,0.6-1.8-0.8c-0.1-1.3,0.8-1.1,1.6-1.2c3.2-0.4,4.4-1.7,4.4-5.1c0-8.1,0-16.3,0-24.4
			c0-4.1-1.5-6.1-5.5-7.3c-0.7-0.2-1.7,0.1-1.7-1.3s1.1-0.9,1.8-1c4.1-0.4,8-0.6,12.1-0.8c1.5-0.1,1.7,0.6,1.7,1.8
			C116.5,156.7,116.5,162.2,116.5,167.7z"/>
	</g>
</g>
</svg>
