<svg xmlns="http://www.w3.org/2000/svg" height="56" viewBox="0 0 276 56" width="276" version="1.1" fill="#005789">
<path id="logo" d="m257.1 33.6c0.1 3.1 2.7 4.4 5.5 4.4 2.1 0 4.7-.8 4.7-3.3 0-2.2-3-2.9-8.1-4-4.1-.9-8.3-2.4-8.3-7 0-6.6 5.7-8.4 11.3-8.4 5.7 0 10.9 1.9 11.5 8.3h-6.8c-.2-2.8-2.3-3.5-4.9-3.5-1.6 0-4 .3-4 2.4 0 2.6 4 2.9 8.1 3.9 4.2 1 8.3 2.5 8.3 7.3 0 6.9-5.9 9.1-11.9 9.1s-11.9-2.3-12.2-9.2h6.8zm-14.3-17.6h5.2v4.8h-5.2v12.9c0 2.4 .6 3 3 3 .8 0 1.5-.1 2.2-.2v5.6c-1.2 .2-2.8 .3-4.2 .3-4.4 0-8.2-1-8.2-6.2v-15.4h-4.3v-4.8h4.3v-7.8h7.2v7.8zm-31.1 0h6.8v4.8h0.1c1.3-3.3 4.8-5.5 8.3-5.5 .5 0 1.1 .1 1.6 .3v6.6c-.7-.2-1.7-.3-2.6-.3-5.2 0-7.1 3.8-7.1 8.4v11.7h-7.2v-26zm-16.9-.7c8.2 0 13.5 5.4 13.5 13.8 0 8.3-5.3 13.7-13.5 13.7s-13.5-5.4-13.5-13.7c0.1-8.4 5.4-13.8 13.5-13.8zm0 22.1c4.9 0 6.3-4.2 6.3-8.3 0-4.2-1.5-8.4-6.3-8.4s-6.3 4.2-6.3 8.4c0 4.1 1.5 8.3 6.3 8.3zm-42.7-21.4h6.8v3.3h0.1c1.7-2.8 4.5-4 7.8-4 8.2 0 11.8 6.6 11.8 14 0 7-3.8 13.4-11.4 13.4-3.1 0-6.1-1.4-7.8-3.9h-.1v12.4h-7.2v-35.2zm19.3 13.1c0-4.1-1.7-8.4-6.2-8.4-4.7 0-6.2 4.2-6.2 8.4s1.6 8.3 6.2 8.3c4.7 0 6.2-4.1 6.2-8.3zm-41.1 1.7c0.2 4.5 2.4 6.6 6.4 6.6 2.9 0 5.2-1.8 5.6-3.4h6.3c-2 6.1-6.3 8.8-12.2 8.8-8.2 0-13.3-5.6-13.3-13.7 0-7.8 5.4-13.8 13.3-13.8 8.9 0 13.1 7.5 12.6 15.5h-18.7zm11.6-4.6c-.7-3.6-2.2-5.5-5.7-5.5-4.5 0-5.8 3.5-5.9 5.5h11.6zm-50.7-20.1h19.4c6.4 0 10.5 4.5 10.5 9.9 0 4.2-1.7 7.4-5.7 9v0.1c3.9 1 5 4.8 5.2 8.4 .2 2.3 .1 6.5 1.5 8.5h-7.9c-1-2.3-.9-5.7-1.3-8.6-.6-3.8-2-5.4-6-5.4h-7.9v14.1h-7.8v-36zm7.9 16.2h8.7c3.5 0 5.4-1.5 5.4-5.1 0-3.5-1.9-5-5.4-5h-8.7v10.1zm-65.1-4.4c-.4-5.3-4.8-12.7-15.5-12.7-9.2 0-16.5 6.4-16.5 19 0 12.4 6.8 18.8 16.4 18.8 9 0 14.1-5.5 15.6-13.2h-7.5c-.9 4.4-3.8 6.8-8 6.8-6.3 0-8.9-5.8-8.9-12.2 0-10.2 5.3-12.5 8.9-12.5 6.2 0 7.4 4 8 6.2h7.5zm18.8 16.3c-.6 1.9-2.6 2.9-4.5 2.9-5.7 0-6.1-4.5-6.2-6.5h18.2v-1.2c0-12.2-7.2-14.7-12.5-14.7-11.7 0-12.8 10.2-12.8 13.5 0 11 5.8 14.5 13.2 14.5 4.6 0 9.8-2.1 11.7-8.5h-7.1zm-10.6-8.1c0.4-3.5 2.2-5.6 5.5-5.6 2.2 0 5 1.3 5.4 5.6h-10.9zm26.4-2e1h-7v35.9h7v-35.9zm8.7 0h-7v35.9h7v-35.9z"/>
</svg>
