<?xml version="1.0" encoding="utf-8"?>
<!-- Generator: Adobe Illustrator 28.3.0, SVG Export Plug-In . SVG Version: 6.00 Build 0)  -->
<svg version="1.1" id="Layer_1" xmlns="http://www.w3.org/2000/svg" xmlns:xlink="http://www.w3.org/1999/xlink" x="0px" y="0px"
	 viewBox="0 0 400 400" style="enable-background:new 0 0 400 400;" xml:space="preserve">
<style type="text/css">
	
		.st0{opacity:0.1;fill:#FFFFFF;stroke:#FFFFFF;stroke-width:18;stroke-linecap:round;stroke-linejoin:round;stroke-miterlimit:10;enable-background:new    ;}
	.st1{fill:#007DBD;}
</style>
<rect x="11.6" y="9.3" class="st0" width="376.9" height="381.4"/>
<path class="st1" d="M375,176h-12.9l-9.6,34.2h-0.2l-9.9-34.2h-13.5l17,48.3c-1.2,6.3-3.7,7-8,7c-1,0-1.9-0.2-2.4-0.2v9.8
	c1.8,0,3.9,0.2,5.6,0.2c10.6,0,12.2-2.3,18-19.5L375,176z M318.4,163.4h-12.2V176H300v8.8h6.3v28.2c0,5.9,1.9,10.1,12.3,10.1h1.6
	c1.9,0,3.9-0.2,5.7-0.2v-9.2c-0.8,0.2-1.8,0.2-2.6,0.2c-4.9,0-5.1-1-5.1-3.7v-25.4h7.5V176h-7.5v-12.5L318.4,163.4L318.4,163.4z
	 M294.7,159.1h-12.2v11.3h12.2V159.1z M282.5,222.1h12.2V176h-12.2V222.1z M276.1,190.2c0-10.3-7.2-15.5-16-15.5
	c-8.8,0-12.3,5.2-13.9,8H246V176h-11.7v46.3h12.2v-26.6c0-7,4.1-10.6,9.6-10.6c7.8,0,8,5.7,8,9.2v28h12.2L276.1,190.2L276.1,190.2z
	 M228,176h-12.2v26.6c0,8.4-5.4,10.6-9.4,10.6c-3.7,0-7.8-1.4-7.8-8.6v-28.7h-12.2v30.6c0,11.9,6.6,17,15.8,17
	c6.4,0,11.3-2.8,14.1-7.8h0.2v6.6h11.7V176H228z M180.3,190.2c0-10.3-7-15.5-15.8-15.5c-7.3,0-10.6,5.1-12.2,7.3
	c-2.9-4.9-6.1-7.3-12.7-7.3c-8,0-11.5,4.9-12.9,8h-0.2V176H115v46.3h12v-28.2c0-5.1,1.8-9,7.5-9c7.2,0,7.2,5.4,7.2,9.4v27.9h12
	v-27.8c0-5.5,2.1-9.4,8.2-9.4c3.5,0,6.4,2.3,6.4,9.2v28h12L180.3,190.2L180.3,190.2z M109.3,190.2c0-10.3-7-15.5-15.8-15.5
	c-7.3,0-10.6,5.1-12.2,7.3c-3.1-4.9-6.1-7.3-12.7-7.3c-8,0-11.5,4.9-12.9,8h-0.2V176H44v46.3h12v-28.2c0-5.1,1.8-9,7.5-9
	c7.2,0,7.2,5.4,7.2,9.4v27.9h12v-27.8c0-5.5,2.1-9.4,8.2-9.4c3.5,0,6.4,2.3,6.4,9.2v28h12L109.3,190.2L109.3,190.2z M38.1,159.8H25
	v62.5h13.1V159.8z"/>
</svg>
