<svg height="32" viewBox="0 0 266 32" width="266" xmlns="http://www.w3.org/2000/svg"><g><path d="m5.68 7.44.08 3.84h.08c.8-2.16 2.64-3.84 5.44-3.84 3.6 0 4.72 1.76 4.72 5.2v6.8c0 2.08.16 4.24.64 5.76h-5.84c.48-1.52.56-3.36.56-5.6v-6.4c0-1.6-.64-2.32-2.32-2.32-1.36 0-2.32.32-3.04 1.04v7.76c0 2.24.08 4.08.56 5.6h-5.84c.48-1.6.64-3.68.64-5.76v-6.32c0-1.76-.64-3.2-1.36-4.08zm19.12-.08c4.48 0 6.16 1.76 6.16 5.44v7.68c0 1.36.56 1.76 1.6 1.76.16 0 .72-.08.96-.24-.08.48-.16.8-.32 1.12-.48 1.44-1.44 2.4-3.36 2.4-2.24 0-3.36-1.52-3.44-3.2h-.08c-.72 2.24-2.16 3.2-4.48 3.2-2.8 0-4.64-1.68-4.64-4.32 0-2.8 2.56-4 5.12-5.04 2.48-.96 3.84-1.68 3.84-3.44v-.32c0-2-.56-2.96-2.4-2.96-1.12 0-1.6.48-1.84 1.6-.32 1.68-1.04 2.24-2.16 2.24-.96 0-1.92-.72-1.92-1.92.16-2.32 3.44-4 6.96-4zm1.52 14.48v-6.32c-.32.48-.8.88-2.08 1.44-1.6.8-2.24 1.68-2.24 3.52 0 1.52.88 2.48 2.16 2.48 1.36 0 1.76-.48 2.16-1.12zm17.36 1.44c-.64 1.36-2.08 2.32-4.24 2.32-3.6 0-4.96-1.76-4.96-5.12v-10.24h-1.68v-.16l6.24-6.4.08.08v4.08h4.48l-.48 2.4h-4v9.52c0 1.84.8 2.56 2.4 2.56 1.2 0 1.92-.16 2.48-.48-.08.56-.16.96-.32 1.44zm5.92-15.68v12c0 1.76.72 2.8 2.4 2.8 1.52 0 2.56-.48 3.2-1.36v-8c0-1.76-.16-3.28-.72-4.88l5.36-.56v12.4c0 2.72.32 3.92.72 5.2h-5.2v-3.44h-.08c-.72 2.24-2.16 3.84-5.2 3.84-3.84 0-5.2-2.24-5.2-5.68v-6.8c0-1.76-.16-3.28-.72-4.88zm17.76 4.24c.8-3.2 2.24-4.48 4.24-4.48 1.76 0 2.72.96 2.72 2.4 0 1.36-.72 2.4-2.16 2.4-.8 0-1.28-.32-1.6-.72-.4-.32-.72-.72-1.04-.72-.96 0-2 1.52-2 4.24v4.32c0 2.16.16 4.24.56 5.92h-5.84c.48-1.6.64-3.68.64-5.76v-6.32c0-1.68-.56-3.2-1.36-4l5.68-1.6.08.08v4.32zm14.56 13.76c-4.48 0-8.16-2.96-8.16-8.64 0-5.76 3.52-9.6 8.24-9.6 4.48 0 6.56 2.88 6.56 8.24h-10.16v.48c0 4.32 2.24 6.08 5.28 6.08 2.8 0 4-1.12 4.88-1.92l.08.32c-.8 2.56-2.88 5.04-6.72 5.04zm-3.44-11.2 5.84-.48c-.08-2.8-.48-4.4-2.4-4.4-2-.08-3.12 1.52-3.44 4.88zm20.48 4.96c0 2.08.16 4.24.64 5.76h-6c.48-1.6.64-3.68.64-5.76v-6.24c0-1.68-.56-3.2-1.36-4l6.08-1.6.08.08-.16 4.32zm-5.36-15.76c0-1.52 1.12-2.8 2.8-2.8s2.8 1.2 2.8 2.8c0 1.52-1.12 2.8-2.8 2.8-1.6 0-2.8-1.28-2.8-2.8zm12.64 3.84.08 3.84h.08c.8-2.16 2.48-3.84 5.28-3.84 3.2 0 4.24 1.36 4.48 3.84h.08c.8-2.16 2.4-3.84 5.2-3.84 3.6 0 4.56 1.76 4.56 5.2v6.8c0 2.08.16 4.24.64 5.76h-5.84c.48-1.52.56-3.36.56-5.6v-6.4c0-1.6-.48-2.32-2.16-2.32-1.36 0-2.16.24-2.88 1.04v7.6c0 2.08.16 4.24.64 5.76h-5.84c.48-1.52.56-3.36.56-5.6v-6.48c0-1.6-.48-2.32-2.16-2.32-1.36 0-2 .24-2.88 1.04v7.76c0 2.24.08 4.08.56 5.6h-5.84c.48-1.6.64-3.68.64-5.76v-6.32c0-1.68-.56-3.2-1.36-4zm26.64 0 .08 3.84h.08c.8-2.16 2.48-3.84 5.28-3.84 3.2 0 4.24 1.36 4.48 3.84h.08c.8-2.16 2.4-3.84 5.2-3.84 3.6 0 4.56 1.76 4.56 5.2v6.8c0 2.08.16 4.24.64 5.76h-5.84c.48-1.52.56-3.36.56-5.6v-6.4c0-1.6-.48-2.32-2.16-2.32-1.36 0-2.16.24-2.88 1.04v7.6c0 2.08.16 4.24.64 5.76h-6c.48-1.52.56-3.36.56-5.6v-6.48c0-1.6-.48-2.32-2.16-2.32-1.36 0-2 .24-2.88 1.04v7.76c0 2.24.08 4.08.56 5.6h-5.84c.48-1.6.64-3.68.64-5.76v-6.32c0-1.68-.56-3.2-1.36-4zm26.56.16v12c0 1.76.72 2.8 2.4 2.8 1.52 0 2.56-.48 3.2-1.36v-8c0-1.76-.16-3.28-.72-4.88l5.36-.56v12.4c0 2.72.32 3.92.72 5.2h-5.2v-3.44h-.08c-.72 2.24-2.16 3.84-5.2 3.84-3.84 0-5.2-2.24-5.2-5.68v-6.8c0-1.76-.16-3.28-.72-4.88zm17.6-.16.08 3.84h.08c.8-2.16 2.64-3.84 5.44-3.84 3.6 0 4.72 1.76 4.72 5.2v6.8c0 2.08.16 4.24.64 5.76h-5.84c.48-1.52.56-3.36.56-5.6v-6.4c0-1.6-.64-2.32-2.32-2.32-1.36 0-2.32.32-3.04 1.04v7.76c0 2.24.08 4.08.56 5.6h-5.92c.48-1.6.64-3.68.64-5.76v-6.32c0-1.68-.56-3.2-1.36-4zm29.04 9.04c0 5.6-4.08 9.12-8.4 9.12-4.4 0-8.64-3.28-8.64-9.04 0-5.6 4.08-9.12 8.4-9.12 4.4-.08 8.64 3.28 8.64 9.04zm-5.04.08c0-5.68-1.36-7.04-3.6-7.04-2.16 0-3.36 1.52-3.36 6.88 0 5.68 1.36 7.04 3.6 7.04 2.16 0 3.36-1.52 3.36-6.88zm11.68 2.8c0 2.08.16 4.24.64 5.76h-5.92c.48-1.6.64-3.68.64-5.76v-13.68c0-1.68-.56-3.2-1.36-4l6.08-1.6.08.08c-.08 1.52-.16 4.16-.16 5.04zm19.12-2.88c0 5.6-4.08 9.12-8.4 9.12-4.4 0-8.64-3.28-8.64-9.04 0-5.6 4.08-9.12 8.4-9.12 4.4-.08 8.64 3.28 8.64 9.04zm-5.04.08c0-5.68-1.36-7.04-3.6-7.04-2.16 0-3.36 1.52-3.36 6.88 0 5.68 1.36 7.04 3.6 7.04 2.08 0 3.36-1.52 3.36-6.88zm17.84-7.76h.08c.88-1.52 2.4-2.24 3.44-2.24 1.52 0 2.56.8 2.56 2 0 1.12-.56 2.08-1.76 2.08-.88 0-1.2-.48-1.52-.88-.32-.32-.56-.72-1.2-.72-.32 0-.56.08-.88.24.96 1.12 1.6 2.48 1.6 3.84 0 4.08-3.36 6.24-7.12 6.24-.96 0-2-.16-2.96-.48-.48.32-.72.8-.72 1.36 0 .72.48 1.2 1.6 1.2 2.08 0 5.2-.16 7.28-.16 2.88 0 4.56 1.2 4.56 4 0 4.24-3.76 6.56-9.76 6.56-5.52 0-7.84-1.52-7.84-3.36 0-1.6 2-2.4 4.48-2.8v-.08c-1.68-.32-3.2-1.68-3.2-3.6 0-1.84 1.28-2.96 3.04-3.44v-.16c-2-.88-3.52-2.56-3.52-4.96 0-4.08 3.36-6.24 7.12-6.24 1.6.16 3.44.64 4.72 1.6zm-4.8 21.2c4.4 0 6.24-1.36 6.24-2.8 0-1.04-.72-1.44-2.08-1.44-1.92 0-6.16.16-6.96.32-.8.08-1.36.88-1.36 1.6 0 1.36 1.28 2.32 4.16 2.32zm2.72-16.72c0-2.56-1.12-3.92-2.8-3.92-1.76 0-2.72 1.2-2.72 4.16 0 2.56 1.12 3.92 2.8 3.92 1.76 0 2.72-1.2 2.72-4.16z"/><path d="m251.84 12.72c-.88-2.24-1.52-3.6-2.32-5.04h6.24c-.16 1.36.16 2.48.8 4.48l2.32 6.96h.08l2.4-7.12c.48-1.6.72-2.96.32-4.24h4.32c-.8 1.36-1.6 2.88-2.4 5.2l-3.6 9.92c-2.4 6.48-4.64 9.12-7.76 9.12-1.6 0-2.56-.88-2.56-2.08 0-1.12.72-1.76 1.76-1.76 1.12 0 1.44.88 2.16.88.96 0 2.16-2 2.96-4.24z"/></g></svg>