<?xml version="1.0" encoding="utf-8"?>
<!-- Generator: Adobe Illustrator 28.3.0, SVG Export Plug-In . SVG Version: 6.00 Build 0)  -->
<svg version="1.1" id="Layer_1" xmlns="http://www.w3.org/2000/svg" xmlns:xlink="http://www.w3.org/1999/xlink" x="0px" y="0px"
	 viewBox="0 0 400 400" style="enable-background:new 0 0 400 400;" xml:space="preserve">
<style type="text/css">
	
		.st0{opacity:0.1;fill:#FFFFFF;stroke:#FFFFFF;stroke-width:18;stroke-linecap:round;stroke-linejoin:round;stroke-miterlimit:10;enable-background:new    ;}
	.st1{fill:#C72326;}
</style>
<rect x="11.9" y="10.2" class="st0" width="376.9" height="381.4"/>
<g>
	<path d="M25.2,280.6h24.9v-2.3C47,278.1,40,276.5,40,273c0-1.4,0.4-3.5,1-5.6c0.8-3.1,1.9-6.4,3.5-10.9h21.2l5.4,15.7
		c0.2,0.8,0.4,1.6,0.4,2.3c0,2.5-5.8,3.7-8.9,3.9v2.3h28.8v-2.3c-1.6,0-4.5-0.8-6-1.9c-2.3-1.4-2.7-2.9-3.5-4.7
		c-3.3-9.5-11.9-34.4-21-60.2h-4.1c-6.8,19.2-14,40.2-20.4,57.3c-1.4,3.5-2.9,6.4-5.2,7.8c-1.6,1-4.5,1.9-6.4,1.9L25.2,280.6
		L25.2,280.6z M45.6,253.2l9.5-27.6l9.7,27.6H45.6z"/>
	<path d="M107,281.8c5.6,0,9.9-3.9,11.7-6.2h0.4v4.3l0.6,0.6l15.9-1v-1.9c-1.6,0-4.3-0.4-5.4-1.2c-1.4-1-2.1-2.9-2.3-4.7v-64.7
		l-0.8-0.8l-18.3,1v1.9c2.5,0.2,6.4,1,7.8,2.3c1.4,1,2.3,3.7,2.5,5.8v19.8c-1-0.4-5.2-2.7-10.7-2.7c-10.5,0-19.8,9.7-19.8,23.1
		C88.7,272.4,96.7,281.8,107,281.8z M110.5,277.5c-8.4,0-11.9-9.3-11.9-19.2c0-13.6,4.5-21.8,10.9-21.8c5.8,0,8.7,4.7,9.7,8.2V273
		C116.7,275.9,114.6,277.5,110.5,277.5z"/>
	<path d="M153.3,281.2h3.3c1.2-4.3,2.5-7.4,3.5-10.7c3.7-10.5,7-18.5,10.5-27.6c1.2-3.1,5.2-5.2,7-5.6v-1.6h-16.9v2.1
		c1.4,0.2,6.8,1.6,6.8,3.7c0,0.8-0.2,2.1-0.4,2.9c-3.1,9.5-5.8,16.5-8.9,24.9c-3.7-10.1-8-21.8-9.7-26.8c-0.4-1.2-0.6-2.1-0.6-2.1
		c0-1.6,3.1-2.1,5.2-2.1v-2.3h-21v2.1c2.7,0.4,5.8,2.1,6.8,4.7C144.9,258.8,147.2,263.7,153.3,281.2z"/>
	<path d="M186.7,281.8c5.4,0,9.9-2.7,13.2-6.8h0.2c1.4,4.5,3.9,6.6,8,6.6c5.6,0,9.3-3.7,9.7-12.8h-2.3c-0.2,3.9-0.6,7.6-3.1,7.6
		c-2.7,0-4.1-3.3-4.1-4.9c0-3.3,0.4-13.4,0.4-22.2c0-13.2-6.8-14.6-15.7-14.6c-7,0-14.6,4.5-14.6,10.7c0,2.9,1.2,5.2,4.1,5.2
		c3.1,0,6-1.9,6-4.3c0-2.3-0.8-4.3-0.8-5.8c0.8-1,2.1-3.5,4.9-3.5c7.2,0,7.4,8.2,7.4,10.1v5.6c-3.7,2.5-9.9,3.9-15,6.2
		c-4.3,1.9-8.7,4.5-8.7,12.8C176.4,277.5,180.5,281.8,186.7,281.8z M191.7,277.1c-3.5,0-5.8-2.7-5.8-7.4c0-8.9,6-11.7,14.2-14.6
		l-0.4,17.5C197.8,275.4,196.2,277.1,191.7,277.1z"/>
	<path d="M218,280.6h21.6v-2.1c-1.4,0-2.9-0.4-4.1-1.2c-1.4-0.8-2.3-2.3-2.3-4.3v-27.4c0.8-2.3,4.3-6.4,10.5-6.4
		c3.7,0,7.2,3.7,7.2,10.7v23.5c0,2.3-0.6,3.9-2.5,4.3c-1,0.4-2.7,0.6-4.1,0.6v2.1h21.8v-2.1c-1.6,0-2.7-0.4-4.1-1
		c-1.6-0.8-2.3-2.3-2.3-4.3v-22.9c0-9.5-3.7-15.7-12.2-15.7c-7.6,0-10.9,4.3-14.2,8.2v-6.8l-0.6-0.6l-15,1v1.9
		c1.6,0,3.5,0.8,4.5,1.6c1.4,1,2.3,3.3,2.5,5.2v28.4c0,2.3-0.8,3.9-2.5,4.3c-1.2,0.4-2.5,0.6-3.9,0.6v2.3L218,280.6L218,280.6z
		 M288.3,281.8c7.2,0,13.4-5.2,16.9-11.9l-2.1-1.4c-2.7,5.8-6.6,8.9-12.8,8.9c-7.8,0-11.9-8.4-11.9-20.4c0-15,5.2-20.2,10.5-20.2
		c2.9,0,4.3,0.6,4.9,3.7c0,1.9-1.2,2.1-1.2,6.2c0,3.9,3.5,4.9,5.4,4.9c3.1,0,4.9-2.3,4.9-5.6c0-6-4.7-11.5-13.8-11.5
		c-12.6,0-20.2,11.3-20.2,23.5C268.7,271.5,275.1,281.8,288.3,281.8z M325.6,281.8c7.6,0,13.6-4.9,16.9-12.2l-1.9-1.2
		c-3.3,6-5.8,8.9-12.6,8.9c-9.3,0-13-9.3-13-21.8v-1h26.6v-0.8c0-10.3-4.5-19.2-17.1-19.2c-12.2,0-19.2,11.5-19.2,23.3
		C305.6,270.7,312,281.8,325.6,281.8z M315.1,252.2c0.2-9.5,4.1-15.5,9.5-15.5c6.4,0,7.8,8.2,7.8,15.2L315.1,252.2z M359.5,282
		c8.2,0,15.5-5.4,15.5-14.2c0-8.2-5.4-11.9-12.6-14.6c-7-2.7-10.1-4.1-10.1-9.3c0-3.5,2.3-7.2,7.2-7.2c6,0,10.5,5.6,11.5,11.3h2.1
		l-0.6-13.6h-2.7l-0.6,2.7c-2.3-1.6-6-2.7-9.5-2.7c-8,0-13.8,5.8-13.8,13.2c0,8.7,6.8,11.9,12.6,14c6.6,2.3,10.1,4.3,10.1,9.5
		c0,4.7-2.5,8.7-8.2,8.7c-7.2,0-12.4-9.1-13.2-13.8h-2.1l0.4,15.5h2.9l0.8-3.1C350.3,279.6,355.2,282,359.5,282z"/>
	<path class="st1" d="M32.4,189.1l-3.3,4.9h-3.5L25,169.1h2.5c4.1,11.3,10.5,22,22.7,22c8.9,0,13.2-5.6,13.2-13.4
		c0-6.4-3.3-11.3-9.7-14.2c-5.6-2.3-9.5-3.9-15-6.4c-7.4-3.3-11.9-9.5-11.9-18.7c0-11.3,8.9-19.6,20.6-19.6c5.2,0,11.5,2.1,15,5.2
		l3.1-4.7h3.5l0.6,24.1H67c-3.9-12.2-8.7-21.4-21.8-21.4c-2.9,0-10.1,2.5-10.1,10.9c0,6.4,2.7,10.3,8.9,13.8
		c4.9,2.9,9.9,4.1,14.2,6.4C66,157,72,161.3,72,172.4c0.4,12.8-9.3,22-22.5,22C41.3,194.5,35.5,191.6,32.4,189.1z"/>
	<path class="st1" d="M75.3,168.7c0-13.2,8.2-25.3,22-25.3c9.9,0,15,6,15,12.4c0,3.5-2.1,6-5.4,6c-2.1,0-5.8-1.2-5.8-5.4
		c0-4.5,1.2-4.5,1.2-6.6c-0.6-3.1-2.1-3.9-5.4-3.9c-5.8,0-11.3,5.8-11.3,21.8c0,13,4.7,21.8,12.8,21.8c6.6,0,10.7-3.3,13.6-9.5
		l2.3,1.6c-3.5,7-10.5,12.8-18.1,12.8C82.3,194.3,75.3,183.4,75.3,168.7z"/>
	<path class="st1" d="M120.2,124.7c0-3.5,2.7-6.6,6.4-6.6c3.9,0,6.6,2.9,6.6,6.4c0,3.7-2.7,6.8-6.6,6.8
		C123.1,131,120.2,128.2,120.2,124.7z M115.6,191c1.9-0.2,3.1-0.4,4.3-0.8c1.9-0.6,2.5-2.7,2.5-4.7v-30.7c-0.2-2.1-1-4.1-2.5-5.4
		c-1.2-0.8-4.1-2.1-6-2.1v-2.1l17.3-1.2l0.6,0.8v40c0,2.1,1,4.1,2.5,4.9c1.6,0.8,3.1,1.2,4.3,1.4v2.1h-23.1V191z"/>
	<path class="st1" d="M167.8,162.1c0-7.6-1.6-16.5-8.2-16.5c-5.8,0-9.9,6.6-10.3,16.7L167.8,162.1z M138.9,168.5
		c0-12.8,7.6-25.1,20.8-25.1c13.4,0,18.3,9.7,18.3,20.4v1h-28.8v1.2c0,13.8,3.9,23.7,14,23.7c7.2,0,9.9-2.9,13.4-9.5l2.1,1.4
		c-3.3,7.6-9.9,13-18.1,13C145.5,194.3,138.9,182.5,138.9,168.5z"/>
	<path class="st1" d="M178.5,191c1.9-0.2,3.1-0.4,4.3-0.8c1.9-0.6,2.5-2.3,2.5-4.7v-30.7c-0.2-2.1-1-4.5-2.5-5.8
		c-1-0.8-3.1-1.6-4.9-1.9V145l16.5-1.2l0.8,0.8v7.2c3.7-3.9,7.4-8.9,15.5-8.9c8.9,0,13,6.6,13,16.9v24.5c0,2.3,0.8,3.9,2.5,4.7
		c1.4,0.6,2.5,1,4.5,1.2v2.1h-23.5v-2.1c1.6-0.2,3.3-0.4,4.5-0.8c1.9-0.6,2.5-2.3,2.5-4.7v-24.7c0-7.2-3.5-11.3-7.6-11.3
		c-6.8,0-10.5,4.5-11.3,6.8v29.3c0,2.3,0.8,3.9,2.5,4.7c1.2,0.8,2.9,1.2,4.5,1.4v2.1h-23.7V191z"/>
	<path class="st1" d="M228.7,168.7c0-13.2,8.2-25.3,22-25.3c9.9,0,15,6,15,12.4c0,3.5-2.1,6-5.4,6c-2.1,0-5.8-1.2-5.8-5.4
		c0-4.5,1.2-4.5,1.2-6.6c-0.6-3.1-2.1-3.9-5.4-3.9c-5.8,0-11.3,5.8-11.3,21.8c0,13,4.7,21.8,12.8,21.8c6.6,0,10.7-3.3,13.6-9.5
		l2.3,1.6c-3.5,7-10.5,12.8-18.1,12.8C235.9,194.3,228.7,183.4,228.7,168.7z"/>
	<path class="st1" d="M296.9,162.1c0-7.6-1.6-16.5-8.2-16.5c-5.8,0-9.9,6.6-10.3,16.7L296.9,162.1z M268.1,168.5
		c0-12.8,7.6-25.1,20.8-25.1c13.4,0,18.3,9.7,18.3,20.4v1h-28.6v1.2c0,13.8,3.9,23.7,14,23.7c7.2,0,9.9-2.9,13.4-9.5l2.1,1.4
		c-3.3,7.6-9.9,13-18.1,13C275.1,194.3,268.1,182.5,268.1,168.5z"/>
</g>
</svg>
